{"glyphs":{"0":{"ha":1050,"x_min":111,"x_max":939,"o":"m 365 0 q 213 28 268 0 q 134 111 157 56 q 111 249 111 167 l 111 569 q 133 705 111 650 q 211 788 156 760 q 365 817 267 817 l 686 817 q 838 788 783 817 q 916 705 893 760 q 939 569 939 650 l 939 249 q 885 63 939 126 q 686 0 831 0 l 365 0 m 406 133 l 647 133 q 727 160 699 133 q 756 232 756 186 l 756 586 q 726 655 756 626 q 647 683 697 683 l 406 683 q 325 657 356 683 q 294 586 294 631 l 294 232 q 324 159 294 185 q 406 133 354 133 z "},"1":{"ha":499,"x_min":28,"x_max":388,"o":"m 204 0 l 204 683 l 38 671 l 28 789 l 388 831 l 388 0 l 204 0 z "},"2":{"ha":883,"x_min":56,"x_max":856,"o":"m 56 0 l 56 135 q 127 181 79 150 q 234 249 175 211 q 354 326 293 286 q 467 401 415 365 q 550 460 519 436 q 612 527 594 494 q 629 592 629 560 l 629 619 q 601 676 629 654 q 510 699 574 699 l 468 699 q 307 693 388 699 q 163 681 226 688 q 69 671 100 675 l 56 797 q 163 813 94 804 q 319 826 231 821 q 506 832 408 832 l 544 832 q 685 812 632 832 q 766 760 738 792 q 804 690 794 728 q 814 615 814 651 l 814 586 q 766 444 814 513 q 611 315 718 375 q 415 208 494 251 q 300 144 335 164 l 300 133 l 856 133 l 856 0 l 56 0 z "},"3":{"ha":960,"x_min":56,"x_max":890,"o":"m 322 0 q 163 8 218 0 q 85 27 107 17 q 56 42 63 38 l 110 149 q 143 144 118 147 q 220 140 168 142 q 361 135 272 138 q 585 133 450 133 q 663 147 636 133 q 698 184 689 161 q 707 232 707 207 l 707 265 q 688 326 707 301 q 611 350 668 350 l 217 350 l 217 472 l 540 472 q 635 498 606 472 q 664 563 664 524 l 664 606 q 642 671 664 644 q 556 697 619 697 l 517 697 q 365 692 444 697 q 217 681 286 688 q 104 669 147 675 l 90 796 q 185 808 117 800 q 349 824 253 817 q 556 831 444 831 l 594 831 q 729 810 679 831 q 805 758 779 790 q 839 687 831 725 q 847 613 847 649 l 847 589 q 818 492 847 526 q 764 440 789 457 q 858 378 825 422 q 890 268 890 333 l 890 235 q 880 153 890 194 q 839 76 869 111 q 750 21 808 42 q 596 0 692 0 l 322 0 z "},"4":{"ha":1053,"x_min":56,"x_max":969,"o":"m 600 0 l 600 150 l 56 150 l 56 286 l 526 817 l 783 817 l 783 283 l 969 283 l 969 150 l 783 150 l 783 0 l 600 0 m 282 283 l 600 283 l 600 647 l 586 647 l 283 297 l 282 283 z "},"5":{"ha":963,"x_min":56,"x_max":893,"o":"m 325 0 q 176 8 232 0 q 94 27 121 17 q 56 42 67 38 l 110 149 q 256 140 140 146 q 601 133 371 133 q 686 160 663 133 q 710 232 710 188 l 710 285 q 687 354 710 325 q 600 383 664 383 l 208 383 l 97 369 l 97 817 l 725 817 q 824 811 794 817 q 853 800 853 806 l 825 683 l 281 683 l 281 493 q 353 500 299 496 q 503 504 408 504 l 613 504 q 831 448 768 504 q 893 281 893 392 l 893 249 q 886 162 893 206 q 856 81 879 118 q 781 22 832 44 q 640 0 729 0 l 325 0 z "},"6":{"ha":1006,"x_min":111,"x_max":936,"o":"m 364 0 q 219 26 271 0 q 144 93 167 53 q 116 175 121 133 q 111 247 111 217 l 111 568 q 116 638 111 596 q 143 720 121 679 q 217 789 165 761 q 364 817 269 817 l 621 817 q 785 808 729 817 q 862 790 840 800 q 889 775 883 781 l 864 669 q 728 678 846 672 q 403 683 610 683 q 316 652 338 683 q 294 585 294 621 l 294 494 q 371 501 311 497 q 546 506 431 506 l 683 506 q 838 481 783 506 q 915 406 893 456 q 936 281 936 356 l 936 247 q 930 162 936 206 q 900 82 924 118 q 826 23 876 46 q 685 0 775 0 l 364 0 m 403 133 l 644 133 q 713 148 690 133 q 744 185 736 163 q 753 232 753 208 l 753 299 q 735 360 753 336 q 657 383 717 383 l 294 383 l 294 231 q 319 162 294 190 q 403 133 343 133 z "},"7":{"ha":857,"x_min":28,"x_max":829,"o":"m 190 0 l 229 83 l 629 669 l 629 683 l 28 683 l 28 817 l 829 817 l 829 682 l 397 0 l 190 0 z "},"8":{"ha":967,"x_min":69,"x_max":897,"o":"m 324 0 q 130 56 190 0 q 69 235 69 113 l 69 250 q 95 367 69 315 q 188 443 121 418 q 130 503 149 463 q 111 596 111 543 l 111 611 q 133 713 111 665 q 211 788 156 760 q 365 817 267 817 l 603 817 q 755 788 700 817 q 833 713 810 760 q 856 611 856 665 l 856 596 q 838 505 856 544 q 778 443 819 465 q 871 367 844 418 q 897 250 897 315 l 897 235 q 837 56 897 113 q 644 0 776 0 l 324 0 m 406 483 l 564 483 q 645 506 618 483 q 672 579 672 528 l 672 586 q 651 660 672 638 q 564 683 631 683 l 406 683 q 318 663 342 683 q 294 586 294 642 l 294 579 q 320 506 294 528 q 406 483 346 483 m 364 133 l 606 133 q 685 157 657 133 q 714 232 714 181 l 714 264 q 685 335 714 308 q 606 361 656 361 l 364 361 q 283 337 314 361 q 253 264 253 313 l 253 232 q 283 157 253 181 q 364 133 313 133 z "},"9":{"ha":1006,"x_min":69,"x_max":894,"o":"m 326 0 q 156 13 208 0 q 88 42 103 25 l 142 149 q 215 142 164 146 q 360 135 267 138 q 603 133 454 133 q 670 149 647 133 q 702 187 693 164 q 711 232 711 210 l 711 322 q 644 316 699 321 q 474 311 589 311 l 322 311 q 126 370 182 311 q 69 550 69 429 l 69 569 q 76 655 69 611 q 106 735 82 699 q 181 794 129 771 q 321 817 232 817 l 642 817 q 788 790 736 817 q 862 724 839 764 q 890 642 885 683 q 894 569 894 600 l 894 249 q 890 179 894 221 q 863 97 885 138 q 788 28 840 56 q 642 0 736 0 l 326 0 m 363 433 l 711 433 l 711 586 q 685 654 711 625 q 603 683 660 683 l 363 683 q 276 651 299 683 q 253 586 253 619 l 253 533 q 274 460 253 486 q 363 433 294 433 z "},"\r":{"ha":833,"x_min":0,"x_max":0,"o":""}," ":{"ha":306,"x_min":0,"x_max":0,"o":""},"A":{"ha":1086,"x_min":0,"x_max":1086,"o":"m 0 0 l 407 817 l 681 817 l 1086 0 l 872 0 l 790 176 l 293 176 l 203 0 l 0 0 m 343 313 l 739 313 l 549 692 l 535 692 l 343 313 z "},"Æ":{"ha":1661,"x_min":14,"x_max":1633,"o":"m 14 0 l 392 817 l 1572 817 l 1572 683 l 892 683 l 892 492 l 1411 492 l 1411 354 l 892 354 l 892 133 l 1578 133 l 1633 15 q 1596 5 1633 10 q 1467 0 1558 0 l 708 0 l 708 190 l 303 190 l 217 0 l 14 0 m 350 313 l 708 313 l 708 706 l 519 706 l 350 313 z "},"Ǽ":{"ha":1661,"x_min":14,"x_max":1633,"o":"m 14 0 l 392 817 l 1572 817 l 1572 683 l 892 683 l 892 492 l 1411 492 l 1411 354 l 892 354 l 892 133 l 1578 133 l 1633 15 q 1596 5 1633 10 q 1467 0 1558 0 l 708 0 l 708 190 l 303 190 l 217 0 l 14 0 m 350 313 l 708 313 l 708 706 l 519 706 l 350 313 m 768 914 q 781 965 768 932 q 811 1030 794 997 q 838 1079 828 1063 q 869 1109 850 1099 q 921 1119 888 1119 l 936 1119 q 990 1079 990 1119 q 965 1026 990 1058 q 903 965 939 994 q 838 915 868 935 q 792 894 815 901 q 768 914 768 888 z "},"Á":{"ha":1086,"x_min":0,"x_max":1086,"o":"m 0 0 l 407 817 l 681 817 l 1086 0 l 872 0 l 790 176 l 293 176 l 203 0 l 0 0 m 343 313 l 739 313 l 549 692 l 535 692 l 343 313 m 496 914 q 509 965 496 932 q 539 1030 522 997 q 565 1079 556 1063 q 597 1109 578 1099 q 649 1119 615 1119 l 664 1119 q 718 1079 718 1119 q 692 1026 718 1058 q 631 965 667 994 q 565 915 596 935 q 519 894 543 901 q 496 914 496 888 z "},"Ă":{"ha":1086,"x_min":0,"x_max":1086,"o":"m 0 0 l 407 817 l 681 817 l 1086 0 l 872 0 l 790 176 l 293 176 l 203 0 l 0 0 m 343 313 l 739 313 l 549 692 l 535 692 l 343 313 m 544 917 q 419 936 464 917 q 355 990 374 956 q 336 1069 336 1025 q 356 1104 336 1104 q 389 1085 376 1104 q 441 1032 410 1050 q 544 1014 472 1014 q 647 1032 618 1014 q 697 1085 675 1050 q 733 1106 713 1107 q 753 1069 753 1104 q 709 956 753 994 q 544 917 665 917 z "},"Ắ":{"ha":1086,"x_min":0,"x_max":1086,"o":"m 0 0 l 407 817 l 681 817 l 1086 0 l 872 0 l 790 176 l 293 176 l 203 0 l 0 0 m 343 313 l 739 313 l 549 692 l 535 692 l 343 313 z "},"Ặ":{"ha":1086,"x_min":0,"x_max":1086,"o":"m 0 0 l 407 817 l 681 817 l 1086 0 l 872 0 l 790 176 l 293 176 l 203 0 l 0 0 m 343 313 l 739 313 l 549 692 l 535 692 l 343 313 m 544 917 q 419 936 464 917 q 355 990 374 956 q 336 1069 336 1025 q 356 1104 336 1104 q 389 1085 376 1104 q 441 1032 410 1050 q 544 1014 472 1014 q 647 1032 618 1014 q 697 1085 675 1050 q 733 1106 713 1107 q 753 1069 753 1104 q 709 956 753 994 q 544 917 665 917 z "},"Ằ":{"ha":1086,"x_min":0,"x_max":1086,"o":"m 0 0 l 407 817 l 681 817 l 1086 0 l 872 0 l 790 176 l 293 176 l 203 0 l 0 0 m 343 313 l 739 313 l 549 692 l 535 692 l 343 313 z "},"Ẳ":{"ha":1086,"x_min":0,"x_max":1086,"o":"m 0 0 l 407 817 l 681 817 l 1086 0 l 872 0 l 790 176 l 293 176 l 203 0 l 0 0 m 343 313 l 739 313 l 549 692 l 535 692 l 343 313 z "},"Ẵ":{"ha":1086,"x_min":0,"x_max":1086,"o":"m 0 0 l 407 817 l 681 817 l 1086 0 l 872 0 l 790 176 l 293 176 l 203 0 l 0 0 m 343 313 l 739 313 l 549 692 l 535 692 l 343 313 z "},"Â":{"ha":1086,"x_min":0,"x_max":1086,"o":"m 0 0 l 407 817 l 681 817 l 1086 0 l 872 0 l 790 176 l 293 176 l 203 0 l 0 0 m 343 313 l 739 313 l 549 692 l 535 692 l 343 313 m 344 925 q 365 965 344 938 q 412 1021 386 993 q 451 1061 438 1049 q 485 1085 469 1078 q 524 1092 500 1092 l 565 1092 q 607 1081 590 1092 q 635 1060 624 1071 q 674 1016 650 1044 q 716 961 697 988 q 735 925 735 935 q 713 908 735 910 q 665 925 692 907 l 544 1006 l 414 925 q 344 925 344 882 z "},"Ấ":{"ha":1086,"x_min":0,"x_max":1086,"o":"m 0 0 l 407 817 l 681 817 l 1086 0 l 872 0 l 790 176 l 293 176 l 203 0 l 0 0 m 343 313 l 739 313 l 549 692 l 535 692 l 343 313 z "},"Ậ":{"ha":1086,"x_min":0,"x_max":1086,"o":"m 0 0 l 407 817 l 681 817 l 1086 0 l 872 0 l 790 176 l 293 176 l 203 0 l 0 0 m 343 313 l 739 313 l 549 692 l 535 692 l 343 313 m 344 925 q 365 965 344 938 q 412 1021 386 993 q 451 1061 438 1049 q 485 1085 469 1078 q 524 1092 500 1092 l 565 1092 q 607 1081 590 1092 q 635 1060 624 1071 q 674 1016 650 1044 q 716 961 697 988 q 735 925 735 935 q 713 908 735 910 q 665 925 692 907 l 544 1006 l 414 925 q 344 925 344 882 z "},"Ầ":{"ha":1086,"x_min":0,"x_max":1086,"o":"m 0 0 l 407 817 l 681 817 l 1086 0 l 872 0 l 790 176 l 293 176 l 203 0 l 0 0 m 343 313 l 739 313 l 549 692 l 535 692 l 343 313 z "},"Ẩ":{"ha":1086,"x_min":0,"x_max":1086,"o":"m 0 0 l 407 817 l 681 817 l 1086 0 l 872 0 l 790 176 l 293 176 l 203 0 l 0 0 m 343 313 l 739 313 l 549 692 l 535 692 l 343 313 z "},"Ẫ":{"ha":1086,"x_min":0,"x_max":1086,"o":"m 0 0 l 407 817 l 681 817 l 1086 0 l 872 0 l 790 176 l 293 176 l 203 0 l 0 0 m 343 313 l 739 313 l 549 692 l 535 692 l 343 313 z "},"Ȁ":{"ha":1086,"x_min":0,"x_max":1086,"o":"m 0 0 l 407 817 l 681 817 l 1086 0 l 872 0 l 790 176 l 293 176 l 203 0 l 0 0 m 343 313 l 739 313 l 549 692 l 535 692 l 343 313 z "},"Ä":{"ha":1086,"x_min":0,"x_max":1086,"o":"m 0 0 l 407 817 l 681 817 l 1086 0 l 872 0 l 790 176 l 293 176 l 203 0 l 0 0 m 343 313 l 739 313 l 549 692 l 535 692 l 343 313 z "},"Ạ":{"ha":1086,"x_min":0,"x_max":1086,"o":"m 0 0 l 407 817 l 681 817 l 1086 0 l 872 0 l 790 176 l 293 176 l 203 0 l 0 0 m 343 313 l 739 313 l 549 692 l 535 692 l 343 313 z "},"À":{"ha":1086,"x_min":0,"x_max":1086,"o":"m 0 0 l 407 817 l 681 817 l 1086 0 l 872 0 l 790 176 l 293 176 l 203 0 l 0 0 m 343 313 l 739 313 l 549 692 l 535 692 l 343 313 z "},"Ả":{"ha":1086,"x_min":0,"x_max":1086,"o":"m 0 0 l 407 817 l 681 817 l 1086 0 l 872 0 l 790 176 l 293 176 l 203 0 l 0 0 m 343 313 l 739 313 l 549 692 l 535 692 l 343 313 m 510 885 q 494 931 494 897 q 556 975 526 950 q 585 1033 585 1000 q 540 1072 585 1072 q 495 1064 515 1072 q 454 1044 475 1056 q 415 1034 432 1032 q 399 1067 399 1036 q 421 1120 399 1097 q 480 1156 443 1143 q 557 1169 517 1169 l 571 1169 q 659 1137 628 1169 q 690 1064 690 1104 q 681 1005 690 1031 q 651 954 671 979 q 614 916 633 931 q 578 892 594 901 q 539 879 558 881 q 510 885 519 878 z "},"Ȃ":{"ha":1086,"x_min":0,"x_max":1086,"o":"m 0 0 l 407 817 l 681 817 l 1086 0 l 872 0 l 790 176 l 293 176 l 203 0 l 0 0 m 343 313 l 739 313 l 549 692 l 535 692 l 343 313 z "},"Ā":{"ha":1086,"x_min":0,"x_max":1086,"o":"m 0 0 l 407 817 l 681 817 l 1086 0 l 872 0 l 790 176 l 293 176 l 203 0 l 0 0 m 343 313 l 739 313 l 549 692 l 535 692 l 343 313 m 411 917 q 369 926 383 917 q 356 963 356 935 l 356 971 q 368 1006 356 999 q 411 1014 381 1014 l 678 1014 q 719 1006 706 1014 q 733 971 733 999 l 733 963 q 718 926 733 935 q 678 917 703 917 l 411 917 z "},"Ą":{"ha":1086,"x_min":0,"x_max":1086,"o":"m 0 0 l 407 817 l 681 817 l 1086 0 l 872 0 l 790 176 l 293 176 l 203 0 l 0 0 m 343 313 l 739 313 l 549 692 l 535 692 l 343 313 m 928 -232 q 830 -196 864 -232 q 796 -112 796 -160 q 815 -42 796 -71 q 858 3 833 -14 q 901 26 883 21 q 967 36 938 38 q 997 22 997 35 q 982 4 997 13 q 946 -16 967 -4 q 910 -46 925 -28 q 894 -92 894 -64 q 946 -135 894 -135 q 1015 -122 992 -135 q 1060 -108 1039 -108 q 1075 -127 1078 -108 q 1057 -169 1072 -146 q 1011 -212 1042 -193 q 928 -232 981 -232 z "},"Å":{"ha":1086,"x_min":0,"x_max":1086,"o":"m 0 0 l 407 817 l 681 817 l 1086 0 l 872 0 l 790 176 l 293 176 l 203 0 l 0 0 m 343 313 l 739 313 l 549 692 l 535 692 l 343 313 m 511 903 q 419 919 450 903 q 379 964 389 936 q 369 1025 369 992 l 369 1040 q 378 1097 369 1068 q 417 1144 388 1125 q 511 1163 447 1163 l 576 1163 q 668 1144 638 1163 q 708 1097 699 1125 q 718 1040 718 1068 l 718 1025 q 708 964 718 992 q 668 919 699 936 q 576 903 638 903 l 511 903 m 510 994 l 576 994 q 598 1003 592 994 q 604 1022 604 1013 l 604 1042 q 598 1060 604 1051 q 576 1069 592 1069 l 510 1069 q 487 1060 493 1069 q 482 1042 481 1051 l 482 1022 q 487 1003 481 1013 q 510 994 493 994 z "},"Ǻ":{"ha":1086,"x_min":0,"x_max":1086,"o":"m 0 0 l 407 817 l 681 817 l 1086 0 l 872 0 l 790 176 l 293 176 l 203 0 l 0 0 m 343 313 l 739 313 l 549 692 l 535 692 l 343 313 m 511 903 q 419 919 450 903 q 379 964 389 936 q 369 1025 369 992 l 369 1040 q 378 1097 369 1068 q 417 1144 388 1125 q 511 1163 447 1163 l 576 1163 q 668 1144 638 1163 q 708 1097 699 1125 q 718 1040 718 1068 l 718 1025 q 708 964 718 992 q 668 919 699 936 q 576 903 638 903 l 511 903 m 510 994 l 576 994 q 598 1003 592 994 q 604 1022 604 1013 l 604 1042 q 598 1060 604 1051 q 576 1069 592 1069 l 510 1069 q 487 1060 493 1069 q 482 1042 481 1051 l 482 1022 q 487 1003 481 1013 q 510 994 493 994 m 496 1258 q 509 1309 496 1276 q 539 1374 522 1342 q 565 1424 556 1407 q 597 1453 578 1443 q 649 1464 615 1464 l 664 1464 q 718 1424 718 1464 q 692 1371 718 1403 q 631 1309 667 1339 q 565 1260 596 1279 q 519 1239 543 1246 q 496 1258 496 1232 z "},"Ã":{"ha":1086,"x_min":0,"x_max":1086,"o":"m 0 0 l 407 817 l 681 817 l 1086 0 l 872 0 l 790 176 l 293 176 l 203 0 l 0 0 m 343 313 l 739 313 l 549 692 l 535 692 l 343 313 m 642 889 q 574 903 603 889 q 524 938 546 918 q 480 972 501 957 q 432 986 458 986 q 384 962 397 986 q 364 917 371 938 q 344 894 358 900 q 319 896 331 888 q 307 929 307 904 q 342 1037 307 990 q 446 1083 378 1083 q 512 1069 485 1083 q 560 1035 539 1054 q 605 1001 582 1015 q 657 986 628 986 q 704 1010 689 986 q 725 1056 719 1035 q 744 1080 731 1074 q 769 1078 757 1086 q 782 1043 782 1069 q 767 970 782 1006 q 722 912 753 935 q 642 889 690 889 z "},"B":{"ha":1106,"x_min":111,"x_max":1022,"o":"m 111 0 l 111 818 l 715 818 q 906 766 846 818 q 965 640 965 714 l 965 599 q 941 505 965 542 q 889 453 917 468 q 986 385 950 433 q 1022 260 1022 338 l 1022 235 q 1013 151 1022 193 q 976 76 1003 110 q 899 21 949 42 q 771 0 850 0 l 111 0 m 294 490 l 686 490 q 758 515 735 489 q 782 579 782 540 l 782 593 q 760 655 782 625 q 676 685 738 685 l 294 685 l 294 490 m 294 133 l 732 133 q 812 160 785 133 q 839 232 839 186 l 839 257 q 807 327 839 300 q 701 354 775 354 l 294 354 l 294 133 z "},"C":{"ha":1049,"x_min":97,"x_max":1021,"o":"m 351 0 q 197 28 253 0 q 119 111 142 56 q 97 249 97 167 l 97 558 q 157 755 97 692 q 351 818 217 818 l 769 818 q 916 808 865 818 q 967 786 967 797 l 939 671 q 799 680 915 675 q 463 685 683 685 l 392 685 q 281 586 281 685 l 281 232 q 305 159 281 185 q 392 133 329 133 l 449 133 q 806 138 679 133 q 964 149 933 143 l 1021 57 q 998 36 1021 50 q 914 11 975 22 q 738 0 853 0 l 351 0 z "},"Ć":{"ha":1049,"x_min":97,"x_max":1021,"o":"m 351 0 q 197 28 253 0 q 119 111 142 56 q 97 249 97 167 l 97 558 q 157 755 97 692 q 351 818 217 818 l 769 818 q 916 808 865 818 q 967 786 967 797 l 939 671 q 799 680 915 675 q 463 685 683 685 l 392 685 q 281 586 281 685 l 281 232 q 305 159 281 185 q 392 133 329 133 l 449 133 q 806 138 679 133 q 964 149 933 143 l 1021 57 q 998 36 1021 50 q 914 11 975 22 q 738 0 853 0 l 351 0 m 539 914 q 552 965 539 932 q 582 1030 565 997 q 608 1079 599 1063 q 640 1109 621 1099 q 692 1119 658 1119 l 707 1119 q 761 1079 761 1119 q 735 1026 761 1058 q 674 965 710 994 q 608 915 639 935 q 563 894 586 901 q 539 914 539 888 z "},"Č":{"ha":1049,"x_min":97,"x_max":1021,"o":"m 351 0 q 197 28 253 0 q 119 111 142 56 q 97 249 97 167 l 97 558 q 157 755 97 692 q 351 818 217 818 l 769 818 q 916 808 865 818 q 967 786 967 797 l 939 671 q 799 680 915 675 q 463 685 683 685 l 392 685 q 281 586 281 685 l 281 232 q 305 159 281 185 q 392 133 329 133 l 449 133 q 806 138 679 133 q 964 149 933 143 l 1021 57 q 998 36 1021 50 q 914 11 975 22 q 738 0 853 0 l 351 0 z "},"Ç":{"ha":1049,"x_min":97,"x_max":1021,"o":"m 351 0 q 197 28 253 0 q 119 111 142 56 q 97 249 97 167 l 97 558 q 157 755 97 692 q 351 818 217 818 l 769 818 q 916 808 865 818 q 967 786 967 797 l 939 671 q 799 680 915 675 q 463 685 683 685 l 392 685 q 281 586 281 685 l 281 232 q 305 159 281 185 q 392 133 329 133 l 449 133 q 806 138 679 133 q 964 149 933 143 l 1021 57 q 998 36 1021 50 q 914 11 975 22 q 738 0 853 0 l 351 0 m 581 -306 q 482 -282 521 -306 q 426 -232 443 -258 q 419 -208 419 -221 q 428 -190 419 -197 q 450 -187 436 -183 q 505 -201 476 -194 q 569 -208 533 -208 q 638 -165 638 -208 q 597 -126 638 -135 q 503 -118 556 -117 q 528 -59 511 -93 q 561 0 544 -25 q 599 25 578 25 q 615 0 619 25 q 608 -37 611 -21 q 601 -69 604 -54 q 695 -105 663 -75 q 728 -187 728 -135 q 689 -272 728 -237 q 581 -306 650 -306 z "},"Ĉ":{"ha":1049,"x_min":97,"x_max":1021,"o":"m 351 0 q 197 28 253 0 q 119 111 142 56 q 97 249 97 167 l 97 558 q 157 755 97 692 q 351 818 217 818 l 769 818 q 916 808 865 818 q 967 786 967 797 l 939 671 q 799 680 915 675 q 463 685 683 685 l 392 685 q 281 586 281 685 l 281 232 q 305 159 281 185 q 392 133 329 133 l 449 133 q 806 138 679 133 q 964 149 933 143 l 1021 57 q 998 36 1021 50 q 914 11 975 22 q 738 0 853 0 l 351 0 m 388 925 q 408 965 388 938 q 455 1021 429 993 q 494 1061 481 1049 q 528 1085 513 1078 q 567 1092 543 1092 l 608 1092 q 650 1081 633 1092 q 678 1060 667 1071 q 717 1016 693 1044 q 759 961 740 988 q 778 925 778 935 q 756 908 778 910 q 708 925 735 907 l 588 1006 l 457 925 q 388 925 388 882 z "},"Ċ":{"ha":1049,"x_min":97,"x_max":1021,"o":"m 351 0 q 197 28 253 0 q 119 111 142 56 q 97 249 97 167 l 97 558 q 157 755 97 692 q 351 818 217 818 l 769 818 q 916 808 865 818 q 967 786 967 797 l 939 671 q 799 680 915 675 q 463 685 683 685 l 392 685 q 281 586 281 685 l 281 232 q 305 159 281 185 q 392 133 329 133 l 449 133 q 806 138 679 133 q 964 149 933 143 l 1021 57 q 998 36 1021 50 q 914 11 975 22 q 738 0 853 0 l 351 0 z "},"D":{"ha":1119,"x_min":111,"x_max":1036,"o":"m 125 0 l 125 706 l 111 817 l 756 817 q 928 789 868 817 q 1013 706 989 761 q 1036 569 1036 651 l 1036 249 q 1013 110 1036 165 q 930 28 990 56 q 756 0 869 0 l 125 0 m 308 133 l 744 133 q 853 232 851 133 l 853 586 q 829 655 853 626 q 744 683 806 683 l 308 683 l 308 133 z "},"Ǳ":{"ha":2111,"x_min":111,"x_max":2075,"o":"m 125 0 l 125 706 l 111 817 l 756 817 q 928 789 868 817 q 1013 706 989 761 q 1036 569 1036 651 l 1036 249 q 1013 110 1036 165 q 930 28 990 56 q 756 0 869 0 l 125 0 m 308 133 l 744 133 q 853 232 851 133 l 853 586 q 829 655 853 626 q 744 683 806 683 l 308 683 l 308 133 m 1164 0 l 1164 135 l 1781 683 l 1164 683 l 1164 817 l 2026 817 l 2026 683 l 1397 133 l 2019 133 l 2075 15 q 2038 5 2075 10 q 1908 0 2000 0 l 1164 0 z "},"Ǆ":{"ha":2111,"x_min":111,"x_max":2075,"o":"m 125 0 l 125 706 l 111 817 l 756 817 q 928 789 868 817 q 1013 706 989 761 q 1036 569 1036 651 l 1036 249 q 1013 110 1036 165 q 930 28 990 56 q 756 0 869 0 l 125 0 m 308 133 l 744 133 q 853 232 851 133 l 853 586 q 829 655 853 626 q 744 683 806 683 l 308 683 l 308 133 m 1164 0 l 1164 135 l 1781 683 l 1164 683 l 1164 817 l 2026 817 l 2026 683 l 1397 133 l 2019 133 l 2075 15 q 2038 5 2075 10 q 1908 0 2000 0 l 1164 0 z "},"Ď":{"ha":1119,"x_min":111,"x_max":1036,"o":"m 125 0 l 125 706 l 111 817 l 756 817 q 928 789 868 817 q 1013 706 989 761 q 1036 569 1036 651 l 1036 249 q 1013 110 1036 165 q 930 28 990 56 q 756 0 869 0 l 125 0 m 308 133 l 744 133 q 853 232 851 133 l 853 586 q 829 655 853 626 q 744 683 806 683 l 308 683 l 308 133 z "},"Đ":{"ha":1119,"x_min":-3,"x_max":1036,"o":"z "},"Δ":{"ha":1026,"x_min":14,"x_max":1013,"o":"m 14 0 l 465 868 l 567 868 l 1013 0 l 14 0 m 265 132 l 763 132 l 517 624 l 514 624 l 265 132 z "},"ǲ":{"ha":1965,"x_min":111,"x_max":1938,"o":"m 125 0 l 125 706 l 111 817 l 756 817 q 928 789 868 817 q 1013 706 989 761 q 1036 569 1036 651 l 1036 249 q 1013 110 1036 165 q 930 28 990 56 q 756 0 869 0 l 125 0 m 308 133 l 744 133 q 853 232 851 133 l 853 586 q 829 655 853 626 q 744 683 806 683 l 308 683 l 308 133 m 1175 0 l 1175 83 l 1624 501 l 1203 501 l 1203 622 l 1883 622 l 1883 539 l 1422 119 l 1896 119 l 1938 15 q 1896 5 1938 10 q 1756 0 1854 0 l 1175 0 z "},"ǅ":{"ha":1965,"x_min":111,"x_max":1938,"o":"m 125 0 l 125 706 l 111 817 l 756 817 q 928 789 868 817 q 1013 706 989 761 q 1036 569 1036 651 l 1036 249 q 1013 110 1036 165 q 930 28 990 56 q 756 0 869 0 l 125 0 m 308 133 l 744 133 q 853 232 851 133 l 853 586 q 829 655 853 626 q 744 683 806 683 l 308 683 l 308 133 z "},"E":{"ha":1064,"x_min":111,"x_max":1036,"o":"m 111 0 l 111 817 l 975 817 l 975 683 l 294 683 l 294 492 l 814 492 l 814 354 l 294 354 l 294 133 l 981 133 l 1036 15 q 999 5 1036 10 q 869 0 961 0 l 111 0 z "},"É":{"ha":1064,"x_min":111,"x_max":1036,"o":"m 111 0 l 111 817 l 975 817 l 975 683 l 294 683 l 294 492 l 814 492 l 814 354 l 294 354 l 294 133 l 981 133 l 1036 15 q 999 5 1036 10 q 869 0 961 0 l 111 0 m 511 914 q 524 965 511 932 q 554 1030 538 997 q 581 1079 571 1063 q 612 1109 593 1099 q 664 1119 631 1119 l 679 1119 q 733 1079 733 1119 q 708 1026 733 1058 q 647 965 682 994 q 581 915 611 935 q 535 894 558 901 q 511 914 511 888 z "},"Ĕ":{"ha":1064,"x_min":111,"x_max":1036,"o":"m 111 0 l 111 817 l 975 817 l 975 683 l 294 683 l 294 492 l 814 492 l 814 354 l 294 354 l 294 133 l 981 133 l 1036 15 q 999 5 1036 10 q 869 0 961 0 l 111 0 m 560 917 q 434 936 479 917 q 370 990 389 956 q 351 1069 351 1025 q 372 1104 351 1104 q 404 1085 392 1104 q 456 1032 425 1050 q 560 1014 488 1014 q 662 1032 633 1014 q 713 1085 690 1050 q 748 1106 728 1107 q 768 1069 768 1104 q 724 956 768 994 q 560 917 681 917 z "},"Ě":{"ha":1064,"x_min":111,"x_max":1036,"o":"m 111 0 l 111 817 l 975 817 l 975 683 l 294 683 l 294 492 l 814 492 l 814 354 l 294 354 l 294 133 l 981 133 l 1036 15 q 999 5 1036 10 q 869 0 961 0 l 111 0 z "},"Ê":{"ha":1064,"x_min":111,"x_max":1036,"o":"m 111 0 l 111 817 l 975 817 l 975 683 l 294 683 l 294 492 l 814 492 l 814 354 l 294 354 l 294 133 l 981 133 l 1036 15 q 999 5 1036 10 q 869 0 961 0 l 111 0 m 360 925 q 381 965 360 938 q 427 1021 401 993 q 467 1061 453 1049 q 500 1085 485 1078 q 539 1092 515 1092 l 581 1092 q 622 1081 606 1092 q 650 1060 639 1071 q 689 1016 665 1044 q 731 961 713 988 q 750 925 750 935 q 728 908 750 910 q 681 925 707 907 l 560 1006 l 429 925 q 360 925 360 882 z "},"Ế":{"ha":1064,"x_min":111,"x_max":1036,"o":"m 111 0 l 111 817 l 975 817 l 975 683 l 294 683 l 294 492 l 814 492 l 814 354 l 294 354 l 294 133 l 981 133 l 1036 15 q 999 5 1036 10 q 869 0 961 0 l 111 0 z "},"Ệ":{"ha":1064,"x_min":111,"x_max":1036,"o":"m 111 0 l 111 817 l 975 817 l 975 683 l 294 683 l 294 492 l 814 492 l 814 354 l 294 354 l 294 133 l 981 133 l 1036 15 q 999 5 1036 10 q 869 0 961 0 l 111 0 m 360 925 q 381 965 360 938 q 427 1021 401 993 q 467 1061 453 1049 q 500 1085 485 1078 q 539 1092 515 1092 l 581 1092 q 622 1081 606 1092 q 650 1060 639 1071 q 689 1016 665 1044 q 731 961 713 988 q 750 925 750 935 q 728 908 750 910 q 681 925 707 907 l 560 1006 l 429 925 q 360 925 360 882 z "},"Ề":{"ha":1064,"x_min":111,"x_max":1036,"o":"m 111 0 l 111 817 l 975 817 l 975 683 l 294 683 l 294 492 l 814 492 l 814 354 l 294 354 l 294 133 l 981 133 l 1036 15 q 999 5 1036 10 q 869 0 961 0 l 111 0 z "},"Ể":{"ha":1064,"x_min":111,"x_max":1036,"o":"m 111 0 l 111 817 l 975 817 l 975 683 l 294 683 l 294 492 l 814 492 l 814 354 l 294 354 l 294 133 l 981 133 l 1036 15 q 999 5 1036 10 q 869 0 961 0 l 111 0 z "},"Ễ":{"ha":1064,"x_min":111,"x_max":1036,"o":"m 111 0 l 111 817 l 975 817 l 975 683 l 294 683 l 294 492 l 814 492 l 814 354 l 294 354 l 294 133 l 981 133 l 1036 15 q 999 5 1036 10 q 869 0 961 0 l 111 0 z "},"Ȅ":{"ha":1064,"x_min":111,"x_max":1036,"o":"m 111 0 l 111 817 l 975 817 l 975 683 l 294 683 l 294 492 l 814 492 l 814 354 l 294 354 l 294 133 l 981 133 l 1036 15 q 999 5 1036 10 q 869 0 961 0 l 111 0 z "},"Ë":{"ha":1064,"x_min":111,"x_max":1036,"o":"m 111 0 l 111 817 l 975 817 l 975 683 l 294 683 l 294 492 l 814 492 l 814 354 l 294 354 l 294 133 l 981 133 l 1036 15 q 999 5 1036 10 q 869 0 961 0 l 111 0 z "},"Ė":{"ha":1064,"x_min":111,"x_max":1036,"o":"m 111 0 l 111 817 l 975 817 l 975 683 l 294 683 l 294 492 l 814 492 l 814 354 l 294 354 l 294 133 l 981 133 l 1036 15 q 999 5 1036 10 q 869 0 961 0 l 111 0 z "},"Ẹ":{"ha":1064,"x_min":111,"x_max":1036,"o":"m 111 0 l 111 817 l 975 817 l 975 683 l 294 683 l 294 492 l 814 492 l 814 354 l 294 354 l 294 133 l 981 133 l 1036 15 q 999 5 1036 10 q 869 0 961 0 l 111 0 z "},"È":{"ha":1064,"x_min":111,"x_max":1036,"o":"m 111 0 l 111 817 l 975 817 l 975 683 l 294 683 l 294 492 l 814 492 l 814 354 l 294 354 l 294 133 l 981 133 l 1036 15 q 999 5 1036 10 q 869 0 961 0 l 111 0 z "},"Ẻ":{"ha":1064,"x_min":111,"x_max":1036,"o":"m 111 0 l 111 817 l 975 817 l 975 683 l 294 683 l 294 492 l 814 492 l 814 354 l 294 354 l 294 133 l 981 133 l 1036 15 q 999 5 1036 10 q 869 0 961 0 l 111 0 m 525 885 q 510 931 510 897 q 571 975 542 950 q 600 1033 600 1000 q 556 1072 600 1072 q 510 1064 531 1072 q 469 1044 490 1056 q 431 1034 447 1032 q 414 1067 414 1036 q 436 1120 414 1097 q 495 1156 458 1143 q 572 1169 532 1169 l 586 1169 q 674 1137 643 1169 q 706 1064 706 1104 q 696 1005 706 1031 q 667 954 686 979 q 629 916 649 931 q 593 892 610 901 q 554 879 574 881 q 525 885 535 878 z "},"Ȇ":{"ha":1064,"x_min":111,"x_max":1036,"o":"m 111 0 l 111 817 l 975 817 l 975 683 l 294 683 l 294 492 l 814 492 l 814 354 l 294 354 l 294 133 l 981 133 l 1036 15 q 999 5 1036 10 q 869 0 961 0 l 111 0 z "},"Ē":{"ha":1064,"x_min":111,"x_max":1036,"o":"m 111 0 l 111 817 l 975 817 l 975 683 l 294 683 l 294 492 l 814 492 l 814 354 l 294 354 l 294 133 l 981 133 l 1036 15 q 999 5 1036 10 q 869 0 961 0 l 111 0 m 426 917 q 385 926 399 917 q 371 963 371 935 l 371 971 q 383 1006 371 999 q 426 1014 396 1014 l 693 1014 q 735 1006 721 1014 q 749 971 749 999 l 749 963 q 733 926 749 935 q 693 917 718 917 l 426 917 z "},"Ŋ":{"ha":1147,"x_min":111,"x_max":1036,"o":"m 793 -244 q 697 -233 742 -244 q 626 -207 651 -221 l 656 -115 q 707 -127 675 -121 q 774 -133 739 -133 q 834 -114 811 -133 q 857 -53 857 -94 q 840 11 857 -18 q 794 68 822 40 l 376 503 l 322 568 l 308 568 l 308 0 l 125 0 l 125 706 l 111 817 l 311 817 l 783 322 l 838 247 l 853 247 l 853 817 l 1036 817 l 1036 -42 q 1004 -162 1036 -118 q 922 -226 972 -207 q 811 -244 871 -244 l 793 -244 z "},"Ę":{"ha":1064,"x_min":111,"x_max":1036,"o":"m 111 0 l 111 817 l 975 817 l 975 683 l 294 683 l 294 492 l 814 492 l 814 354 l 294 354 l 294 133 l 981 133 l 1036 15 q 999 5 1036 10 q 869 0 961 0 l 111 0 m 854 -226 q 756 -190 790 -226 q 722 -107 722 -154 q 741 -37 722 -65 q 785 9 760 -8 q 828 32 810 26 q 894 42 864 43 q 924 28 924 40 q 908 10 924 18 q 872 -10 893 1 q 836 -40 851 -22 q 821 -86 821 -58 q 872 -129 821 -129 q 942 -116 918 -129 q 986 -103 965 -103 q 1001 -122 1004 -103 q 983 -164 999 -140 q 938 -207 968 -187 q 854 -226 907 -226 z "},"Ð":{"ha":1119,"x_min":-3,"x_max":1036,"o":"m 125 0 l 125 706 l 111 817 l 756 817 q 928 789 868 817 q 1013 706 989 761 q 1036 569 1036 651 l 1036 249 q 1013 110 1036 165 q 930 28 990 56 q 756 0 869 0 l 125 0 m 308 133 l 744 133 q 853 232 851 133 l 853 586 q 829 655 853 626 q 744 683 806 683 l 308 683 l 308 133 m -3 356 l -3 460 l 569 460 l 569 356 l -3 356 z "},"Ẽ":{"ha":1064,"x_min":111,"x_max":1036,"o":"m 111 0 l 111 817 l 975 817 l 975 683 l 294 683 l 294 492 l 814 492 l 814 354 l 294 354 l 294 133 l 981 133 l 1036 15 q 999 5 1036 10 q 869 0 961 0 l 111 0 m 657 889 q 590 903 618 889 q 539 938 561 918 q 495 972 517 957 q 447 986 474 986 q 399 962 413 986 q 379 917 386 938 q 360 894 374 900 q 334 896 346 888 q 322 929 322 904 q 358 1037 322 990 q 461 1083 393 1083 q 527 1069 500 1083 q 576 1035 554 1054 q 620 1001 597 1015 q 672 986 643 986 q 719 1010 704 986 q 740 1056 735 1035 q 759 1080 746 1074 q 785 1078 772 1086 q 797 1043 797 1069 q 783 970 797 1006 q 737 912 768 935 q 657 889 706 889 z "},"F":{"ha":1006,"x_min":111,"x_max":978,"o":"m 125 0 l 125 706 l 111 817 l 978 817 l 978 683 l 308 683 l 308 481 l 828 481 l 828 343 l 308 343 l 308 0 l 125 0 z "},"G":{"ha":1104,"x_min":97,"x_max":1021,"o":"m 351 0 q 197 28 253 0 q 119 111 142 56 q 97 249 97 167 l 97 558 q 157 755 97 692 q 351 818 217 818 l 769 818 q 916 808 865 818 q 967 786 967 797 l 939 671 q 799 680 915 675 q 463 685 683 685 l 392 685 q 281 586 281 685 l 281 232 q 305 159 281 185 q 392 133 329 133 l 449 133 q 674 135 582 133 q 825 139 765 138 l 825 328 l 742 326 l 560 313 l 560 449 l 1007 449 l 1007 58 l 1021 29 q 963 9 1021 18 q 765 0 904 0 l 351 0 z "},"Ğ":{"ha":1104,"x_min":97,"x_max":1021,"o":"m 351 0 q 197 28 253 0 q 119 111 142 56 q 97 249 97 167 l 97 558 q 157 755 97 692 q 351 818 217 818 l 769 818 q 916 808 865 818 q 967 786 967 797 l 939 671 q 799 680 915 675 q 463 685 683 685 l 392 685 q 281 586 281 685 l 281 232 q 305 159 281 185 q 392 133 329 133 l 449 133 q 674 135 582 133 q 825 139 765 138 l 825 328 l 742 326 l 560 313 l 560 449 l 1007 449 l 1007 58 l 1021 29 q 963 9 1021 18 q 765 0 904 0 l 351 0 m 629 917 q 503 936 549 917 q 440 990 458 956 q 421 1069 421 1025 q 441 1104 421 1104 q 474 1085 461 1104 q 526 1032 494 1050 q 629 1014 557 1014 q 731 1032 703 1014 q 782 1085 760 1050 q 817 1106 797 1107 q 838 1069 838 1104 q 794 956 838 994 q 629 917 750 917 z "},"Ǧ":{"ha":1104,"x_min":97,"x_max":1021,"o":"m 351 0 q 197 28 253 0 q 119 111 142 56 q 97 249 97 167 l 97 558 q 157 755 97 692 q 351 818 217 818 l 769 818 q 916 808 865 818 q 967 786 967 797 l 939 671 q 799 680 915 675 q 463 685 683 685 l 392 685 q 281 586 281 685 l 281 232 q 305 159 281 185 q 392 133 329 133 l 449 133 q 674 135 582 133 q 825 139 765 138 l 825 328 l 742 326 l 560 313 l 560 449 l 1007 449 l 1007 58 l 1021 29 q 963 9 1021 18 q 765 0 904 0 l 351 0 z "},"Ĝ":{"ha":1104,"x_min":97,"x_max":1021,"o":"m 351 0 q 197 28 253 0 q 119 111 142 56 q 97 249 97 167 l 97 558 q 157 755 97 692 q 351 818 217 818 l 769 818 q 916 808 865 818 q 967 786 967 797 l 939 671 q 799 680 915 675 q 463 685 683 685 l 392 685 q 281 586 281 685 l 281 232 q 305 159 281 185 q 392 133 329 133 l 449 133 q 674 135 582 133 q 825 139 765 138 l 825 328 l 742 326 l 560 313 l 560 449 l 1007 449 l 1007 58 l 1021 29 q 963 9 1021 18 q 765 0 904 0 l 351 0 m 429 925 q 450 965 429 938 q 497 1021 471 993 q 536 1061 522 1049 q 569 1085 554 1078 q 608 1092 585 1092 l 650 1092 q 692 1081 675 1092 q 719 1060 708 1071 q 758 1016 735 1044 q 801 961 782 988 q 819 925 819 935 q 798 908 819 910 q 750 925 776 907 l 629 1006 l 499 925 q 429 925 429 882 z "},"Ģ":{"ha":1104,"x_min":97,"x_max":1021,"o":"m 351 0 q 197 28 253 0 q 119 111 142 56 q 97 249 97 167 l 97 558 q 157 755 97 692 q 351 818 217 818 l 769 818 q 916 808 865 818 q 967 786 967 797 l 939 671 q 799 680 915 675 q 463 685 683 685 l 392 685 q 281 586 281 685 l 281 232 q 305 159 281 185 q 392 133 329 133 l 449 133 q 674 135 582 133 q 825 139 765 138 l 825 328 l 742 326 l 560 313 l 560 449 l 1007 449 l 1007 58 l 1021 29 q 963 9 1021 18 q 765 0 904 0 l 351 0 z "},"Ġ":{"ha":1104,"x_min":97,"x_max":1021,"o":"m 351 0 q 197 28 253 0 q 119 111 142 56 q 97 249 97 167 l 97 558 q 157 755 97 692 q 351 818 217 818 l 769 818 q 916 808 865 818 q 967 786 967 797 l 939 671 q 799 680 915 675 q 463 685 683 685 l 392 685 q 281 586 281 685 l 281 232 q 305 159 281 185 q 392 133 329 133 l 449 133 q 674 135 582 133 q 825 139 765 138 l 825 328 l 742 326 l 560 313 l 560 449 l 1007 449 l 1007 58 l 1021 29 q 963 9 1021 18 q 765 0 904 0 l 351 0 z "},"ẞ":{"ha":1104,"x_min":111,"x_max":1021,"o":"m 111 0 l 111 589 q 143 767 111 696 q 231 881 175 839 q 361 940 288 922 q 519 957 435 957 q 726 942 651 957 q 814 918 800 928 l 814 804 l 669 564 l 824 564 q 976 515 932 564 q 1021 397 1021 465 l 1021 178 q 1017 122 1021 153 q 997 64 1014 92 q 943 18 981 36 q 838 0 906 0 l 557 0 q 418 8 463 0 q 374 28 374 17 l 429 149 q 526 138 456 143 q 701 133 596 133 l 771 133 q 825 148 811 133 q 838 189 839 163 l 838 372 q 824 417 839 403 q 771 431 808 431 l 532 432 q 500 444 511 432 q 489 474 489 456 l 489 533 l 617 803 l 617 807 l 508 807 q 342 753 390 807 q 293 579 293 699 l 293 0 l 111 0 z "},"H":{"ha":1133,"x_min":111,"x_max":1022,"o":"m 111 0 l 111 817 l 294 817 l 294 478 l 839 478 l 839 817 l 1022 817 l 1022 0 l 839 0 l 839 344 l 294 344 l 294 0 l 111 0 z "},"Ħ":{"ha":1133,"x_min":111,"x_max":1022,"o":"m 111 0 l 111 817 l 294 817 l 294 478 l 839 478 l 839 817 l 1022 817 l 1022 0 l 839 0 l 839 344 l 294 344 l 294 0 l 111 0 m 219 578 l 219 683 l 915 683 l 915 578 l 219 578 z "},"Ĥ":{"ha":1133,"x_min":111,"x_max":1022,"o":"m 111 0 l 111 817 l 294 817 l 294 478 l 839 478 l 839 817 l 1022 817 l 1022 0 l 839 0 l 839 344 l 294 344 l 294 0 l 111 0 m 367 925 q 388 965 367 938 q 434 1021 408 993 q 474 1061 460 1049 q 507 1085 492 1078 q 546 1092 522 1092 l 588 1092 q 629 1081 613 1092 q 657 1060 646 1071 q 696 1016 672 1044 q 738 961 719 988 q 757 925 757 935 q 735 908 757 910 q 688 925 714 907 l 567 1006 l 436 925 q 367 925 367 882 z "},"I":{"ha":406,"x_min":111,"x_max":294,"o":"m 111 0 l 111 817 l 294 817 l 294 0 l 111 0 z "},"Ĳ":{"ha":1325,"x_min":111,"x_max":1214,"o":"m 111 0 l 111 817 l 294 817 l 294 0 l 111 0 m 783 0 q 601 5 683 0 q 469 22 518 10 q 419 57 419 35 l 489 164 q 601 140 529 146 q 790 133 672 133 l 924 133 q 1010 165 989 133 q 1031 232 1031 196 l 1031 706 l 1019 817 l 1214 817 l 1214 249 q 1197 122 1214 179 q 1126 33 1179 65 q 963 0 1072 0 l 783 0 z "},"Í":{"ha":406,"x_min":111,"x_max":376,"o":"m 111 0 l 111 817 l 294 817 l 294 0 l 111 0 m 154 914 q 167 965 154 932 q 197 1030 181 997 q 224 1079 214 1063 q 255 1109 236 1099 q 307 1119 274 1119 l 322 1119 q 376 1079 376 1119 q 351 1026 376 1058 q 290 965 325 994 q 224 915 254 935 q 178 894 201 901 q 154 914 154 888 z "},"Ĭ":{"ha":406,"x_min":-6,"x_max":411,"o":"m 111 0 l 111 817 l 294 817 l 294 0 l 111 0 m 203 917 q 77 936 122 917 q 13 990 32 956 q -6 1069 -6 1025 q 15 1104 -6 1104 q 47 1085 35 1104 q 99 1032 68 1050 q 203 1014 131 1014 q 305 1032 276 1014 q 356 1085 333 1050 q 391 1106 371 1107 q 411 1069 411 1104 q 367 956 411 994 q 203 917 324 917 z "},"Î":{"ha":406,"x_min":3,"x_max":393,"o":"m 111 0 l 111 817 l 294 817 l 294 0 l 111 0 m 3 925 q 24 965 3 938 q 70 1021 44 993 q 110 1061 96 1049 q 143 1085 128 1078 q 182 1092 158 1092 l 224 1092 q 265 1081 249 1092 q 293 1060 282 1071 q 332 1016 308 1044 q 374 961 356 988 q 393 925 393 935 q 372 908 393 910 q 324 925 350 907 l 203 1006 l 72 925 q 3 925 3 882 z "},"Ȉ":{"ha":406,"x_min":-82,"x_max":363,"o":"m 111 0 l 111 817 l 294 817 l 294 0 l 111 0 z "},"Ï":{"ha":406,"x_min":11,"x_max":394,"o":"m 111 0 l 111 817 l 294 817 l 294 0 l 111 0 z "},"İ":{"ha":406,"x_min":111,"x_max":294,"o":"m 111 0 l 111 817 l 294 817 l 294 0 l 111 0 z "},"Ị":{"ha":406,"x_min":111,"x_max":296,"o":"m 111 0 l 111 817 l 294 817 l 294 0 l 111 0 z "},"Ì":{"ha":406,"x_min":71,"x_max":294,"o":"m 111 0 l 111 817 l 294 817 l 294 0 l 111 0 z "},"Ỉ":{"ha":406,"x_min":57,"x_max":349,"o":"m 111 0 l 111 817 l 294 817 l 294 0 l 111 0 m 168 885 q 153 931 153 897 q 214 975 185 950 q 243 1033 243 1000 q 199 1072 243 1072 q 153 1064 174 1072 q 113 1044 133 1056 q 74 1034 90 1032 q 57 1067 57 1036 q 79 1120 57 1097 q 138 1156 101 1143 q 215 1169 175 1169 l 229 1169 q 317 1137 286 1169 q 349 1064 349 1104 q 339 1005 349 1031 q 310 954 329 979 q 272 916 292 931 q 236 892 253 901 q 197 879 217 881 q 168 885 178 878 z "},"Ȋ":{"ha":406,"x_min":-6,"x_max":411,"o":"m 111 0 l 111 817 l 294 817 l 294 0 l 111 0 z "},"Ī":{"ha":406,"x_min":14,"x_max":392,"o":"m 111 0 l 111 817 l 294 817 l 294 0 l 111 0 m 69 917 q 28 926 42 917 q 14 963 14 935 l 14 971 q 26 1006 14 999 q 69 1014 39 1014 l 336 1014 q 378 1006 364 1014 q 392 971 392 999 l 392 963 q 376 926 392 935 q 336 917 361 917 l 69 917 z "},"Į":{"ha":406,"x_min":83,"x_max":365,"o":"m 111 0 l 111 817 l 294 817 l 294 0 l 111 0 m 215 -235 q 117 -199 151 -235 q 83 -115 83 -162 q 102 -45 83 -74 q 146 1 121 -17 q 189 24 171 18 q 255 33 225 35 q 285 19 285 32 q 269 1 285 10 q 233 -19 254 -7 q 197 -49 213 -31 q 182 -94 182 -67 q 233 -137 182 -137 q 303 -124 279 -137 q 347 -111 326 -111 q 363 -130 365 -111 q 344 -172 360 -149 q 299 -215 329 -196 q 215 -235 268 -235 z "},"Ĩ":{"ha":406,"x_min":-35,"x_max":440,"o":"m 111 0 l 111 817 l 294 817 l 294 0 l 111 0 m 300 889 q 233 903 261 889 q 182 938 204 918 q 138 972 160 957 q 90 986 117 986 q 42 962 56 986 q 22 917 29 938 q 3 894 17 900 q -23 896 -11 888 q -35 929 -35 904 q 1 1037 -35 990 q 104 1083 36 1083 q 170 1069 143 1083 q 219 1035 197 1054 q 263 1001 240 1015 q 315 986 286 986 q 363 1010 347 986 q 383 1056 378 1035 q 402 1080 389 1074 q 428 1078 415 1086 q 440 1043 440 1069 q 426 970 440 1006 q 380 912 411 935 q 300 889 349 889 z "},"J":{"ha":919,"x_min":14,"x_max":808,"o":"m 378 0 q 195 5 278 0 q 63 22 113 10 q 14 57 14 35 l 83 164 q 195 140 124 146 q 385 133 267 133 l 518 133 q 604 165 583 133 q 625 232 625 196 l 625 706 l 614 817 l 808 817 l 808 249 q 791 122 808 179 q 720 33 774 65 q 557 0 667 0 l 378 0 z "},"Ĵ":{"ha":919,"x_min":14,"x_max":893,"o":"m 378 0 q 195 5 278 0 q 63 22 113 10 q 14 57 14 35 l 83 164 q 195 140 124 146 q 385 133 267 133 l 518 133 q 604 165 583 133 q 625 232 625 196 l 625 706 l 614 817 l 808 817 l 808 249 q 791 122 808 179 q 720 33 774 65 q 557 0 667 0 l 378 0 m 503 925 q 524 965 503 938 q 570 1021 544 993 q 610 1061 596 1049 q 643 1085 628 1078 q 682 1092 658 1092 l 724 1092 q 765 1081 749 1092 q 793 1060 782 1071 q 832 1016 808 1044 q 874 961 856 988 q 893 925 893 935 q 872 908 893 910 q 824 925 850 907 l 703 1006 l 572 925 q 503 925 503 882 z "},"K":{"ha":1108,"x_min":111,"x_max":1094,"o":"m 982 -14 q 864 14 914 -14 q 765 89 814 42 q 638 217 713 144 q 567 276 603 253 q 485 313 531 300 q 374 325 440 325 l 308 325 l 308 0 l 125 0 l 125 706 l 111 817 l 308 817 l 308 461 l 386 461 q 432 468 414 461 q 465 490 450 475 q 554 588 504 529 q 652 708 604 646 q 735 817 700 769 l 960 817 l 903 733 q 819 646 864 693 q 732 553 775 599 q 654 474 689 508 q 603 425 619 440 q 672 393 640 413 q 749 336 703 374 q 816 279 783 308 q 892 210 849 250 q 983 144 940 165 q 1056 118 1026 124 q 1094 113 1086 113 l 1067 0 q 1042 -9 1063 -4 q 982 -14 1021 -14 z "},"Ķ":{"ha":1108,"x_min":111,"x_max":1094,"o":"m 982 -14 q 864 14 914 -14 q 765 89 814 42 q 638 217 713 144 q 567 276 603 253 q 485 313 531 300 q 374 325 440 325 l 308 325 l 308 0 l 125 0 l 125 706 l 111 817 l 308 817 l 308 461 l 386 461 q 432 468 414 461 q 465 490 450 475 q 554 588 504 529 q 652 708 604 646 q 735 817 700 769 l 960 817 l 903 733 q 819 646 864 693 q 732 553 775 599 q 654 474 689 508 q 603 425 619 440 q 672 393 640 413 q 749 336 703 374 q 816 279 783 308 q 892 210 849 250 q 983 144 940 165 q 1056 118 1026 124 q 1094 113 1086 113 l 1067 0 q 1042 -9 1063 -4 q 982 -14 1021 -14 z "},"L":{"ha":953,"x_min":111,"x_max":939,"o":"m 111 0 l 125 111 l 125 817 l 308 817 l 308 133 l 883 133 l 939 15 q 901 5 939 10 q 772 0 864 0 l 111 0 z "},"Ǉ":{"ha":1872,"x_min":111,"x_max":1761,"o":"m 111 0 l 125 111 l 125 817 l 308 817 l 308 133 l 883 133 l 939 15 q 901 5 939 10 q 772 0 864 0 l 111 0 m 1331 0 q 1148 5 1231 0 q 1016 22 1065 10 q 967 57 967 35 l 1036 164 q 1148 140 1076 146 q 1338 133 1219 133 l 1471 133 q 1557 165 1536 133 q 1578 232 1578 196 l 1578 706 l 1567 817 l 1761 817 l 1761 249 q 1744 122 1761 179 q 1673 33 1726 65 q 1510 0 1619 0 l 1331 0 z "},"Ĺ":{"ha":953,"x_min":111,"x_max":939,"o":"m 111 0 l 125 111 l 125 817 l 308 817 l 308 133 l 883 133 l 939 15 q 901 5 939 10 q 772 0 864 0 l 111 0 m 469 914 q 483 965 469 932 q 513 1030 496 997 q 539 1079 529 1063 q 570 1109 551 1099 q 622 1119 589 1119 l 638 1119 q 692 1079 692 1119 q 666 1026 692 1058 q 605 965 640 994 q 539 915 569 935 q 493 894 517 901 q 469 914 469 888 z "},"Ľ":{"ha":953,"x_min":111,"x_max":939,"o":"m 111 0 l 125 111 l 125 817 l 308 817 l 308 133 l 883 133 l 939 15 q 901 5 939 10 q 772 0 864 0 l 111 0 m 685 551 q 650 539 663 529 q 639 578 638 549 q 647 669 643 621 q 657 762 651 718 q 668 832 663 806 q 758 906 685 907 q 806 889 792 904 q 819 844 819 874 q 805 773 819 815 q 769 686 790 731 q 724 605 747 642 q 685 551 701 568 z "},"Ļ":{"ha":953,"x_min":111,"x_max":939,"o":"m 111 0 l 125 111 l 125 817 l 308 817 l 308 133 l 883 133 l 939 15 q 901 5 939 10 q 772 0 864 0 l 111 0 z "},"Ŀ":{"ha":833,"x_min":111,"x_max":939,"o":"m 111 0 l 125 111 l 125 817 l 308 817 l 308 133 l 883 133 l 939 15 q 901 5 939 10 q 772 0 864 0 l 111 0 z "},"ǈ":{"ha":1335,"x_min":111,"x_max":1251,"o":"m 111 0 l 125 111 l 125 817 l 308 817 l 308 133 l 883 133 l 939 15 q 901 5 939 10 q 772 0 864 0 l 111 0 m 1151 710 q 1076 731 1100 710 q 1053 801 1053 751 q 1076 870 1053 850 q 1151 890 1099 890 q 1228 870 1204 890 q 1251 801 1251 850 q 1228 731 1251 753 q 1151 710 1204 710 m 1007 -244 q 928 -238 967 -244 q 866 -222 890 -232 q 842 -203 842 -212 l 869 -119 q 917 -128 886 -124 q 983 -133 949 -133 q 1044 -115 1021 -133 q 1067 -42 1067 -97 l 1067 622 l 1236 622 l 1236 -42 q 1208 -162 1236 -118 q 1132 -226 1179 -207 q 1025 -244 1085 -244 l 1007 -244 z "},"Ł":{"ha":953,"x_min":-18,"x_max":939,"o":"m 111 0 l 125 111 l 125 817 l 308 817 l 308 133 l 883 133 l 939 15 q 901 5 939 10 q 772 0 864 0 l 111 0 m -18 267 l -17 382 l 465 600 l 465 485 l -18 267 z "},"M":{"ha":1260,"x_min":111,"x_max":1149,"o":"m 125 0 l 125 706 l 111 817 l 322 817 l 636 261 l 961 817 l 1149 817 l 1149 0 l 965 0 l 965 518 l 950 518 l 896 397 l 721 83 l 553 83 l 378 397 l 322 518 l 308 518 l 308 0 l 125 0 z "},"N":{"ha":1147,"x_min":111,"x_max":1036,"o":"m 125 0 l 125 706 l 111 817 l 311 817 l 783 322 l 838 247 l 853 247 l 853 817 l 1036 817 l 1036 0 l 860 0 l 376 503 l 322 568 l 308 568 l 308 0 l 125 0 z "},"Ǌ":{"ha":2067,"x_min":111,"x_max":1956,"o":"m 125 0 l 125 706 l 111 817 l 311 817 l 783 322 l 838 247 l 853 247 l 853 817 l 1036 817 l 1036 0 l 860 0 l 376 503 l 322 568 l 308 568 l 308 0 l 125 0 m 1525 0 q 1342 5 1425 0 q 1210 22 1260 10 q 1161 57 1161 35 l 1231 164 q 1342 140 1271 146 q 1532 133 1414 133 l 1665 133 q 1751 165 1731 133 q 1772 232 1772 196 l 1772 706 l 1761 817 l 1956 817 l 1956 249 q 1938 122 1956 179 q 1867 33 1921 65 q 1704 0 1814 0 l 1525 0 z "},"Ń":{"ha":1147,"x_min":111,"x_max":1036,"o":"m 125 0 l 125 706 l 111 817 l 311 817 l 783 322 l 838 247 l 853 247 l 853 817 l 1036 817 l 1036 0 l 860 0 l 376 503 l 322 568 l 308 568 l 308 0 l 125 0 m 525 914 q 538 965 525 932 q 568 1030 551 997 q 594 1079 585 1063 q 626 1109 607 1099 q 678 1119 644 1119 l 693 1119 q 747 1079 747 1119 q 722 1026 747 1058 q 660 965 696 994 q 594 915 625 935 q 549 894 572 901 q 525 914 525 888 z "},"Ň":{"ha":1147,"x_min":111,"x_max":1036,"o":"m 125 0 l 125 706 l 111 817 l 311 817 l 783 322 l 838 247 l 853 247 l 853 817 l 1036 817 l 1036 0 l 860 0 l 376 503 l 322 568 l 308 568 l 308 0 l 125 0 z "},"Ņ":{"ha":1147,"x_min":111,"x_max":1036,"o":"m 125 0 l 125 706 l 111 817 l 311 817 l 783 322 l 838 247 l 853 247 l 853 817 l 1036 817 l 1036 0 l 860 0 l 376 503 l 322 568 l 308 568 l 308 0 l 125 0 z "},"Ɲ":{"ha":1261,"x_min":14,"x_max":1150,"o":"m 179 -244 q 101 -238 139 -244 q 38 -222 63 -232 q 14 -203 14 -212 l 42 -119 q 90 -128 58 -124 q 156 -133 121 -133 q 216 -115 193 -133 q 239 -42 239 -97 l 239 706 l 225 817 l 425 817 l 897 322 l 951 247 l 967 247 l 967 817 l 1150 817 l 1150 0 l 974 0 l 490 503 l 436 568 l 422 568 l 422 -42 q 390 -162 422 -118 q 308 -226 358 -207 q 197 -244 257 -244 l 179 -244 z "},"ǋ":{"ha":1529,"x_min":111,"x_max":1446,"o":"m 125 0 l 125 706 l 111 817 l 311 817 l 783 322 l 838 247 l 853 247 l 853 817 l 1036 817 l 1036 0 l 860 0 l 376 503 l 322 568 l 308 568 l 308 0 l 125 0 m 1346 710 q 1271 731 1294 710 q 1247 801 1247 751 q 1270 870 1247 850 q 1346 890 1293 890 q 1422 870 1399 890 q 1446 801 1446 850 q 1422 731 1446 753 q 1346 710 1399 710 m 1201 -244 q 1123 -238 1161 -244 q 1060 -222 1085 -232 q 1036 -203 1036 -212 l 1064 -119 q 1112 -128 1081 -124 q 1178 -133 1143 -133 q 1238 -115 1215 -133 q 1261 -42 1261 -97 l 1261 622 l 1431 622 l 1431 -42 q 1402 -162 1431 -118 q 1326 -226 1374 -207 q 1219 -244 1279 -244 l 1201 -244 z "},"Ñ":{"ha":1147,"x_min":111,"x_max":1036,"o":"m 125 0 l 125 706 l 111 817 l 311 817 l 783 322 l 838 247 l 853 247 l 853 817 l 1036 817 l 1036 0 l 860 0 l 376 503 l 322 568 l 308 568 l 308 0 l 125 0 m 671 889 q 603 903 632 889 q 553 938 575 918 q 509 972 531 957 q 461 986 488 986 q 413 962 426 986 q 393 917 400 938 q 374 894 388 900 q 348 896 360 888 q 336 929 336 904 q 372 1037 336 990 q 475 1083 407 1083 q 541 1069 514 1083 q 590 1035 568 1054 q 634 1001 611 1015 q 686 986 657 986 q 733 1010 718 986 q 754 1056 749 1035 q 773 1080 760 1074 q 799 1078 786 1086 q 811 1043 811 1069 q 797 970 811 1006 q 751 912 782 935 q 671 889 719 889 z "},"O":{"ha":1107,"x_min":97,"x_max":1010,"o":"m 351 0 q 199 28 254 0 q 120 111 143 56 q 97 249 97 167 l 97 569 q 119 705 97 650 q 197 788 142 760 q 351 817 253 817 l 757 817 q 909 788 854 817 q 987 705 964 760 q 1010 569 1010 650 l 1010 249 q 956 63 1010 126 q 757 0 901 0 l 351 0 m 392 133 l 718 133 q 798 160 769 133 q 826 232 826 186 l 826 586 q 797 655 826 626 q 718 683 768 683 l 392 683 q 311 657 342 683 q 281 586 281 631 l 281 232 q 310 159 281 185 q 392 133 340 133 z "},"Œ":{"ha":1779,"x_min":97,"x_max":1751,"o":"m 351 0 q 199 28 254 0 q 120 111 143 56 q 97 249 97 167 l 97 569 q 119 705 97 650 q 197 788 142 760 q 351 817 253 817 l 646 817 q 826 767 756 817 l 826 817 l 1690 817 l 1690 683 l 1010 683 l 1010 492 l 1529 492 l 1529 354 l 1010 354 l 1010 133 l 1696 133 l 1751 15 q 1714 5 1751 10 q 1585 0 1676 0 l 826 0 l 826 51 q 646 0 754 0 l 351 0 m 392 133 l 635 133 q 748 147 706 133 q 808 198 790 161 q 826 301 826 235 l 826 517 q 784 647 826 611 q 635 683 742 683 l 392 683 q 311 657 342 683 q 281 586 281 631 l 281 232 q 310 159 281 185 q 392 133 340 133 z "},"Ó":{"ha":1107,"x_min":97,"x_max":1010,"o":"m 351 0 q 199 28 254 0 q 120 111 143 56 q 97 249 97 167 l 97 569 q 119 705 97 650 q 197 788 142 760 q 351 817 253 817 l 757 817 q 909 788 854 817 q 987 705 964 760 q 1010 569 1010 650 l 1010 249 q 956 63 1010 126 q 757 0 901 0 l 351 0 m 392 133 l 718 133 q 798 160 769 133 q 826 232 826 186 l 826 586 q 797 655 826 626 q 718 683 768 683 l 392 683 q 311 657 342 683 q 281 586 281 631 l 281 232 q 310 159 281 185 q 392 133 340 133 m 506 914 q 519 965 506 932 q 549 1030 532 997 q 575 1079 565 1063 q 606 1109 588 1099 q 658 1119 625 1119 l 674 1119 q 728 1079 728 1119 q 702 1026 728 1058 q 641 965 676 994 q 575 915 606 935 q 529 894 553 901 q 506 914 506 888 z "},"Ŏ":{"ha":1107,"x_min":97,"x_max":1010,"o":"m 351 0 q 199 28 254 0 q 120 111 143 56 q 97 249 97 167 l 97 569 q 119 705 97 650 q 197 788 142 760 q 351 817 253 817 l 757 817 q 909 788 854 817 q 987 705 964 760 q 1010 569 1010 650 l 1010 249 q 956 63 1010 126 q 757 0 901 0 l 351 0 m 392 133 l 718 133 q 798 160 769 133 q 826 232 826 186 l 826 586 q 797 655 826 626 q 718 683 768 683 l 392 683 q 311 657 342 683 q 281 586 281 631 l 281 232 q 310 159 281 185 q 392 133 340 133 m 554 917 q 428 936 474 917 q 365 990 383 956 q 346 1069 346 1025 q 366 1104 346 1104 q 399 1085 386 1104 q 451 1032 419 1050 q 554 1014 482 1014 q 656 1032 628 1014 q 707 1085 685 1050 q 742 1106 722 1107 q 763 1069 763 1104 q 719 956 763 994 q 554 917 675 917 z "},"Ô":{"ha":1107,"x_min":97,"x_max":1010,"o":"m 351 0 q 199 28 254 0 q 120 111 143 56 q 97 249 97 167 l 97 569 q 119 705 97 650 q 197 788 142 760 q 351 817 253 817 l 757 817 q 909 788 854 817 q 987 705 964 760 q 1010 569 1010 650 l 1010 249 q 956 63 1010 126 q 757 0 901 0 l 351 0 m 392 133 l 718 133 q 798 160 769 133 q 826 232 826 186 l 826 586 q 797 655 826 626 q 718 683 768 683 l 392 683 q 311 657 342 683 q 281 586 281 631 l 281 232 q 310 159 281 185 q 392 133 340 133 m 354 925 q 375 965 354 938 q 422 1021 396 993 q 461 1061 447 1049 q 494 1085 479 1078 q 533 1092 510 1092 l 575 1092 q 617 1081 600 1092 q 644 1060 633 1071 q 683 1016 660 1044 q 726 961 707 988 q 744 925 744 935 q 723 908 744 910 q 675 925 701 907 l 554 1006 l 424 925 q 354 925 354 882 z "},"Ố":{"ha":1107,"x_min":97,"x_max":1010,"o":"m 351 0 q 199 28 254 0 q 120 111 143 56 q 97 249 97 167 l 97 569 q 119 705 97 650 q 197 788 142 760 q 351 817 253 817 l 757 817 q 909 788 854 817 q 987 705 964 760 q 1010 569 1010 650 l 1010 249 q 956 63 1010 126 q 757 0 901 0 l 351 0 m 392 133 l 718 133 q 798 160 769 133 q 826 232 826 186 l 826 586 q 797 655 826 626 q 718 683 768 683 l 392 683 q 311 657 342 683 q 281 586 281 631 l 281 232 q 310 159 281 185 q 392 133 340 133 z "},"Ộ":{"ha":1107,"x_min":97,"x_max":1010,"o":"m 351 0 q 199 28 254 0 q 120 111 143 56 q 97 249 97 167 l 97 569 q 119 705 97 650 q 197 788 142 760 q 351 817 253 817 l 757 817 q 909 788 854 817 q 987 705 964 760 q 1010 569 1010 650 l 1010 249 q 956 63 1010 126 q 757 0 901 0 l 351 0 m 392 133 l 718 133 q 798 160 769 133 q 826 232 826 186 l 826 586 q 797 655 826 626 q 718 683 768 683 l 392 683 q 311 657 342 683 q 281 586 281 631 l 281 232 q 310 159 281 185 q 392 133 340 133 m 354 925 q 375 965 354 938 q 422 1021 396 993 q 461 1061 447 1049 q 494 1085 479 1078 q 533 1092 510 1092 l 575 1092 q 617 1081 600 1092 q 644 1060 633 1071 q 683 1016 660 1044 q 726 961 707 988 q 744 925 744 935 q 723 908 744 910 q 675 925 701 907 l 554 1006 l 424 925 q 354 925 354 882 z "},"Ồ":{"ha":1107,"x_min":97,"x_max":1010,"o":"m 351 0 q 199 28 254 0 q 120 111 143 56 q 97 249 97 167 l 97 569 q 119 705 97 650 q 197 788 142 760 q 351 817 253 817 l 757 817 q 909 788 854 817 q 987 705 964 760 q 1010 569 1010 650 l 1010 249 q 956 63 1010 126 q 757 0 901 0 l 351 0 m 392 133 l 718 133 q 798 160 769 133 q 826 232 826 186 l 826 586 q 797 655 826 626 q 718 683 768 683 l 392 683 q 311 657 342 683 q 281 586 281 631 l 281 232 q 310 159 281 185 q 392 133 340 133 z "},"Ổ":{"ha":1107,"x_min":97,"x_max":1010,"o":"m 351 0 q 199 28 254 0 q 120 111 143 56 q 97 249 97 167 l 97 569 q 119 705 97 650 q 197 788 142 760 q 351 817 253 817 l 757 817 q 909 788 854 817 q 987 705 964 760 q 1010 569 1010 650 l 1010 249 q 956 63 1010 126 q 757 0 901 0 l 351 0 m 392 133 l 718 133 q 798 160 769 133 q 826 232 826 186 l 826 586 q 797 655 826 626 q 718 683 768 683 l 392 683 q 311 657 342 683 q 281 586 281 631 l 281 232 q 310 159 281 185 q 392 133 340 133 z "},"Ỗ":{"ha":1107,"x_min":97,"x_max":1010,"o":"m 351 0 q 199 28 254 0 q 120 111 143 56 q 97 249 97 167 l 97 569 q 119 705 97 650 q 197 788 142 760 q 351 817 253 817 l 757 817 q 909 788 854 817 q 987 705 964 760 q 1010 569 1010 650 l 1010 249 q 956 63 1010 126 q 757 0 901 0 l 351 0 m 392 133 l 718 133 q 798 160 769 133 q 826 232 826 186 l 826 586 q 797 655 826 626 q 718 683 768 683 l 392 683 q 311 657 342 683 q 281 586 281 631 l 281 232 q 310 159 281 185 q 392 133 340 133 z "},"Ȍ":{"ha":1107,"x_min":97,"x_max":1010,"o":"m 351 0 q 199 28 254 0 q 120 111 143 56 q 97 249 97 167 l 97 569 q 119 705 97 650 q 197 788 142 760 q 351 817 253 817 l 757 817 q 909 788 854 817 q 987 705 964 760 q 1010 569 1010 650 l 1010 249 q 956 63 1010 126 q 757 0 901 0 l 351 0 m 392 133 l 718 133 q 798 160 769 133 q 826 232 826 186 l 826 586 q 797 655 826 626 q 718 683 768 683 l 392 683 q 311 657 342 683 q 281 586 281 631 l 281 232 q 310 159 281 185 q 392 133 340 133 z "},"Ö":{"ha":1107,"x_min":97,"x_max":1010,"o":"m 351 0 q 199 28 254 0 q 120 111 143 56 q 97 249 97 167 l 97 569 q 119 705 97 650 q 197 788 142 760 q 351 817 253 817 l 757 817 q 909 788 854 817 q 987 705 964 760 q 1010 569 1010 650 l 1010 249 q 956 63 1010 126 q 757 0 901 0 l 351 0 m 392 133 l 718 133 q 798 160 769 133 q 826 232 826 186 l 826 586 q 797 655 826 626 q 718 683 768 683 l 392 683 q 311 657 342 683 q 281 586 281 631 l 281 232 q 310 159 281 185 q 392 133 340 133 z "},"Ȫ":{"ha":1107,"x_min":97,"x_max":1010,"o":"m 351 0 q 199 28 254 0 q 120 111 143 56 q 97 249 97 167 l 97 569 q 119 705 97 650 q 197 788 142 760 q 351 817 253 817 l 757 817 q 909 788 854 817 q 987 705 964 760 q 1010 569 1010 650 l 1010 249 q 956 63 1010 126 q 757 0 901 0 l 351 0 m 392 133 l 718 133 q 798 160 769 133 q 826 232 826 186 l 826 586 q 797 655 826 626 q 718 683 768 683 l 392 683 q 311 657 342 683 q 281 586 281 631 l 281 232 q 310 159 281 185 q 392 133 340 133 m 421 1128 q 379 1137 393 1128 q 365 1174 365 1146 l 365 1182 q 378 1217 365 1210 q 421 1225 390 1225 l 688 1225 q 729 1217 715 1225 q 743 1182 743 1210 l 743 1174 q 728 1137 743 1146 q 688 1128 713 1128 l 421 1128 z "},"Ȱ":{"ha":1107,"x_min":97,"x_max":1010,"o":"m 351 0 q 199 28 254 0 q 120 111 143 56 q 97 249 97 167 l 97 569 q 119 705 97 650 q 197 788 142 760 q 351 817 253 817 l 757 817 q 909 788 854 817 q 987 705 964 760 q 1010 569 1010 650 l 1010 249 q 956 63 1010 126 q 757 0 901 0 l 351 0 m 392 133 l 718 133 q 798 160 769 133 q 826 232 826 186 l 826 586 q 797 655 826 626 q 718 683 768 683 l 392 683 q 311 657 342 683 q 281 586 281 631 l 281 232 q 310 159 281 185 q 392 133 340 133 m 418 1128 q 376 1137 390 1128 q 363 1174 363 1146 l 363 1182 q 375 1217 363 1210 q 418 1225 388 1225 l 685 1225 q 726 1217 713 1225 q 740 1182 740 1210 l 740 1174 q 725 1137 740 1146 q 685 1128 710 1128 l 418 1128 z "},"Ọ":{"ha":1107,"x_min":97,"x_max":1010,"o":"m 351 0 q 199 28 254 0 q 120 111 143 56 q 97 249 97 167 l 97 569 q 119 705 97 650 q 197 788 142 760 q 351 817 253 817 l 757 817 q 909 788 854 817 q 987 705 964 760 q 1010 569 1010 650 l 1010 249 q 956 63 1010 126 q 757 0 901 0 l 351 0 m 392 133 l 718 133 q 798 160 769 133 q 826 232 826 186 l 826 586 q 797 655 826 626 q 718 683 768 683 l 392 683 q 311 657 342 683 q 281 586 281 631 l 281 232 q 310 159 281 185 q 392 133 340 133 z "},"Ò":{"ha":1107,"x_min":97,"x_max":1010,"o":"m 351 0 q 199 28 254 0 q 120 111 143 56 q 97 249 97 167 l 97 569 q 119 705 97 650 q 197 788 142 760 q 351 817 253 817 l 757 817 q 909 788 854 817 q 987 705 964 760 q 1010 569 1010 650 l 1010 249 q 956 63 1010 126 q 757 0 901 0 l 351 0 m 392 133 l 718 133 q 798 160 769 133 q 826 232 826 186 l 826 586 q 797 655 826 626 q 718 683 768 683 l 392 683 q 311 657 342 683 q 281 586 281 631 l 281 232 q 310 159 281 185 q 392 133 340 133 z "},"Ỏ":{"ha":1107,"x_min":97,"x_max":1010,"o":"m 351 0 q 199 28 254 0 q 120 111 143 56 q 97 249 97 167 l 97 569 q 119 705 97 650 q 197 788 142 760 q 351 817 253 817 l 757 817 q 909 788 854 817 q 987 705 964 760 q 1010 569 1010 650 l 1010 249 q 956 63 1010 126 q 757 0 901 0 l 351 0 m 392 133 l 718 133 q 798 160 769 133 q 826 232 826 186 l 826 586 q 797 655 826 626 q 718 683 768 683 l 392 683 q 311 657 342 683 q 281 586 281 631 l 281 232 q 310 159 281 185 q 392 133 340 133 m 519 885 q 504 931 504 897 q 565 975 536 950 q 594 1033 594 1000 q 550 1072 594 1072 q 505 1064 525 1072 q 464 1044 485 1056 q 425 1034 442 1032 q 408 1067 408 1036 q 431 1120 408 1097 q 490 1156 453 1143 q 567 1169 526 1169 l 581 1169 q 669 1137 638 1169 q 700 1064 700 1104 q 690 1005 700 1031 q 661 954 681 979 q 624 916 643 931 q 588 892 604 901 q 549 879 568 881 q 519 885 529 878 z "},"Ơ":{"ha":1107,"x_min":97,"x_max":1215,"o":"m 351 0 q 199 28 254 0 q 120 111 143 56 q 97 249 97 167 l 97 569 q 119 705 97 650 q 197 788 142 760 q 351 817 253 817 l 757 817 q 909 788 854 817 q 987 705 964 760 q 1010 569 1010 650 l 1010 249 q 956 63 1010 126 q 757 0 901 0 l 351 0 m 392 133 l 718 133 q 798 160 769 133 q 826 232 826 186 l 826 586 q 797 655 826 626 q 718 683 768 683 l 392 683 q 311 657 342 683 q 281 586 281 631 l 281 232 q 310 159 281 185 q 392 133 340 133 m 1065 567 q 986 579 1022 567 q 935 603 950 592 q 917 632 919 614 q 935 650 914 650 l 1007 650 q 1074 670 1058 650 q 1089 738 1089 690 l 1089 792 q 1131 833 1089 833 l 1174 833 q 1215 792 1215 833 l 1215 758 q 1065 567 1215 567 z "},"Ớ":{"ha":1107,"x_min":97,"x_max":1215,"o":"m 351 0 q 199 28 254 0 q 120 111 143 56 q 97 249 97 167 l 97 569 q 119 705 97 650 q 197 788 142 760 q 351 817 253 817 l 757 817 q 909 788 854 817 q 987 705 964 760 q 1010 569 1010 650 l 1010 249 q 956 63 1010 126 q 757 0 901 0 l 351 0 m 392 133 l 718 133 q 798 160 769 133 q 826 232 826 186 l 826 586 q 797 655 826 626 q 718 683 768 683 l 392 683 q 311 657 342 683 q 281 586 281 631 l 281 232 q 310 159 281 185 q 392 133 340 133 m 1065 567 q 986 579 1022 567 q 935 603 950 592 q 917 632 919 614 q 935 650 914 650 l 1007 650 q 1074 670 1058 650 q 1089 738 1089 690 l 1089 792 q 1131 833 1089 833 l 1174 833 q 1215 792 1215 833 l 1215 758 q 1065 567 1215 567 m 506 914 q 519 965 506 932 q 549 1030 532 997 q 575 1079 565 1063 q 606 1109 588 1099 q 658 1119 625 1119 l 674 1119 q 728 1079 728 1119 q 702 1026 728 1058 q 641 965 676 994 q 575 915 606 935 q 529 894 553 901 q 506 914 506 888 z "},"Ợ":{"ha":1107,"x_min":97,"x_max":1215,"o":"m 351 0 q 199 28 254 0 q 120 111 143 56 q 97 249 97 167 l 97 569 q 119 705 97 650 q 197 788 142 760 q 351 817 253 817 l 757 817 q 909 788 854 817 q 987 705 964 760 q 1010 569 1010 650 l 1010 249 q 956 63 1010 126 q 757 0 901 0 l 351 0 m 392 133 l 718 133 q 798 160 769 133 q 826 232 826 186 l 826 586 q 797 655 826 626 q 718 683 768 683 l 392 683 q 311 657 342 683 q 281 586 281 631 l 281 232 q 310 159 281 185 q 392 133 340 133 m 1065 567 q 986 579 1022 567 q 935 603 950 592 q 917 632 919 614 q 935 650 914 650 l 1007 650 q 1074 670 1058 650 q 1089 738 1089 690 l 1089 792 q 1131 833 1089 833 l 1174 833 q 1215 792 1215 833 l 1215 758 q 1065 567 1215 567 z "},"Ờ":{"ha":1107,"x_min":97,"x_max":1215,"o":"m 351 0 q 199 28 254 0 q 120 111 143 56 q 97 249 97 167 l 97 569 q 119 705 97 650 q 197 788 142 760 q 351 817 253 817 l 757 817 q 909 788 854 817 q 987 705 964 760 q 1010 569 1010 650 l 1010 249 q 956 63 1010 126 q 757 0 901 0 l 351 0 m 392 133 l 718 133 q 798 160 769 133 q 826 232 826 186 l 826 586 q 797 655 826 626 q 718 683 768 683 l 392 683 q 311 657 342 683 q 281 586 281 631 l 281 232 q 310 159 281 185 q 392 133 340 133 m 1065 567 q 986 579 1022 567 q 935 603 950 592 q 917 632 919 614 q 935 650 914 650 l 1007 650 q 1074 670 1058 650 q 1089 738 1089 690 l 1089 792 q 1131 833 1089 833 l 1174 833 q 1215 792 1215 833 l 1215 758 q 1065 567 1215 567 z "},"Ở":{"ha":1107,"x_min":97,"x_max":1215,"o":"m 351 0 q 199 28 254 0 q 120 111 143 56 q 97 249 97 167 l 97 569 q 119 705 97 650 q 197 788 142 760 q 351 817 253 817 l 757 817 q 909 788 854 817 q 987 705 964 760 q 1010 569 1010 650 l 1010 249 q 956 63 1010 126 q 757 0 901 0 l 351 0 m 392 133 l 718 133 q 798 160 769 133 q 826 232 826 186 l 826 586 q 797 655 826 626 q 718 683 768 683 l 392 683 q 311 657 342 683 q 281 586 281 631 l 281 232 q 310 159 281 185 q 392 133 340 133 m 1065 567 q 986 579 1022 567 q 935 603 950 592 q 917 632 919 614 q 935 650 914 650 l 1007 650 q 1074 670 1058 650 q 1089 738 1089 690 l 1089 792 q 1131 833 1089 833 l 1174 833 q 1215 792 1215 833 l 1215 758 q 1065 567 1215 567 m 519 885 q 504 931 504 897 q 565 975 536 950 q 594 1033 594 1000 q 550 1072 594 1072 q 505 1064 525 1072 q 464 1044 485 1056 q 425 1034 442 1032 q 408 1067 408 1036 q 431 1120 408 1097 q 490 1156 453 1143 q 567 1169 526 1169 l 581 1169 q 669 1137 638 1169 q 700 1064 700 1104 q 690 1005 700 1031 q 661 954 681 979 q 624 916 643 931 q 588 892 604 901 q 549 879 568 881 q 519 885 529 878 z "},"Ỡ":{"ha":1107,"x_min":97,"x_max":1215,"o":"m 351 0 q 199 28 254 0 q 120 111 143 56 q 97 249 97 167 l 97 569 q 119 705 97 650 q 197 788 142 760 q 351 817 253 817 l 757 817 q 909 788 854 817 q 987 705 964 760 q 1010 569 1010 650 l 1010 249 q 956 63 1010 126 q 757 0 901 0 l 351 0 m 392 133 l 718 133 q 798 160 769 133 q 826 232 826 186 l 826 586 q 797 655 826 626 q 718 683 768 683 l 392 683 q 311 657 342 683 q 281 586 281 631 l 281 232 q 310 159 281 185 q 392 133 340 133 m 1065 567 q 986 579 1022 567 q 935 603 950 592 q 917 632 919 614 q 935 650 914 650 l 1007 650 q 1074 670 1058 650 q 1089 738 1089 690 l 1089 792 q 1131 833 1089 833 l 1174 833 q 1215 792 1215 833 l 1215 758 q 1065 567 1215 567 m 651 889 q 584 903 613 889 q 533 938 556 918 q 490 972 511 957 q 442 986 468 986 q 394 962 407 986 q 374 917 381 938 q 354 894 368 900 q 328 896 340 888 q 317 929 317 904 q 352 1037 317 990 q 456 1083 388 1083 q 522 1069 494 1083 q 570 1035 549 1054 q 615 1001 592 1015 q 667 986 638 986 q 714 1010 699 986 q 735 1056 729 1035 q 753 1080 740 1074 q 779 1078 767 1086 q 792 1043 792 1069 q 777 970 792 1006 q 731 912 763 935 q 651 889 700 889 z "},"Ő":{"ha":1107,"x_min":97,"x_max":1010,"o":"m 351 0 q 199 28 254 0 q 120 111 143 56 q 97 249 97 167 l 97 569 q 119 705 97 650 q 197 788 142 760 q 351 817 253 817 l 757 817 q 909 788 854 817 q 987 705 964 760 q 1010 569 1010 650 l 1010 249 q 956 63 1010 126 q 757 0 901 0 l 351 0 m 392 133 l 718 133 q 798 160 769 133 q 826 232 826 186 l 826 586 q 797 655 826 626 q 718 683 768 683 l 392 683 q 311 657 342 683 q 281 586 281 631 l 281 232 q 310 159 281 185 q 392 133 340 133 z "},"Ȏ":{"ha":1107,"x_min":97,"x_max":1010,"o":"m 351 0 q 199 28 254 0 q 120 111 143 56 q 97 249 97 167 l 97 569 q 119 705 97 650 q 197 788 142 760 q 351 817 253 817 l 757 817 q 909 788 854 817 q 987 705 964 760 q 1010 569 1010 650 l 1010 249 q 956 63 1010 126 q 757 0 901 0 l 351 0 m 392 133 l 718 133 q 798 160 769 133 q 826 232 826 186 l 826 586 q 797 655 826 626 q 718 683 768 683 l 392 683 q 311 657 342 683 q 281 586 281 631 l 281 232 q 310 159 281 185 q 392 133 340 133 z "},"Ō":{"ha":1107,"x_min":97,"x_max":1010,"o":"m 351 0 q 199 28 254 0 q 120 111 143 56 q 97 249 97 167 l 97 569 q 119 705 97 650 q 197 788 142 760 q 351 817 253 817 l 757 817 q 909 788 854 817 q 987 705 964 760 q 1010 569 1010 650 l 1010 249 q 956 63 1010 126 q 757 0 901 0 l 351 0 m 392 133 l 718 133 q 798 160 769 133 q 826 232 826 186 l 826 586 q 797 655 826 626 q 718 683 768 683 l 392 683 q 311 657 342 683 q 281 586 281 631 l 281 232 q 310 159 281 185 q 392 133 340 133 m 421 917 q 379 926 393 917 q 365 963 365 935 l 365 971 q 378 1006 365 999 q 421 1014 390 1014 l 688 1014 q 729 1006 715 1014 q 743 971 743 999 l 743 963 q 728 926 743 935 q 688 917 713 917 l 421 917 z "},"Ω":{"ha":1221,"x_min":56,"x_max":1165,"o":"m 239 0 q 149 5 192 0 q 81 22 107 10 q 56 57 56 35 l 125 164 q 181 140 142 147 q 246 133 219 133 l 397 133 l 397 161 q 295 203 340 181 q 218 260 250 225 q 169 351 186 294 q 153 497 153 408 l 153 556 q 219 746 153 675 q 435 817 286 817 l 783 817 q 997 746 929 817 q 1064 556 1064 675 l 1064 497 q 1050 354 1064 408 q 1007 267 1036 300 q 933 210 978 233 q 828 163 889 188 l 828 133 l 1110 133 l 1165 15 q 1128 5 1165 10 q 999 0 1090 0 l 825 0 q 694 38 744 0 q 644 139 644 75 q 673 226 644 194 q 772 299 701 258 q 855 372 829 331 q 881 481 881 413 l 881 586 q 851 655 881 626 q 772 683 822 683 l 447 683 q 367 657 397 683 q 336 586 336 631 l 336 481 q 361 369 336 411 q 447 299 386 326 q 528 256 499 276 q 569 209 557 236 q 581 139 581 182 q 566 78 581 110 q 515 23 551 46 q 414 0 479 0 l 239 0 z "},"Ǫ":{"ha":1107,"x_min":97,"x_max":1010,"o":"m 351 0 q 199 28 254 0 q 120 111 143 56 q 97 249 97 167 l 97 569 q 119 705 97 650 q 197 788 142 760 q 351 817 253 817 l 757 817 q 909 788 854 817 q 987 705 964 760 q 1010 569 1010 650 l 1010 249 q 956 63 1010 126 q 757 0 901 0 l 351 0 m 392 133 l 718 133 q 798 160 769 133 q 826 232 826 186 l 826 586 q 797 655 826 626 q 718 683 768 683 l 392 683 q 311 657 342 683 q 281 586 281 631 l 281 232 q 310 159 281 185 q 392 133 340 133 m 560 -225 q 462 -189 496 -225 q 428 -106 428 -153 q 447 -35 428 -64 q 490 10 465 -7 q 533 33 515 28 q 599 43 569 44 q 629 29 629 42 q 614 11 629 19 q 578 -9 599 3 q 542 -39 557 -21 q 526 -85 526 -57 q 578 -128 526 -128 q 647 -115 624 -128 q 692 -101 671 -101 q 707 -120 710 -101 q 689 -162 704 -139 q 643 -206 674 -186 q 560 -225 613 -225 z "},"Ø":{"ha":1107,"x_min":97,"x_max":1010,"o":"m 351 0 q 199 28 254 0 q 120 111 143 56 q 97 249 97 167 l 97 569 q 119 705 97 650 q 197 788 142 760 q 351 817 253 817 l 757 817 q 909 788 854 817 q 987 705 964 760 q 1010 569 1010 650 l 1010 249 q 956 63 1010 126 q 757 0 901 0 l 351 0 m 392 133 l 718 133 q 798 160 769 133 q 826 232 826 186 l 826 586 q 797 655 826 626 q 718 683 768 683 l 392 683 q 311 657 342 683 q 281 586 281 631 l 281 232 q 310 159 281 185 q 392 133 340 133 m 203 -62 l 782 865 l 907 865 l 326 -62 l 203 -62 z "},"Ǿ":{"ha":1107,"x_min":97,"x_max":1010,"o":"m 351 0 q 199 28 254 0 q 120 111 143 56 q 97 249 97 167 l 97 569 q 119 705 97 650 q 197 788 142 760 q 351 817 253 817 l 757 817 q 909 788 854 817 q 987 705 964 760 q 1010 569 1010 650 l 1010 249 q 956 63 1010 126 q 757 0 901 0 l 351 0 m 392 133 l 718 133 q 798 160 769 133 q 826 232 826 186 l 826 586 q 797 655 826 626 q 718 683 768 683 l 392 683 q 311 657 342 683 q 281 586 281 631 l 281 232 q 310 159 281 185 q 392 133 340 133 m 203 -62 l 782 865 l 907 865 l 326 -62 l 203 -62 m 492 914 q 505 965 492 932 q 535 1030 518 997 q 561 1079 551 1063 q 592 1109 574 1099 q 644 1119 611 1119 l 660 1119 q 714 1079 714 1119 q 688 1026 714 1058 q 627 965 663 994 q 561 915 592 935 q 515 894 539 901 q 492 914 492 888 z "},"Õ":{"ha":1107,"x_min":97,"x_max":1010,"o":"m 351 0 q 199 28 254 0 q 120 111 143 56 q 97 249 97 167 l 97 569 q 119 705 97 650 q 197 788 142 760 q 351 817 253 817 l 757 817 q 909 788 854 817 q 987 705 964 760 q 1010 569 1010 650 l 1010 249 q 956 63 1010 126 q 757 0 901 0 l 351 0 m 392 133 l 718 133 q 798 160 769 133 q 826 232 826 186 l 826 586 q 797 655 826 626 q 718 683 768 683 l 392 683 q 311 657 342 683 q 281 586 281 631 l 281 232 q 310 159 281 185 q 392 133 340 133 m 651 889 q 584 903 613 889 q 533 938 556 918 q 490 972 511 957 q 442 986 468 986 q 394 962 407 986 q 374 917 381 938 q 354 894 368 900 q 328 896 340 888 q 317 929 317 904 q 352 1037 317 990 q 456 1083 388 1083 q 522 1069 494 1083 q 570 1035 549 1054 q 615 1001 592 1015 q 667 986 638 986 q 714 1010 699 986 q 735 1056 729 1035 q 753 1080 740 1074 q 779 1078 767 1086 q 792 1043 792 1069 q 777 970 792 1006 q 731 912 763 935 q 651 889 700 889 z "},"Ȭ":{"ha":1107,"x_min":97,"x_max":1010,"o":"m 351 0 q 199 28 254 0 q 120 111 143 56 q 97 249 97 167 l 97 569 q 119 705 97 650 q 197 788 142 760 q 351 817 253 817 l 757 817 q 909 788 854 817 q 987 705 964 760 q 1010 569 1010 650 l 1010 249 q 956 63 1010 126 q 757 0 901 0 l 351 0 m 392 133 l 718 133 q 798 160 769 133 q 826 232 826 186 l 826 586 q 797 655 826 626 q 718 683 768 683 l 392 683 q 311 657 342 683 q 281 586 281 631 l 281 232 q 310 159 281 185 q 392 133 340 133 m 651 889 q 584 903 613 889 q 533 938 556 918 q 490 972 511 957 q 442 986 468 986 q 394 962 407 986 q 374 917 381 938 q 354 894 368 900 q 328 896 340 888 q 317 929 317 904 q 352 1037 317 990 q 456 1083 388 1083 q 522 1069 494 1083 q 570 1035 549 1054 q 615 1001 592 1015 q 667 986 638 986 q 714 1010 699 986 q 735 1056 729 1035 q 753 1080 740 1074 q 779 1078 767 1086 q 792 1043 792 1069 q 777 970 792 1006 q 731 912 763 935 q 651 889 700 889 m 421 1183 q 379 1192 393 1183 q 365 1229 365 1201 l 365 1238 q 378 1273 365 1265 q 421 1281 390 1281 l 688 1281 q 729 1273 715 1281 q 743 1238 743 1265 l 743 1229 q 728 1192 743 1201 q 688 1183 713 1183 l 421 1183 z "},"P":{"ha":1063,"x_min":111,"x_max":979,"o":"m 125 0 l 125 706 l 111 818 l 726 818 q 866 794 815 818 q 941 733 917 771 q 972 651 965 694 q 979 569 979 608 l 979 488 q 969 416 979 456 q 933 340 960 376 q 857 278 907 303 q 726 254 807 254 l 585 254 q 422 258 497 254 q 308 265 346 263 l 308 0 l 125 0 m 308 388 l 686 388 q 772 418 749 388 q 796 492 796 449 l 796 579 q 772 654 796 624 q 688 685 749 685 l 308 685 l 308 388 z "},"Q":{"ha":1119,"x_min":97,"x_max":1175,"o":"m 351 0 q 199 28 254 0 q 120 111 143 56 q 97 249 97 167 l 97 569 q 119 705 97 650 q 197 788 142 760 q 351 817 253 817 l 757 817 q 909 788 854 817 q 987 705 964 760 q 1010 569 1010 650 l 1010 388 q 984 222 1010 283 q 893 117 958 160 q 756 53 853 90 q 865 33 814 43 q 953 15 915 22 q 1047 1 999 7 q 1131 -9 1094 -6 q 1175 -14 1167 -12 l 1144 -133 q 1115 -140 1139 -135 q 1051 -144 1092 -144 q 940 -133 992 -144 q 825 -101 888 -121 q 723 -65 769 -83 q 626 -33 676 -47 q 511 -9 576 -18 q 351 0 446 0 m 392 133 l 564 133 q 715 155 657 133 q 799 231 772 176 q 826 385 826 286 l 826 586 q 797 655 826 626 q 718 683 768 683 l 392 683 q 311 657 342 683 q 281 586 281 631 l 281 232 q 310 159 281 185 q 392 133 340 133 z "},"R":{"ha":1150,"x_min":111,"x_max":1136,"o":"m 999 -14 q 890 3 943 -14 q 768 89 836 21 l 668 189 q 534 281 607 251 q 351 310 461 310 l 308 310 l 308 0 l 125 0 l 125 706 l 111 818 l 726 818 q 866 794 815 818 q 941 733 917 771 q 972 651 965 694 q 979 569 979 608 l 979 543 q 971 475 979 513 q 939 401 963 438 q 872 340 915 365 q 757 311 828 315 q 803 281 775 301 q 860 238 831 261 q 915 194 890 214 q 954 167 940 175 q 1043 126 1004 138 q 1107 114 1082 115 q 1136 113 1132 113 l 1108 0 q 1067 -9 1096 -4 q 999 -14 1038 -14 m 517 436 q 611 438 569 436 q 686 443 653 440 q 772 477 747 450 q 796 547 796 504 l 796 579 q 772 654 796 624 q 688 685 749 685 l 308 685 l 308 443 q 421 438 369 439 q 517 436 472 436 z "},"Ŕ":{"ha":1150,"x_min":111,"x_max":1136,"o":"m 999 -14 q 890 3 943 -14 q 768 89 836 21 l 668 189 q 534 281 607 251 q 351 310 461 310 l 308 310 l 308 0 l 125 0 l 125 706 l 111 818 l 726 818 q 866 794 815 818 q 941 733 917 771 q 972 651 965 694 q 979 569 979 608 l 979 543 q 971 475 979 513 q 939 401 963 438 q 872 340 915 365 q 757 311 828 315 q 803 281 775 301 q 860 238 831 261 q 915 194 890 214 q 954 167 940 175 q 1043 126 1004 138 q 1107 114 1082 115 q 1136 113 1132 113 l 1108 0 q 1067 -9 1096 -4 q 999 -14 1038 -14 m 517 436 q 611 438 569 436 q 686 443 653 440 q 772 477 747 450 q 796 547 796 504 l 796 579 q 772 654 796 624 q 688 685 749 685 l 308 685 l 308 443 q 421 438 369 439 q 517 436 472 436 m 485 914 q 498 965 485 932 q 528 1030 511 997 q 554 1079 544 1063 q 585 1109 567 1099 q 638 1119 604 1119 l 653 1119 q 707 1079 707 1119 q 681 1026 707 1058 q 620 965 656 994 q 554 915 585 935 q 508 894 532 901 q 485 914 485 888 z "},"Ř":{"ha":1150,"x_min":111,"x_max":1136,"o":"m 999 -14 q 890 3 943 -14 q 768 89 836 21 l 668 189 q 534 281 607 251 q 351 310 461 310 l 308 310 l 308 0 l 125 0 l 125 706 l 111 818 l 726 818 q 866 794 815 818 q 941 733 917 771 q 972 651 965 694 q 979 569 979 608 l 979 543 q 971 475 979 513 q 939 401 963 438 q 872 340 915 365 q 757 311 828 315 q 803 281 775 301 q 860 238 831 261 q 915 194 890 214 q 954 167 940 175 q 1043 126 1004 138 q 1107 114 1082 115 q 1136 113 1132 113 l 1108 0 q 1067 -9 1096 -4 q 999 -14 1038 -14 m 517 436 q 611 438 569 436 q 686 443 653 440 q 772 477 747 450 q 796 547 796 504 l 796 579 q 772 654 796 624 q 688 685 749 685 l 308 685 l 308 443 q 421 438 369 439 q 517 436 472 436 z "},"Ŗ":{"ha":1150,"x_min":111,"x_max":1136,"o":"m 999 -14 q 890 3 943 -14 q 768 89 836 21 l 668 189 q 534 281 607 251 q 351 310 461 310 l 308 310 l 308 0 l 125 0 l 125 706 l 111 818 l 726 818 q 866 794 815 818 q 941 733 917 771 q 972 651 965 694 q 979 569 979 608 l 979 543 q 971 475 979 513 q 939 401 963 438 q 872 340 915 365 q 757 311 828 315 q 803 281 775 301 q 860 238 831 261 q 915 194 890 214 q 954 167 940 175 q 1043 126 1004 138 q 1107 114 1082 115 q 1136 113 1132 113 l 1108 0 q 1067 -9 1096 -4 q 999 -14 1038 -14 m 517 436 q 611 438 569 436 q 686 443 653 440 q 772 477 747 450 q 796 547 796 504 l 796 579 q 772 654 796 624 q 688 685 749 685 l 308 685 l 308 443 q 421 438 369 439 q 517 436 472 436 z "},"Ȑ":{"ha":1150,"x_min":111,"x_max":1136,"o":"m 999 -14 q 890 3 943 -14 q 768 89 836 21 l 668 189 q 534 281 607 251 q 351 310 461 310 l 308 310 l 308 0 l 125 0 l 125 706 l 111 818 l 726 818 q 866 794 815 818 q 941 733 917 771 q 972 651 965 694 q 979 569 979 608 l 979 543 q 971 475 979 513 q 939 401 963 438 q 872 340 915 365 q 757 311 828 315 q 803 281 775 301 q 860 238 831 261 q 915 194 890 214 q 954 167 940 175 q 1043 126 1004 138 q 1107 114 1082 115 q 1136 113 1132 113 l 1108 0 q 1067 -9 1096 -4 q 999 -14 1038 -14 m 517 436 q 611 438 569 436 q 686 443 653 440 q 772 477 747 450 q 796 547 796 504 l 796 579 q 772 654 796 624 q 688 685 749 685 l 308 685 l 308 443 q 421 438 369 439 q 517 436 472 436 z "},"Ȓ":{"ha":1150,"x_min":111,"x_max":1136,"o":"m 999 -14 q 890 3 943 -14 q 768 89 836 21 l 668 189 q 534 281 607 251 q 351 310 461 310 l 308 310 l 308 0 l 125 0 l 125 706 l 111 818 l 726 818 q 866 794 815 818 q 941 733 917 771 q 972 651 965 694 q 979 569 979 608 l 979 543 q 971 475 979 513 q 939 401 963 438 q 872 340 915 365 q 757 311 828 315 q 803 281 775 301 q 860 238 831 261 q 915 194 890 214 q 954 167 940 175 q 1043 126 1004 138 q 1107 114 1082 115 q 1136 113 1132 113 l 1108 0 q 1067 -9 1096 -4 q 999 -14 1038 -14 m 517 436 q 611 438 569 436 q 686 443 653 440 q 772 477 747 450 q 796 547 796 504 l 796 579 q 772 654 796 624 q 688 685 749 685 l 308 685 l 308 443 q 421 438 369 439 q 517 436 472 436 z "},"S":{"ha":1050,"x_min":83,"x_max":967,"o":"m 267 0 q 128 8 172 0 q 83 28 83 17 l 139 149 q 298 138 171 143 q 647 133 425 133 l 674 133 q 758 155 733 133 q 783 228 783 176 l 783 256 q 763 325 783 304 q 674 346 743 346 l 351 346 q 147 398 211 346 q 83 568 83 450 l 83 590 q 106 703 83 651 q 185 785 129 754 q 338 817 240 817 l 715 817 q 868 807 810 817 q 926 786 926 797 l 899 669 q 735 678 863 674 q 392 683 607 683 l 376 685 q 290 659 313 685 q 267 594 268 633 l 267 571 q 292 502 267 525 q 378 479 318 479 l 686 479 q 838 461 775 479 q 933 395 900 443 q 967 254 967 347 l 967 232 q 913 64 967 128 q 728 0 860 0 l 267 0 z "},"Ś":{"ha":1050,"x_min":83,"x_max":967,"o":"m 267 0 q 128 8 172 0 q 83 28 83 17 l 139 149 q 298 138 171 143 q 647 133 425 133 l 674 133 q 758 155 733 133 q 783 228 783 176 l 783 256 q 763 325 783 304 q 674 346 743 346 l 351 346 q 147 398 211 346 q 83 568 83 450 l 83 590 q 106 703 83 651 q 185 785 129 754 q 338 817 240 817 l 715 817 q 868 807 810 817 q 926 786 926 797 l 899 669 q 735 678 863 674 q 392 683 607 683 l 376 685 q 290 659 313 685 q 267 594 268 633 l 267 571 q 292 502 267 525 q 378 479 318 479 l 686 479 q 838 461 775 479 q 933 395 900 443 q 967 254 967 347 l 967 232 q 913 64 967 128 q 728 0 860 0 l 267 0 m 490 914 q 503 965 490 932 q 533 1030 517 997 q 560 1079 550 1063 q 591 1109 572 1099 q 643 1119 610 1119 l 658 1119 q 713 1079 713 1119 q 687 1026 713 1058 q 626 965 661 994 q 560 915 590 935 q 514 894 538 901 q 490 914 490 888 z "},"Š":{"ha":1050,"x_min":83,"x_max":967,"o":"m 267 0 q 128 8 172 0 q 83 28 83 17 l 139 149 q 298 138 171 143 q 647 133 425 133 l 674 133 q 758 155 733 133 q 783 228 783 176 l 783 256 q 763 325 783 304 q 674 346 743 346 l 351 346 q 147 398 211 346 q 83 568 83 450 l 83 590 q 106 703 83 651 q 185 785 129 754 q 338 817 240 817 l 715 817 q 868 807 810 817 q 926 786 926 797 l 899 669 q 735 678 863 674 q 392 683 607 683 l 376 685 q 290 659 313 685 q 267 594 268 633 l 267 571 q 292 502 267 525 q 378 479 318 479 l 686 479 q 838 461 775 479 q 933 395 900 443 q 967 254 967 347 l 967 232 q 913 64 967 128 q 728 0 860 0 l 267 0 z "},"Ş":{"ha":1050,"x_min":83,"x_max":967,"o":"m 267 0 q 128 8 172 0 q 83 28 83 17 l 139 149 q 298 138 171 143 q 647 133 425 133 l 674 133 q 758 155 733 133 q 783 228 783 176 l 783 256 q 763 325 783 304 q 674 346 743 346 l 351 346 q 147 398 211 346 q 83 568 83 450 l 83 590 q 106 703 83 651 q 185 785 129 754 q 338 817 240 817 l 715 817 q 868 807 810 817 q 926 786 926 797 l 899 669 q 735 678 863 674 q 392 683 607 683 l 376 685 q 290 659 313 685 q 267 594 268 633 l 267 571 q 292 502 267 525 q 378 479 318 479 l 686 479 q 838 461 775 479 q 933 395 900 443 q 967 254 967 347 l 967 232 q 913 64 967 128 q 728 0 860 0 l 267 0 m 532 -306 q 433 -282 472 -306 q 378 -232 394 -258 q 371 -208 371 -221 q 379 -190 371 -197 q 401 -187 388 -183 q 456 -201 428 -194 q 521 -208 485 -208 q 589 -165 589 -208 q 548 -126 589 -135 q 454 -118 507 -117 q 479 -59 463 -93 q 513 0 496 -25 q 550 25 529 25 q 567 0 571 25 q 559 -37 563 -21 q 553 -69 556 -54 q 647 -105 614 -75 q 679 -187 679 -135 q 640 -272 679 -237 q 532 -306 601 -306 z "},"Ə":{"ha":999,"x_min":69,"x_max":922,"o":"m 269 0 q 117 49 164 0 q 69 185 69 99 l 69 443 l 413 443 q 605 441 528 443 q 738 432 682 439 l 738 628 q 722 665 738 646 q 671 683 707 683 l 617 683 q 364 678 465 683 q 226 669 263 674 l 211 789 q 317 813 211 808 q 669 817 422 817 l 739 817 q 846 795 808 817 q 899 742 883 774 q 919 678 915 710 q 922 625 922 646 l 922 225 q 896 115 922 157 q 817 44 869 72 q 671 6 754 11 q 510 0 588 0 l 269 0 m 319 133 l 611 133 q 703 158 669 133 q 738 258 738 182 l 738 324 l 253 324 l 253 206 q 270 150 253 167 q 319 133 288 133 z "},"Ŝ":{"ha":1050,"x_min":83,"x_max":967,"o":"m 267 0 q 128 8 172 0 q 83 28 83 17 l 139 149 q 298 138 171 143 q 647 133 425 133 l 674 133 q 758 155 733 133 q 783 228 783 176 l 783 256 q 763 325 783 304 q 674 346 743 346 l 351 346 q 147 398 211 346 q 83 568 83 450 l 83 590 q 106 703 83 651 q 185 785 129 754 q 338 817 240 817 l 715 817 q 868 807 810 817 q 926 786 926 797 l 899 669 q 735 678 863 674 q 392 683 607 683 l 376 685 q 290 659 313 685 q 267 594 268 633 l 267 571 q 292 502 267 525 q 378 479 318 479 l 686 479 q 838 461 775 479 q 933 395 900 443 q 967 254 967 347 l 967 232 q 913 64 967 128 q 728 0 860 0 l 267 0 m 339 925 q 360 965 339 938 q 406 1021 381 993 q 446 1061 432 1049 q 479 1085 464 1078 q 518 1092 494 1092 l 560 1092 q 601 1081 585 1092 q 629 1060 618 1071 q 668 1016 644 1044 q 710 961 692 988 q 729 925 729 935 q 708 908 729 910 q 660 925 686 907 l 539 1006 l 408 925 q 339 925 339 882 z "},"Ș":{"ha":1050,"x_min":83,"x_max":967,"o":"m 267 0 q 128 8 172 0 q 83 28 83 17 l 139 149 q 298 138 171 143 q 647 133 425 133 l 674 133 q 758 155 733 133 q 783 228 783 176 l 783 256 q 763 325 783 304 q 674 346 743 346 l 351 346 q 147 398 211 346 q 83 568 83 450 l 83 590 q 106 703 83 651 q 185 785 129 754 q 338 817 240 817 l 715 817 q 868 807 810 817 q 926 786 926 797 l 899 669 q 735 678 863 674 q 392 683 607 683 l 376 685 q 290 659 313 685 q 267 594 268 633 l 267 571 q 292 502 267 525 q 378 479 318 479 l 686 479 q 838 461 775 479 q 933 395 900 443 q 967 254 967 347 l 967 232 q 913 64 967 128 q 728 0 860 0 l 267 0 z "},"T":{"ha":964,"x_min":28,"x_max":936,"o":"m 390 0 l 389 685 l 28 685 l 28 818 l 936 818 l 936 685 l 574 685 l 574 0 l 390 0 z "},"Ŧ":{"ha":964,"x_min":28,"x_max":936,"o":"m 390 0 l 389 685 l 28 685 l 28 818 l 936 818 l 936 685 l 574 685 l 574 0 l 390 0 m 190 356 l 190 460 l 763 460 l 763 356 l 190 356 z "},"Ť":{"ha":964,"x_min":28,"x_max":936,"o":"m 390 0 l 389 685 l 28 685 l 28 818 l 936 818 l 936 685 l 574 685 l 574 0 l 390 0 z "},"Ţ":{"ha":964,"x_min":28,"x_max":936,"o":"m 390 0 l 389 685 l 28 685 l 28 818 l 936 818 l 936 685 l 574 685 l 574 0 l 390 0 m 476 -306 q 378 -282 417 -306 q 322 -232 339 -258 q 315 -208 315 -221 q 324 -190 315 -197 q 346 -187 332 -183 q 401 -201 372 -194 q 465 -208 429 -208 q 533 -165 533 -208 q 492 -126 533 -135 q 399 -118 451 -117 q 424 -59 407 -93 q 457 0 440 -25 q 494 25 474 25 q 511 0 515 25 q 503 -37 507 -21 q 497 -69 500 -54 q 591 -105 558 -75 q 624 -187 624 -135 q 585 -272 624 -237 q 476 -306 546 -306 z "},"Ț":{"ha":964,"x_min":28,"x_max":936,"o":"m 390 0 l 389 685 l 28 685 l 28 818 l 936 818 l 936 685 l 574 685 l 574 0 l 390 0 z "},"Þ":{"ha":1063,"x_min":111,"x_max":979,"o":"m 125 0 l 125 763 l 111 874 l 308 874 l 308 707 l 796 707 q 903 688 865 707 q 956 639 940 668 q 976 580 972 610 q 979 529 979 550 l 979 376 q 976 321 979 351 q 956 263 972 290 q 901 217 939 235 q 796 199 864 199 l 585 199 q 422 203 497 199 q 308 210 346 207 l 308 0 l 125 0 m 308 332 l 729 332 q 775 346 754 332 q 796 388 796 360 l 796 518 q 774 560 796 546 q 729 574 753 574 l 308 574 l 308 332 z "},"U":{"ha":1064,"x_min":90,"x_max":974,"o":"m 317 -14 q 140 54 190 -14 q 90 235 90 122 l 90 817 l 274 817 l 274 229 q 306 142 274 164 q 385 119 338 119 l 679 119 q 757 142 724 119 q 790 229 790 165 l 790 817 l 974 817 l 974 235 q 953 104 974 160 q 883 17 932 49 q 749 -14 835 -14 l 317 -14 z "},"Ú":{"ha":1064,"x_min":90,"x_max":974,"o":"m 317 -14 q 140 54 190 -14 q 90 235 90 122 l 90 817 l 274 817 l 274 229 q 306 142 274 164 q 385 119 338 119 l 679 119 q 757 142 724 119 q 790 229 790 165 l 790 817 l 974 817 l 974 235 q 953 104 974 160 q 883 17 932 49 q 749 -14 835 -14 l 317 -14 m 486 900 q 499 951 486 918 q 529 1016 513 983 q 556 1065 546 1049 q 587 1095 568 1085 q 639 1106 606 1106 l 654 1106 q 708 1065 708 1106 q 683 1013 708 1044 q 622 951 657 981 q 556 901 586 921 q 510 881 533 888 q 486 900 486 874 z "},"Ŭ":{"ha":1064,"x_min":90,"x_max":974,"o":"m 317 -14 q 140 54 190 -14 q 90 235 90 122 l 90 817 l 274 817 l 274 229 q 306 142 274 164 q 385 119 338 119 l 679 119 q 757 142 724 119 q 790 229 790 165 l 790 817 l 974 817 l 974 235 q 953 104 974 160 q 883 17 932 49 q 749 -14 835 -14 l 317 -14 m 535 903 q 409 922 454 903 q 345 976 364 942 q 326 1056 326 1011 q 347 1090 326 1090 q 379 1071 367 1090 q 431 1018 400 1036 q 535 1000 463 1000 q 637 1018 608 1000 q 688 1071 665 1036 q 723 1092 703 1093 q 743 1056 743 1090 q 699 942 743 981 q 535 903 656 903 z "},"Û":{"ha":1064,"x_min":90,"x_max":974,"o":"m 317 -14 q 140 54 190 -14 q 90 235 90 122 l 90 817 l 274 817 l 274 229 q 306 142 274 164 q 385 119 338 119 l 679 119 q 757 142 724 119 q 790 229 790 165 l 790 817 l 974 817 l 974 235 q 953 104 974 160 q 883 17 932 49 q 749 -14 835 -14 l 317 -14 m 335 911 q 356 951 335 924 q 402 1007 376 979 q 442 1047 428 1035 q 475 1071 460 1064 q 514 1078 490 1078 l 556 1078 q 597 1067 581 1078 q 625 1046 614 1057 q 664 1002 640 1031 q 706 947 688 974 q 725 911 725 921 q 703 894 725 896 q 656 911 682 893 l 535 992 l 404 911 q 335 911 335 868 z "},"Ȕ":{"ha":1064,"x_min":90,"x_max":974,"o":"m 317 -14 q 140 54 190 -14 q 90 235 90 122 l 90 817 l 274 817 l 274 229 q 306 142 274 164 q 385 119 338 119 l 679 119 q 757 142 724 119 q 790 229 790 165 l 790 817 l 974 817 l 974 235 q 953 104 974 160 q 883 17 932 49 q 749 -14 835 -14 l 317 -14 z "},"Ü":{"ha":1064,"x_min":90,"x_max":974,"o":"m 317 -14 q 140 54 190 -14 q 90 235 90 122 l 90 817 l 274 817 l 274 229 q 306 142 274 164 q 385 119 338 119 l 679 119 q 757 142 724 119 q 790 229 790 165 l 790 817 l 974 817 l 974 235 q 953 104 974 160 q 883 17 932 49 q 749 -14 835 -14 l 317 -14 z "},"Ụ":{"ha":1064,"x_min":90,"x_max":974,"o":"m 317 -14 q 140 54 190 -14 q 90 235 90 122 l 90 817 l 274 817 l 274 229 q 306 142 274 164 q 385 119 338 119 l 679 119 q 757 142 724 119 q 790 229 790 165 l 790 817 l 974 817 l 974 235 q 953 104 974 160 q 883 17 932 49 q 749 -14 835 -14 l 317 -14 z "},"Ù":{"ha":1064,"x_min":90,"x_max":974,"o":"m 317 -14 q 140 54 190 -14 q 90 235 90 122 l 90 817 l 274 817 l 274 229 q 306 142 274 164 q 385 119 338 119 l 679 119 q 757 142 724 119 q 790 229 790 165 l 790 817 l 974 817 l 974 235 q 953 104 974 160 q 883 17 932 49 q 749 -14 835 -14 l 317 -14 z "},"Ủ":{"ha":1064,"x_min":90,"x_max":974,"o":"m 317 -14 q 140 54 190 -14 q 90 235 90 122 l 90 817 l 274 817 l 274 229 q 306 142 274 164 q 385 119 338 119 l 679 119 q 757 142 724 119 q 790 229 790 165 l 790 817 l 974 817 l 974 235 q 953 104 974 160 q 883 17 932 49 q 749 -14 835 -14 l 317 -14 m 500 871 q 485 917 485 883 q 546 961 517 936 q 575 1019 575 986 q 531 1058 575 1058 q 485 1050 506 1058 q 444 1031 465 1042 q 406 1020 422 1018 q 389 1053 389 1022 q 411 1106 389 1083 q 470 1142 433 1129 q 547 1156 507 1156 l 561 1156 q 649 1123 618 1156 q 681 1050 681 1090 q 671 991 681 1017 q 642 940 661 965 q 604 902 624 917 q 568 878 585 888 q 529 865 549 867 q 500 871 510 864 z "},"Ư":{"ha":1064,"x_min":90,"x_max":1193,"o":"m 317 -14 q 140 54 190 -14 q 90 235 90 122 l 90 817 l 274 817 l 274 229 q 306 142 274 164 q 385 119 338 119 l 679 119 q 757 142 724 119 q 790 229 790 165 l 790 817 l 974 817 l 974 235 q 953 104 974 160 q 883 17 932 49 q 749 -14 835 -14 l 317 -14 m 1043 733 q 964 746 1000 733 q 913 769 928 758 q 894 799 897 781 q 913 817 892 817 l 985 817 q 1051 837 1036 817 q 1067 904 1067 857 l 1067 958 q 1108 1000 1067 1000 l 1151 1000 q 1193 958 1193 1000 l 1193 925 q 1043 733 1193 733 z "},"Ứ":{"ha":1064,"x_min":90,"x_max":1193,"o":"m 317 -14 q 140 54 190 -14 q 90 235 90 122 l 90 817 l 274 817 l 274 229 q 306 142 274 164 q 385 119 338 119 l 679 119 q 757 142 724 119 q 790 229 790 165 l 790 817 l 974 817 l 974 235 q 953 104 974 160 q 883 17 932 49 q 749 -14 835 -14 l 317 -14 m 1043 733 q 964 746 1000 733 q 913 769 928 758 q 894 799 897 781 q 913 817 892 817 l 985 817 q 1051 837 1036 817 q 1067 904 1067 857 l 1067 958 q 1108 1000 1067 1000 l 1151 1000 q 1193 958 1193 1000 l 1193 925 q 1043 733 1193 733 m 518 914 q 531 965 518 932 q 561 1030 544 997 q 588 1079 578 1063 q 619 1109 600 1099 q 671 1119 638 1119 l 686 1119 q 740 1079 740 1119 q 715 1026 740 1058 q 653 965 689 994 q 588 915 618 935 q 542 894 565 901 q 518 914 518 888 z "},"Ự":{"ha":1064,"x_min":90,"x_max":1193,"o":"m 317 -14 q 140 54 190 -14 q 90 235 90 122 l 90 817 l 274 817 l 274 229 q 306 142 274 164 q 385 119 338 119 l 679 119 q 757 142 724 119 q 790 229 790 165 l 790 817 l 974 817 l 974 235 q 953 104 974 160 q 883 17 932 49 q 749 -14 835 -14 l 317 -14 m 1043 733 q 964 746 1000 733 q 913 769 928 758 q 894 799 897 781 q 913 817 892 817 l 985 817 q 1051 837 1036 817 q 1067 904 1067 857 l 1067 958 q 1108 1000 1067 1000 l 1151 1000 q 1193 958 1193 1000 l 1193 925 q 1043 733 1193 733 z "},"Ừ":{"ha":1064,"x_min":90,"x_max":1193,"o":"m 317 -14 q 140 54 190 -14 q 90 235 90 122 l 90 817 l 274 817 l 274 229 q 306 142 274 164 q 385 119 338 119 l 679 119 q 757 142 724 119 q 790 229 790 165 l 790 817 l 974 817 l 974 235 q 953 104 974 160 q 883 17 932 49 q 749 -14 835 -14 l 317 -14 m 1043 733 q 964 746 1000 733 q 913 769 928 758 q 894 799 897 781 q 913 817 892 817 l 985 817 q 1051 837 1036 817 q 1067 904 1067 857 l 1067 958 q 1108 1000 1067 1000 l 1151 1000 q 1193 958 1193 1000 l 1193 925 q 1043 733 1193 733 z "},"Ử":{"ha":1064,"x_min":90,"x_max":1193,"o":"m 317 -14 q 140 54 190 -14 q 90 235 90 122 l 90 817 l 274 817 l 274 229 q 306 142 274 164 q 385 119 338 119 l 679 119 q 757 142 724 119 q 790 229 790 165 l 790 817 l 974 817 l 974 235 q 953 104 974 160 q 883 17 932 49 q 749 -14 835 -14 l 317 -14 m 1043 733 q 964 746 1000 733 q 913 769 928 758 q 894 799 897 781 q 913 817 892 817 l 985 817 q 1051 837 1036 817 q 1067 904 1067 857 l 1067 958 q 1108 1000 1067 1000 l 1151 1000 q 1193 958 1193 1000 l 1193 925 q 1043 733 1193 733 m 532 885 q 517 931 517 897 q 578 975 549 950 q 607 1033 607 1000 q 563 1072 607 1072 q 517 1064 538 1072 q 476 1044 497 1056 q 438 1034 454 1032 q 421 1067 421 1036 q 443 1120 421 1097 q 502 1156 465 1143 q 579 1169 539 1169 l 593 1169 q 681 1137 650 1169 q 713 1064 713 1104 q 703 1005 713 1031 q 674 954 693 979 q 636 916 656 931 q 600 892 617 901 q 561 879 581 881 q 532 885 542 878 z "},"Ữ":{"ha":1064,"x_min":90,"x_max":1193,"o":"m 317 -14 q 140 54 190 -14 q 90 235 90 122 l 90 817 l 274 817 l 274 229 q 306 142 274 164 q 385 119 338 119 l 679 119 q 757 142 724 119 q 790 229 790 165 l 790 817 l 974 817 l 974 235 q 953 104 974 160 q 883 17 932 49 q 749 -14 835 -14 l 317 -14 m 1043 733 q 964 746 1000 733 q 913 769 928 758 q 894 799 897 781 q 913 817 892 817 l 985 817 q 1051 837 1036 817 q 1067 904 1067 857 l 1067 958 q 1108 1000 1067 1000 l 1151 1000 q 1193 958 1193 1000 l 1193 925 q 1043 733 1193 733 m 664 889 q 597 903 625 889 q 546 938 568 918 q 502 972 524 957 q 454 986 481 986 q 406 962 419 986 q 386 917 393 938 q 367 894 381 900 q 341 896 353 888 q 329 929 329 904 q 365 1037 329 990 q 468 1083 400 1083 q 534 1069 507 1083 q 583 1035 561 1054 q 627 1001 604 1015 q 679 986 650 986 q 726 1010 711 986 q 747 1056 742 1035 q 766 1080 753 1074 q 792 1078 779 1086 q 804 1043 804 1069 q 790 970 804 1006 q 744 912 775 935 q 664 889 713 889 z "},"Ű":{"ha":1064,"x_min":90,"x_max":974,"o":"m 317 -14 q 140 54 190 -14 q 90 235 90 122 l 90 817 l 274 817 l 274 229 q 306 142 274 164 q 385 119 338 119 l 679 119 q 757 142 724 119 q 790 229 790 165 l 790 817 l 974 817 l 974 235 q 953 104 974 160 q 883 17 932 49 q 749 -14 835 -14 l 317 -14 z "},"Ȗ":{"ha":1064,"x_min":90,"x_max":974,"o":"m 317 -14 q 140 54 190 -14 q 90 235 90 122 l 90 817 l 274 817 l 274 229 q 306 142 274 164 q 385 119 338 119 l 679 119 q 757 142 724 119 q 790 229 790 165 l 790 817 l 974 817 l 974 235 q 953 104 974 160 q 883 17 932 49 q 749 -14 835 -14 l 317 -14 z "},"Ū":{"ha":1064,"x_min":90,"x_max":974,"o":"m 317 -14 q 140 54 190 -14 q 90 235 90 122 l 90 817 l 274 817 l 274 229 q 306 142 274 164 q 385 119 338 119 l 679 119 q 757 142 724 119 q 790 229 790 165 l 790 817 l 974 817 l 974 235 q 953 104 974 160 q 883 17 932 49 q 749 -14 835 -14 l 317 -14 m 401 903 q 360 912 374 903 q 346 949 346 921 l 346 957 q 358 992 346 985 q 401 1000 371 1000 l 668 1000 q 710 992 696 1000 q 724 957 724 985 l 724 949 q 708 912 724 921 q 668 903 693 903 l 401 903 z "},"Ų":{"ha":1064,"x_min":90,"x_max":974,"o":"m 317 -14 q 140 54 190 -14 q 90 235 90 122 l 90 817 l 274 817 l 274 229 q 306 142 274 164 q 385 119 338 119 l 679 119 q 757 142 724 119 q 790 229 790 165 l 790 817 l 974 817 l 974 235 q 953 104 974 160 q 883 17 932 49 q 749 -14 835 -14 l 317 -14 m 550 -243 q 452 -207 486 -243 q 418 -124 418 -171 q 437 -53 418 -82 q 481 -8 456 -25 q 524 15 506 10 q 590 25 560 26 q 619 11 619 24 q 604 -7 619 1 q 568 -27 589 -15 q 532 -57 547 -39 q 517 -103 517 -75 q 568 -146 517 -146 q 638 -133 614 -146 q 682 -119 661 -119 q 697 -138 700 -119 q 679 -181 694 -157 q 633 -224 664 -204 q 550 -243 603 -243 z "},"Ů":{"ha":1064,"x_min":90,"x_max":974,"o":"m 317 -14 q 140 54 190 -14 q 90 235 90 122 l 90 817 l 274 817 l 274 229 q 306 142 274 164 q 385 119 338 119 l 679 119 q 757 142 724 119 q 790 229 790 165 l 790 817 l 974 817 l 974 235 q 953 104 974 160 q 883 17 932 49 q 749 -14 835 -14 l 317 -14 m 501 889 q 410 906 440 889 q 369 950 379 922 q 360 1011 360 978 l 360 1026 q 369 1083 360 1054 q 408 1130 378 1111 q 501 1149 438 1149 l 567 1149 q 658 1130 628 1149 q 699 1083 689 1111 q 708 1026 708 1054 l 708 1011 q 699 950 708 978 q 658 906 689 922 q 567 889 628 889 l 501 889 m 500 981 l 567 981 q 588 990 582 981 q 594 1008 594 999 l 594 1028 q 588 1047 594 1038 q 567 1056 582 1056 l 500 1056 q 477 1047 483 1056 q 472 1028 471 1038 l 472 1008 q 477 990 471 999 q 500 981 483 981 z "},"Ũ":{"ha":1064,"x_min":90,"x_max":974,"o":"m 317 -14 q 140 54 190 -14 q 90 235 90 122 l 90 817 l 274 817 l 274 229 q 306 142 274 164 q 385 119 338 119 l 679 119 q 757 142 724 119 q 790 229 790 165 l 790 817 l 974 817 l 974 235 q 953 104 974 160 q 883 17 932 49 q 749 -14 835 -14 l 317 -14 m 632 875 q 565 890 593 875 q 514 924 536 904 q 470 958 492 943 q 422 972 449 972 q 374 948 388 972 q 354 903 361 924 q 335 880 349 886 q 309 882 321 874 q 297 915 297 890 q 333 1023 297 976 q 436 1069 368 1069 q 502 1055 475 1069 q 551 1021 529 1040 q 595 987 572 1001 q 647 972 618 972 q 694 997 679 972 q 715 1042 710 1021 q 734 1066 721 1060 q 760 1064 747 1072 q 772 1029 772 1056 q 758 956 772 992 q 712 898 743 921 q 632 875 681 875 z "},"V":{"ha":1022,"x_min":14,"x_max":1008,"o":"m 401 0 l 14 815 l 208 815 l 469 253 l 507 153 l 519 153 l 556 253 l 819 815 l 1008 815 l 986 732 l 624 0 l 401 0 z "},"W":{"ha":1543,"x_min":14,"x_max":1529,"o":"m 313 0 l 14 815 l 208 815 l 404 282 l 436 147 l 450 147 l 468 242 l 653 815 l 889 815 l 1082 242 l 1107 147 l 1121 147 l 1153 282 l 1335 815 l 1529 815 l 1515 732 l 1229 0 l 993 0 l 804 546 l 776 635 l 763 635 l 736 546 l 549 0 l 313 0 z "},"Ẃ":{"ha":1543,"x_min":14,"x_max":1529,"o":"m 313 0 l 14 815 l 208 815 l 404 282 l 436 147 l 450 147 l 468 242 l 653 815 l 889 815 l 1082 242 l 1107 147 l 1121 147 l 1153 282 l 1335 815 l 1529 815 l 1515 732 l 1229 0 l 993 0 l 804 546 l 776 635 l 763 635 l 736 546 l 549 0 l 313 0 m 724 914 q 737 965 724 932 q 767 1030 750 997 q 793 1079 783 1063 q 824 1109 806 1099 q 876 1119 843 1119 l 892 1119 q 946 1079 946 1119 q 920 1026 946 1058 q 859 965 894 994 q 793 915 824 935 q 747 894 771 901 q 724 914 724 888 z "},"Ŵ":{"ha":1543,"x_min":14,"x_max":1529,"o":"m 313 0 l 14 815 l 208 815 l 404 282 l 436 147 l 450 147 l 468 242 l 653 815 l 889 815 l 1082 242 l 1107 147 l 1121 147 l 1153 282 l 1335 815 l 1529 815 l 1515 732 l 1229 0 l 993 0 l 804 546 l 776 635 l 763 635 l 736 546 l 549 0 l 313 0 m 572 925 q 593 965 572 938 q 640 1021 614 993 q 679 1061 665 1049 q 713 1085 697 1078 q 751 1092 728 1092 l 793 1092 q 835 1081 818 1092 q 863 1060 851 1071 q 901 1016 878 1044 q 944 961 925 988 q 963 925 963 935 q 941 908 963 910 q 893 925 919 907 l 772 1006 l 642 925 q 572 925 572 882 z "},"Ẅ":{"ha":1543,"x_min":14,"x_max":1529,"o":"m 313 0 l 14 815 l 208 815 l 404 282 l 436 147 l 450 147 l 468 242 l 653 815 l 889 815 l 1082 242 l 1107 147 l 1121 147 l 1153 282 l 1335 815 l 1529 815 l 1515 732 l 1229 0 l 993 0 l 804 546 l 776 635 l 763 635 l 736 546 l 549 0 l 313 0 z "},"Ẁ":{"ha":1543,"x_min":14,"x_max":1529,"o":"m 313 0 l 14 815 l 208 815 l 404 282 l 436 147 l 450 147 l 468 242 l 653 815 l 889 815 l 1082 242 l 1107 147 l 1121 147 l 1153 282 l 1335 815 l 1529 815 l 1515 732 l 1229 0 l 993 0 l 804 546 l 776 635 l 763 635 l 736 546 l 549 0 l 313 0 z "},"X":{"ha":1025,"x_min":14,"x_max":1011,"o":"m 14 0 l 67 83 l 375 408 l 14 817 l 236 817 l 504 510 l 519 510 l 789 817 l 1011 817 l 957 735 l 650 408 l 1011 0 l 789 0 l 519 310 l 504 310 l 236 0 l 14 0 z "},"Y":{"ha":1025,"x_min":14,"x_max":1011,"o":"m 418 0 l 418 339 l 14 817 l 236 817 l 442 557 l 506 471 l 519 471 l 583 557 l 789 817 l 1011 817 l 957 733 l 601 333 l 601 0 l 418 0 z "},"Ý":{"ha":1025,"x_min":14,"x_max":1011,"o":"m 418 0 l 418 339 l 14 817 l 236 817 l 442 557 l 506 471 l 519 471 l 583 557 l 789 817 l 1011 817 l 957 733 l 601 333 l 601 0 l 418 0 m 464 914 q 477 965 464 932 q 507 1030 490 997 q 533 1079 524 1063 q 565 1109 546 1099 q 617 1119 583 1119 l 632 1119 q 686 1079 686 1119 q 660 1026 686 1058 q 599 965 635 994 q 533 915 564 935 q 488 894 511 901 q 464 914 464 888 z "},"Ŷ":{"ha":1025,"x_min":14,"x_max":1011,"o":"m 418 0 l 418 339 l 14 817 l 236 817 l 442 557 l 506 471 l 519 471 l 583 557 l 789 817 l 1011 817 l 957 733 l 601 333 l 601 0 l 418 0 m 313 925 q 333 965 313 938 q 380 1021 354 993 q 419 1061 406 1049 q 453 1085 438 1078 q 492 1092 468 1092 l 533 1092 q 575 1081 558 1092 q 603 1060 592 1071 q 642 1016 618 1044 q 684 961 665 988 q 703 925 703 935 q 681 908 703 910 q 633 925 660 907 l 513 1006 l 382 925 q 313 925 313 882 z "},"Ÿ":{"ha":1025,"x_min":14,"x_max":1011,"o":"m 418 0 l 418 339 l 14 817 l 236 817 l 442 557 l 506 471 l 519 471 l 583 557 l 789 817 l 1011 817 l 957 733 l 601 333 l 601 0 l 418 0 z "},"Ỵ":{"ha":1025,"x_min":14,"x_max":1011,"o":"m 418 0 l 418 339 l 14 817 l 236 817 l 442 557 l 506 471 l 519 471 l 583 557 l 789 817 l 1011 817 l 957 733 l 601 333 l 601 0 l 418 0 z "},"Ỳ":{"ha":1025,"x_min":14,"x_max":1011,"o":"m 418 0 l 418 339 l 14 817 l 236 817 l 442 557 l 506 471 l 519 471 l 583 557 l 789 817 l 1011 817 l 957 733 l 601 333 l 601 0 l 418 0 z "},"Ỷ":{"ha":1025,"x_min":14,"x_max":1011,"o":"m 418 0 l 418 339 l 14 817 l 236 817 l 442 557 l 506 471 l 519 471 l 583 557 l 789 817 l 1011 817 l 957 733 l 601 333 l 601 0 l 418 0 m 478 885 q 463 931 463 897 q 524 975 494 950 q 553 1033 553 1000 q 508 1072 553 1072 q 463 1064 483 1072 q 422 1044 443 1056 q 383 1034 400 1032 q 367 1067 367 1036 q 389 1120 367 1097 q 448 1156 411 1143 q 525 1169 485 1169 l 539 1169 q 627 1137 596 1169 q 658 1064 658 1104 q 649 1005 658 1031 q 619 954 639 979 q 582 916 601 931 q 546 892 563 901 q 507 879 526 881 q 478 885 488 878 z "},"Ȳ":{"ha":1025,"x_min":14,"x_max":1011,"o":"m 418 0 l 418 339 l 14 817 l 236 817 l 442 557 l 506 471 l 519 471 l 583 557 l 789 817 l 1011 817 l 957 733 l 601 333 l 601 0 l 418 0 m 379 917 q 338 926 351 917 q 324 963 324 935 l 324 971 q 336 1006 324 999 q 379 1014 349 1014 l 646 1014 q 688 1006 674 1014 q 701 971 701 999 l 701 963 q 686 926 701 935 q 646 917 671 917 l 379 917 z "},"Ỹ":{"ha":1025,"x_min":14,"x_max":1011,"o":"m 418 0 l 418 339 l 14 817 l 236 817 l 442 557 l 506 471 l 519 471 l 583 557 l 789 817 l 1011 817 l 957 733 l 601 333 l 601 0 l 418 0 m 610 889 q 542 903 571 889 q 492 938 514 918 q 448 972 469 957 q 400 986 426 986 q 352 962 365 986 q 332 917 339 938 q 313 894 326 900 q 287 896 299 888 q 275 929 275 904 q 310 1037 275 990 q 414 1083 346 1083 q 480 1069 453 1083 q 528 1035 507 1054 q 573 1001 550 1015 q 625 986 596 986 q 672 1010 657 986 q 693 1056 688 1035 q 712 1080 699 1074 q 738 1078 725 1086 q 750 1043 750 1069 q 735 970 750 1006 q 690 912 721 935 q 610 889 658 889 z "},"Z":{"ha":1017,"x_min":69,"x_max":981,"o":"m 69 0 l 69 135 l 686 683 l 69 683 l 69 817 l 932 817 l 932 683 l 303 133 l 925 133 l 981 15 q 943 5 981 10 q 814 0 906 0 l 69 0 z "},"Ź":{"ha":1017,"x_min":69,"x_max":981,"o":"m 69 0 l 69 135 l 686 683 l 69 683 l 69 817 l 932 817 l 932 683 l 303 133 l 925 133 l 981 15 q 943 5 981 10 q 814 0 906 0 l 69 0 m 483 914 q 497 965 483 932 q 526 1030 510 997 q 553 1079 543 1063 q 584 1109 565 1099 q 636 1119 603 1119 l 651 1119 q 706 1079 706 1119 q 680 1026 706 1058 q 619 965 654 994 q 553 915 583 935 q 507 894 531 901 q 483 914 483 888 z "},"Ž":{"ha":1017,"x_min":69,"x_max":981,"o":"m 69 0 l 69 135 l 686 683 l 69 683 l 69 817 l 932 817 l 932 683 l 303 133 l 925 133 l 981 15 q 943 5 981 10 q 814 0 906 0 l 69 0 z "},"Ż":{"ha":1017,"x_min":69,"x_max":981,"o":"m 69 0 l 69 135 l 686 683 l 69 683 l 69 817 l 932 817 l 932 683 l 303 133 l 925 133 l 981 15 q 943 5 981 10 q 814 0 906 0 l 69 0 z "},"a":{"ha":904,"x_min":63,"x_max":828,"o":"m 263 0 q 110 49 157 0 q 63 185 63 99 q 112 324 63 275 q 263 372 161 372 l 333 372 q 521 367 438 372 q 658 356 604 361 l 658 447 q 656 473 658 460 q 639 494 653 486 q 592 503 625 503 l 522 503 q 269 498 371 503 q 132 489 168 493 l 117 594 q 222 618 117 614 q 575 622 328 622 l 644 622 q 751 603 714 622 q 805 554 789 583 q 824 495 821 525 q 828 444 828 465 l 828 0 l 714 0 l 660 28 q 519 9 601 18 q 332 0 438 0 l 263 0 m 299 119 l 617 119 q 653 125 647 119 q 658 160 658 131 l 658 267 l 299 267 q 247 249 261 267 q 232 192 232 231 q 249 136 232 153 q 299 119 265 119 z "},"á":{"ha":904,"x_min":63,"x_max":828,"o":"m 263 0 q 110 49 157 0 q 63 185 63 99 q 112 324 63 275 q 263 372 161 372 l 333 372 q 521 367 438 372 q 658 356 604 361 l 658 447 q 656 473 658 460 q 639 494 653 486 q 592 503 625 503 l 522 503 q 269 498 371 503 q 132 489 168 493 l 117 594 q 222 618 117 614 q 575 622 328 622 l 644 622 q 751 603 714 622 q 805 554 789 583 q 824 495 821 525 q 828 444 828 465 l 828 0 l 714 0 l 660 28 q 519 9 601 18 q 332 0 438 0 l 263 0 m 299 119 l 617 119 q 653 125 647 119 q 658 160 658 131 l 658 267 l 299 267 q 247 249 261 267 q 232 192 232 231 q 249 136 232 153 q 299 119 265 119 m 432 719 q 445 770 432 738 q 475 835 458 803 q 501 885 492 868 q 533 915 514 904 q 585 925 551 925 l 600 925 q 654 885 654 925 q 628 832 654 864 q 567 770 603 800 q 501 721 532 740 q 456 700 479 707 q 432 719 432 693 z "},"ă":{"ha":904,"x_min":63,"x_max":828,"o":"m 263 0 q 110 49 157 0 q 63 185 63 99 q 112 324 63 275 q 263 372 161 372 l 333 372 q 521 367 438 372 q 658 356 604 361 l 658 447 q 656 473 658 460 q 639 494 653 486 q 592 503 625 503 l 522 503 q 269 498 371 503 q 132 489 168 493 l 117 594 q 222 618 117 614 q 575 622 328 622 l 644 622 q 751 603 714 622 q 805 554 789 583 q 824 495 821 525 q 828 444 828 465 l 828 0 l 714 0 l 660 28 q 519 9 601 18 q 332 0 438 0 l 263 0 m 299 119 l 617 119 q 653 125 647 119 q 658 160 658 131 l 658 267 l 299 267 q 247 249 261 267 q 232 192 232 231 q 249 136 232 153 q 299 119 265 119 m 481 722 q 355 742 400 722 q 291 796 310 761 q 272 875 272 831 q 292 910 272 910 q 325 890 313 910 q 377 838 346 856 q 481 819 408 819 q 583 838 554 819 q 633 890 611 856 q 669 911 649 913 q 689 875 689 910 q 645 761 689 800 q 481 722 601 722 z "},"ắ":{"ha":904,"x_min":63,"x_max":828,"o":"m 263 0 q 110 49 157 0 q 63 185 63 99 q 112 324 63 275 q 263 372 161 372 l 333 372 q 521 367 438 372 q 658 356 604 361 l 658 447 q 656 473 658 460 q 639 494 653 486 q 592 503 625 503 l 522 503 q 269 498 371 503 q 132 489 168 493 l 117 594 q 222 618 117 614 q 575 622 328 622 l 644 622 q 751 603 714 622 q 805 554 789 583 q 824 495 821 525 q 828 444 828 465 l 828 0 l 714 0 l 660 28 q 519 9 601 18 q 332 0 438 0 l 263 0 m 299 119 l 617 119 q 653 125 647 119 q 658 160 658 131 l 658 267 l 299 267 q 247 249 261 267 q 232 192 232 231 q 249 136 232 153 q 299 119 265 119 z "},"ặ":{"ha":904,"x_min":63,"x_max":828,"o":"m 263 0 q 110 49 157 0 q 63 185 63 99 q 112 324 63 275 q 263 372 161 372 l 333 372 q 521 367 438 372 q 658 356 604 361 l 658 447 q 656 473 658 460 q 639 494 653 486 q 592 503 625 503 l 522 503 q 269 498 371 503 q 132 489 168 493 l 117 594 q 222 618 117 614 q 575 622 328 622 l 644 622 q 751 603 714 622 q 805 554 789 583 q 824 495 821 525 q 828 444 828 465 l 828 0 l 714 0 l 660 28 q 519 9 601 18 q 332 0 438 0 l 263 0 m 299 119 l 617 119 q 653 125 647 119 q 658 160 658 131 l 658 267 l 299 267 q 247 249 261 267 q 232 192 232 231 q 249 136 232 153 q 299 119 265 119 m 481 722 q 355 742 400 722 q 291 796 310 761 q 272 875 272 831 q 292 910 272 910 q 325 890 313 910 q 377 838 346 856 q 481 819 408 819 q 583 838 554 819 q 633 890 611 856 q 669 911 649 913 q 689 875 689 910 q 645 761 689 800 q 481 722 601 722 z "},"ằ":{"ha":904,"x_min":63,"x_max":828,"o":"m 263 0 q 110 49 157 0 q 63 185 63 99 q 112 324 63 275 q 263 372 161 372 l 333 372 q 521 367 438 372 q 658 356 604 361 l 658 447 q 656 473 658 460 q 639 494 653 486 q 592 503 625 503 l 522 503 q 269 498 371 503 q 132 489 168 493 l 117 594 q 222 618 117 614 q 575 622 328 622 l 644 622 q 751 603 714 622 q 805 554 789 583 q 824 495 821 525 q 828 444 828 465 l 828 0 l 714 0 l 660 28 q 519 9 601 18 q 332 0 438 0 l 263 0 m 299 119 l 617 119 q 653 125 647 119 q 658 160 658 131 l 658 267 l 299 267 q 247 249 261 267 q 232 192 232 231 q 249 136 232 153 q 299 119 265 119 z "},"ẳ":{"ha":904,"x_min":63,"x_max":828,"o":"m 263 0 q 110 49 157 0 q 63 185 63 99 q 112 324 63 275 q 263 372 161 372 l 333 372 q 521 367 438 372 q 658 356 604 361 l 658 447 q 656 473 658 460 q 639 494 653 486 q 592 503 625 503 l 522 503 q 269 498 371 503 q 132 489 168 493 l 117 594 q 222 618 117 614 q 575 622 328 622 l 644 622 q 751 603 714 622 q 805 554 789 583 q 824 495 821 525 q 828 444 828 465 l 828 0 l 714 0 l 660 28 q 519 9 601 18 q 332 0 438 0 l 263 0 m 299 119 l 617 119 q 653 125 647 119 q 658 160 658 131 l 658 267 l 299 267 q 247 249 261 267 q 232 192 232 231 q 249 136 232 153 q 299 119 265 119 z "},"ẵ":{"ha":904,"x_min":63,"x_max":828,"o":"m 263 0 q 110 49 157 0 q 63 185 63 99 q 112 324 63 275 q 263 372 161 372 l 333 372 q 521 367 438 372 q 658 356 604 361 l 658 447 q 656 473 658 460 q 639 494 653 486 q 592 503 625 503 l 522 503 q 269 498 371 503 q 132 489 168 493 l 117 594 q 222 618 117 614 q 575 622 328 622 l 644 622 q 751 603 714 622 q 805 554 789 583 q 824 495 821 525 q 828 444 828 465 l 828 0 l 714 0 l 660 28 q 519 9 601 18 q 332 0 438 0 l 263 0 m 299 119 l 617 119 q 653 125 647 119 q 658 160 658 131 l 658 267 l 299 267 q 247 249 261 267 q 232 192 232 231 q 249 136 232 153 q 299 119 265 119 z "},"â":{"ha":904,"x_min":63,"x_max":828,"o":"m 263 0 q 110 49 157 0 q 63 185 63 99 q 112 324 63 275 q 263 372 161 372 l 333 372 q 521 367 438 372 q 658 356 604 361 l 658 447 q 656 473 658 460 q 639 494 653 486 q 592 503 625 503 l 522 503 q 269 498 371 503 q 132 489 168 493 l 117 594 q 222 618 117 614 q 575 622 328 622 l 644 622 q 751 603 714 622 q 805 554 789 583 q 824 495 821 525 q 828 444 828 465 l 828 0 l 714 0 l 660 28 q 519 9 601 18 q 332 0 438 0 l 263 0 m 299 119 l 617 119 q 653 125 647 119 q 658 160 658 131 l 658 267 l 299 267 q 247 249 261 267 q 232 192 232 231 q 249 136 232 153 q 299 119 265 119 m 281 731 q 301 771 281 743 q 348 826 322 799 q 388 867 374 854 q 421 890 406 883 q 460 897 436 897 l 501 897 q 543 887 526 897 q 571 865 560 876 q 610 822 586 850 q 652 767 633 793 q 671 731 671 740 q 649 714 671 715 q 601 731 628 713 l 481 811 l 350 731 q 281 731 281 688 z "},"ấ":{"ha":904,"x_min":63,"x_max":828,"o":"m 263 0 q 110 49 157 0 q 63 185 63 99 q 112 324 63 275 q 263 372 161 372 l 333 372 q 521 367 438 372 q 658 356 604 361 l 658 447 q 656 473 658 460 q 639 494 653 486 q 592 503 625 503 l 522 503 q 269 498 371 503 q 132 489 168 493 l 117 594 q 222 618 117 614 q 575 622 328 622 l 644 622 q 751 603 714 622 q 805 554 789 583 q 824 495 821 525 q 828 444 828 465 l 828 0 l 714 0 l 660 28 q 519 9 601 18 q 332 0 438 0 l 263 0 m 299 119 l 617 119 q 653 125 647 119 q 658 160 658 131 l 658 267 l 299 267 q 247 249 261 267 q 232 192 232 231 q 249 136 232 153 q 299 119 265 119 z "},"ậ":{"ha":904,"x_min":63,"x_max":828,"o":"m 263 0 q 110 49 157 0 q 63 185 63 99 q 112 324 63 275 q 263 372 161 372 l 333 372 q 521 367 438 372 q 658 356 604 361 l 658 447 q 656 473 658 460 q 639 494 653 486 q 592 503 625 503 l 522 503 q 269 498 371 503 q 132 489 168 493 l 117 594 q 222 618 117 614 q 575 622 328 622 l 644 622 q 751 603 714 622 q 805 554 789 583 q 824 495 821 525 q 828 444 828 465 l 828 0 l 714 0 l 660 28 q 519 9 601 18 q 332 0 438 0 l 263 0 m 299 119 l 617 119 q 653 125 647 119 q 658 160 658 131 l 658 267 l 299 267 q 247 249 261 267 q 232 192 232 231 q 249 136 232 153 q 299 119 265 119 m 281 731 q 301 771 281 743 q 348 826 322 799 q 388 867 374 854 q 421 890 406 883 q 460 897 436 897 l 501 897 q 543 887 526 897 q 571 865 560 876 q 610 822 586 850 q 652 767 633 793 q 671 731 671 740 q 649 714 671 715 q 601 731 628 713 l 481 811 l 350 731 q 281 731 281 688 z "},"ầ":{"ha":904,"x_min":63,"x_max":828,"o":"m 263 0 q 110 49 157 0 q 63 185 63 99 q 112 324 63 275 q 263 372 161 372 l 333 372 q 521 367 438 372 q 658 356 604 361 l 658 447 q 656 473 658 460 q 639 494 653 486 q 592 503 625 503 l 522 503 q 269 498 371 503 q 132 489 168 493 l 117 594 q 222 618 117 614 q 575 622 328 622 l 644 622 q 751 603 714 622 q 805 554 789 583 q 824 495 821 525 q 828 444 828 465 l 828 0 l 714 0 l 660 28 q 519 9 601 18 q 332 0 438 0 l 263 0 m 299 119 l 617 119 q 653 125 647 119 q 658 160 658 131 l 658 267 l 299 267 q 247 249 261 267 q 232 192 232 231 q 249 136 232 153 q 299 119 265 119 z "},"ẩ":{"ha":904,"x_min":63,"x_max":828,"o":"m 263 0 q 110 49 157 0 q 63 185 63 99 q 112 324 63 275 q 263 372 161 372 l 333 372 q 521 367 438 372 q 658 356 604 361 l 658 447 q 656 473 658 460 q 639 494 653 486 q 592 503 625 503 l 522 503 q 269 498 371 503 q 132 489 168 493 l 117 594 q 222 618 117 614 q 575 622 328 622 l 644 622 q 751 603 714 622 q 805 554 789 583 q 824 495 821 525 q 828 444 828 465 l 828 0 l 714 0 l 660 28 q 519 9 601 18 q 332 0 438 0 l 263 0 m 299 119 l 617 119 q 653 125 647 119 q 658 160 658 131 l 658 267 l 299 267 q 247 249 261 267 q 232 192 232 231 q 249 136 232 153 q 299 119 265 119 z "},"ẫ":{"ha":904,"x_min":63,"x_max":828,"o":"m 263 0 q 110 49 157 0 q 63 185 63 99 q 112 324 63 275 q 263 372 161 372 l 333 372 q 521 367 438 372 q 658 356 604 361 l 658 447 q 656 473 658 460 q 639 494 653 486 q 592 503 625 503 l 522 503 q 269 498 371 503 q 132 489 168 493 l 117 594 q 222 618 117 614 q 575 622 328 622 l 644 622 q 751 603 714 622 q 805 554 789 583 q 824 495 821 525 q 828 444 828 465 l 828 0 l 714 0 l 660 28 q 519 9 601 18 q 332 0 438 0 l 263 0 m 299 119 l 617 119 q 653 125 647 119 q 658 160 658 131 l 658 267 l 299 267 q 247 249 261 267 q 232 192 232 231 q 249 136 232 153 q 299 119 265 119 z "},"´":{"ha":319,"x_min":-83,"x_max":139,"o":"m -83 719 q -70 770 -83 738 q -40 835 -57 803 q -14 885 -24 868 q 17 915 -1 904 q 69 925 36 925 l 85 925 q 139 885 139 925 q 113 832 139 864 q 52 770 88 800 q -14 721 17 740 q -60 700 -36 707 q -83 719 -83 693 z "},"́":{"ha":0,"x_min":-542,"x_max":-319,"o":"m -542 719 q -528 770 -542 738 q -499 835 -515 803 q -472 885 -482 868 q -441 915 -460 904 q -389 925 -422 925 l -374 925 q -319 885 -319 925 q -345 832 -319 864 q -406 770 -371 800 q -472 721 -442 740 q -518 700 -494 707 q -542 719 -542 693 z "},"ȁ":{"ha":904,"x_min":63,"x_max":828,"o":"m 263 0 q 110 49 157 0 q 63 185 63 99 q 112 324 63 275 q 263 372 161 372 l 333 372 q 521 367 438 372 q 658 356 604 361 l 658 447 q 656 473 658 460 q 639 494 653 486 q 592 503 625 503 l 522 503 q 269 498 371 503 q 132 489 168 493 l 117 594 q 222 618 117 614 q 575 622 328 622 l 644 622 q 751 603 714 622 q 805 554 789 583 q 824 495 821 525 q 828 444 828 465 l 828 0 l 714 0 l 660 28 q 519 9 601 18 q 332 0 438 0 l 263 0 m 299 119 l 617 119 q 653 125 647 119 q 658 160 658 131 l 658 267 l 299 267 q 247 249 261 267 q 232 192 232 231 q 249 136 232 153 q 299 119 265 119 z "},"ä":{"ha":904,"x_min":63,"x_max":828,"o":"m 263 0 q 110 49 157 0 q 63 185 63 99 q 112 324 63 275 q 263 372 161 372 l 333 372 q 521 367 438 372 q 658 356 604 361 l 658 447 q 656 473 658 460 q 639 494 653 486 q 592 503 625 503 l 522 503 q 269 498 371 503 q 132 489 168 493 l 117 594 q 222 618 117 614 q 575 622 328 622 l 644 622 q 751 603 714 622 q 805 554 789 583 q 824 495 821 525 q 828 444 828 465 l 828 0 l 714 0 l 660 28 q 519 9 601 18 q 332 0 438 0 l 263 0 m 299 119 l 617 119 q 653 125 647 119 q 658 160 658 131 l 658 267 l 299 267 q 247 249 261 267 q 232 192 232 231 q 249 136 232 153 q 299 119 265 119 z "},"ạ":{"ha":904,"x_min":63,"x_max":828,"o":"m 263 0 q 110 49 157 0 q 63 185 63 99 q 112 324 63 275 q 263 372 161 372 l 333 372 q 521 367 438 372 q 658 356 604 361 l 658 447 q 656 473 658 460 q 639 494 653 486 q 592 503 625 503 l 522 503 q 269 498 371 503 q 132 489 168 493 l 117 594 q 222 618 117 614 q 575 622 328 622 l 644 622 q 751 603 714 622 q 805 554 789 583 q 824 495 821 525 q 828 444 828 465 l 828 0 l 714 0 l 660 28 q 519 9 601 18 q 332 0 438 0 l 263 0 m 299 119 l 617 119 q 653 125 647 119 q 658 160 658 131 l 658 267 l 299 267 q 247 249 261 267 q 232 192 232 231 q 249 136 232 153 q 299 119 265 119 z "},"æ":{"ha":1450,"x_min":63,"x_max":1394,"o":"m 263 0 q 110 49 157 0 q 63 185 63 99 q 112 324 63 275 q 263 372 161 372 l 333 372 q 470 369 403 372 q 588 357 538 367 q 658 326 639 347 l 658 378 q 611 470 658 438 q 453 503 564 503 l 425 503 q 247 498 325 503 q 132 489 168 493 l 115 599 q 210 615 139 608 q 408 622 282 622 l 453 622 q 583 608 524 622 q 689 565 643 594 q 743 606 707 589 q 842 622 779 622 l 1140 622 q 1284 605 1232 622 q 1358 549 1336 588 q 1379 444 1379 510 l 1379 239 l 1136 239 q 933 244 1011 239 q 828 251 854 250 l 828 175 q 894 119 826 119 l 965 119 q 1112 122 1040 119 q 1243 127 1183 124 q 1339 133 1303 131 l 1394 43 q 1121 0 1394 0 l 842 0 q 756 10 790 0 q 703 39 722 21 q 539 9 635 18 q 332 0 443 0 l 263 0 m 828 358 l 1210 358 l 1210 447 q 1203 486 1210 475 q 1167 500 1197 497 q 1063 503 1136 503 l 894 503 q 828 447 828 503 l 828 358 m 297 119 l 574 119 q 635 125 614 119 q 657 160 657 131 l 657 183 q 618 243 657 219 q 475 267 579 267 l 297 267 q 245 249 260 267 q 231 192 231 231 q 247 136 231 153 q 297 119 264 119 z "},"ǽ":{"ha":1450,"x_min":63,"x_max":1394,"o":"m 263 0 q 110 49 157 0 q 63 185 63 99 q 112 324 63 275 q 263 372 161 372 l 333 372 q 470 369 403 372 q 588 357 538 367 q 658 326 639 347 l 658 378 q 611 470 658 438 q 453 503 564 503 l 425 503 q 247 498 325 503 q 132 489 168 493 l 115 599 q 210 615 139 608 q 408 622 282 622 l 453 622 q 583 608 524 622 q 689 565 643 594 q 743 606 707 589 q 842 622 779 622 l 1140 622 q 1284 605 1232 622 q 1358 549 1336 588 q 1379 444 1379 510 l 1379 239 l 1136 239 q 933 244 1011 239 q 828 251 854 250 l 828 175 q 894 119 826 119 l 965 119 q 1112 122 1040 119 q 1243 127 1183 124 q 1339 133 1303 131 l 1394 43 q 1121 0 1394 0 l 842 0 q 756 10 790 0 q 703 39 722 21 q 539 9 635 18 q 332 0 443 0 l 263 0 m 828 358 l 1210 358 l 1210 447 q 1203 486 1210 475 q 1167 500 1197 497 q 1063 503 1136 503 l 894 503 q 828 447 828 503 l 828 358 m 297 119 l 574 119 q 635 125 614 119 q 657 160 657 131 l 657 183 q 618 243 657 219 q 475 267 579 267 l 297 267 q 245 249 260 267 q 231 192 231 231 q 247 136 231 153 q 297 119 264 119 m 686 719 q 699 770 686 738 q 729 835 713 803 q 756 885 746 868 q 787 915 768 904 q 839 925 806 925 l 854 925 q 908 885 908 925 q 883 832 908 864 q 822 770 857 800 q 756 721 786 740 q 710 700 733 707 q 686 719 686 693 z "},"à":{"ha":904,"x_min":63,"x_max":828,"o":"m 263 0 q 110 49 157 0 q 63 185 63 99 q 112 324 63 275 q 263 372 161 372 l 333 372 q 521 367 438 372 q 658 356 604 361 l 658 447 q 656 473 658 460 q 639 494 653 486 q 592 503 625 503 l 522 503 q 269 498 371 503 q 132 489 168 493 l 117 594 q 222 618 117 614 q 575 622 328 622 l 644 622 q 751 603 714 622 q 805 554 789 583 q 824 495 821 525 q 828 444 828 465 l 828 0 l 714 0 l 660 28 q 519 9 601 18 q 332 0 438 0 l 263 0 m 299 119 l 617 119 q 653 125 647 119 q 658 160 658 131 l 658 267 l 299 267 q 247 249 261 267 q 232 192 232 231 q 249 136 232 153 q 299 119 265 119 z "},"ả":{"ha":904,"x_min":63,"x_max":828,"o":"m 263 0 q 110 49 157 0 q 63 185 63 99 q 112 324 63 275 q 263 372 161 372 l 333 372 q 521 367 438 372 q 658 356 604 361 l 658 447 q 656 473 658 460 q 639 494 653 486 q 592 503 625 503 l 522 503 q 269 498 371 503 q 132 489 168 493 l 117 594 q 222 618 117 614 q 575 622 328 622 l 644 622 q 751 603 714 622 q 805 554 789 583 q 824 495 821 525 q 828 444 828 465 l 828 0 l 714 0 l 660 28 q 519 9 601 18 q 332 0 438 0 l 263 0 m 299 119 l 617 119 q 653 125 647 119 q 658 160 658 131 l 658 267 l 299 267 q 247 249 261 267 q 232 192 232 231 q 249 136 232 153 q 299 119 265 119 m 446 690 q 431 736 431 703 q 492 781 463 756 q 521 839 521 806 q 476 878 521 878 q 431 869 451 878 q 390 850 411 861 q 351 840 368 838 q 335 872 335 842 q 357 926 335 903 q 416 962 379 949 q 493 975 453 975 l 507 975 q 595 942 564 975 q 626 869 626 910 q 617 810 626 836 q 588 760 607 785 q 550 722 569 736 q 514 697 531 707 q 475 685 494 686 q 446 690 456 683 z "},"ȃ":{"ha":904,"x_min":63,"x_max":828,"o":"m 263 0 q 110 49 157 0 q 63 185 63 99 q 112 324 63 275 q 263 372 161 372 l 333 372 q 521 367 438 372 q 658 356 604 361 l 658 447 q 656 473 658 460 q 639 494 653 486 q 592 503 625 503 l 522 503 q 269 498 371 503 q 132 489 168 493 l 117 594 q 222 618 117 614 q 575 622 328 622 l 644 622 q 751 603 714 622 q 805 554 789 583 q 824 495 821 525 q 828 444 828 465 l 828 0 l 714 0 l 660 28 q 519 9 601 18 q 332 0 438 0 l 263 0 m 299 119 l 617 119 q 653 125 647 119 q 658 160 658 131 l 658 267 l 299 267 q 247 249 261 267 q 232 192 232 231 q 249 136 232 153 q 299 119 265 119 z "},"ā":{"ha":904,"x_min":63,"x_max":828,"o":"m 263 0 q 110 49 157 0 q 63 185 63 99 q 112 324 63 275 q 263 372 161 372 l 333 372 q 521 367 438 372 q 658 356 604 361 l 658 447 q 656 473 658 460 q 639 494 653 486 q 592 503 625 503 l 522 503 q 269 498 371 503 q 132 489 168 493 l 117 594 q 222 618 117 614 q 575 622 328 622 l 644 622 q 751 603 714 622 q 805 554 789 583 q 824 495 821 525 q 828 444 828 465 l 828 0 l 714 0 l 660 28 q 519 9 601 18 q 332 0 438 0 l 263 0 m 299 119 l 617 119 q 653 125 647 119 q 658 160 658 131 l 658 267 l 299 267 q 247 249 261 267 q 232 192 232 231 q 249 136 232 153 q 299 119 265 119 m 347 722 q 306 731 319 722 q 292 768 292 740 l 292 776 q 304 812 292 804 q 347 819 317 819 l 614 819 q 656 812 642 819 q 669 776 669 804 l 669 768 q 654 731 669 740 q 614 722 639 722 l 347 722 z "},"&":{"ha":1117,"x_min":111,"x_max":1089,"o":"m 971 -14 q 850 8 899 -14 q 753 71 801 31 q 694 38 728 54 q 603 12 660 22 q 454 1 546 1 l 338 1 q 202 29 251 1 q 132 107 153 57 q 111 224 111 157 l 111 271 q 154 438 111 379 q 278 514 197 496 q 248 566 263 533 q 233 646 233 599 l 233 665 q 252 734 233 699 q 314 794 271 769 q 432 818 357 818 l 576 818 q 683 802 646 818 q 737 761 721 786 q 756 710 753 736 q 760 663 760 683 l 760 611 q 747 577 760 588 q 711 567 733 567 l 593 567 l 593 635 q 582 672 593 658 q 543 685 571 685 l 475 685 q 431 672 444 685 q 418 635 418 658 q 435 573 418 596 q 494 518 451 550 q 594 448 544 483 q 686 374 643 413 q 735 328 708 354 q 783 281 761 303 q 813 250 806 258 l 826 260 l 826 507 l 1022 493 l 1022 376 q 1015 325 1022 347 q 983 279 1007 303 q 939 235 961 257 q 894 190 917 213 q 998 122 943 143 q 1089 101 1053 101 l 1072 1 q 1034 -9 1061 -4 q 971 -14 1007 -14 m 385 153 l 558 153 q 638 163 615 153 q 664 175 661 172 q 581 257 629 208 q 471 356 532 306 q 371 399 418 399 q 312 374 335 399 q 289 308 289 350 l 289 250 q 311 176 289 199 q 385 153 333 153 z "},"ą":{"ha":904,"x_min":63,"x_max":881,"o":"m 263 0 q 110 49 157 0 q 63 185 63 99 q 112 324 63 275 q 263 372 161 372 l 333 372 q 521 367 438 372 q 658 356 604 361 l 658 447 q 656 473 658 460 q 639 494 653 486 q 592 503 625 503 l 522 503 q 269 498 371 503 q 132 489 168 493 l 117 594 q 222 618 117 614 q 575 622 328 622 l 644 622 q 751 603 714 622 q 805 554 789 583 q 824 495 821 525 q 828 444 828 465 l 828 0 l 714 0 l 660 28 q 519 9 601 18 q 332 0 438 0 l 263 0 m 299 119 l 617 119 q 653 125 647 119 q 658 160 658 131 l 658 267 l 299 267 q 247 249 261 267 q 232 192 232 231 q 249 136 232 153 q 299 119 265 119 m 731 -240 q 633 -204 667 -240 q 599 -121 599 -168 q 617 -51 599 -79 q 661 -5 636 -22 q 704 18 686 13 q 770 28 740 29 q 800 14 800 26 q 785 -4 800 4 q 749 -24 769 -12 q 713 -54 728 -36 q 697 -100 697 -72 q 749 -143 697 -143 q 818 -130 794 -143 q 863 -117 842 -117 q 878 -135 881 -117 q 860 -178 875 -154 q 814 -221 844 -201 q 731 -240 783 -240 z "},"ʼ":{"ha":268,"x_min":53,"x_max":275,"o":"m 92 697 q 58 705 63 689 q 63 738 53 721 q 85 774 71 749 q 114 830 100 799 q 132 893 128 861 q 79 919 96 899 q 63 983 63 940 q 85 1052 63 1032 q 161 1072 108 1072 q 247 1048 218 1072 q 275 968 275 1024 q 258 883 275 928 q 213 799 240 839 q 153 733 185 760 q 92 697 121 706 z "},"":{"ha":6063,"x_min":28,"x_max":5993,"o":"m 2499 678 q 2473 692 2489 678 q 2453 732 2457 706 q 2464 847 2442 793 q 2536 943 2486 901 q 2606 979 2564 965 q 2693 993 2647 993 q 2731 991 2713 993 q 2767 982 2749 989 q 2847 925 2822 964 q 2871 840 2871 886 q 2832 739 2871 776 q 2736 701 2793 701 q 2667 720 2692 701 q 2637 763 2642 739 q 2647 803 2632 788 q 2652 821 2656 811 q 2625 831 2649 831 l 2622 831 q 2548 796 2585 829 q 2511 689 2511 763 q 2499 678 2511 678 m 3619 0 l 3631 93 l 3631 628 q 3650 713 3631 683 q 3682 753 3669 742 l 3682 763 q 3619 765 3654 763 q 3547 767 3585 767 q 3479 764 3514 767 q 3413 753 3444 761 q 3354 728 3376 743 q 3325 701 3332 713 q 3344 647 3325 676 q 3389 592 3363 618 q 3435 554 3408 572 q 3479 526 3461 536 q 3460 477 3475 503 q 3418 433 3444 451 q 3354 415 3392 415 q 3257 451 3297 415 q 3217 563 3217 488 q 3230 657 3217 611 q 3269 729 3243 703 q 3310 793 3301 761 q 3332 850 3319 825 q 3400 913 3357 899 q 3504 928 3443 928 q 3697 923 3589 928 q 3920 913 3806 918 q 4135 907 4035 907 l 4343 939 q 4356 891 4354 921 q 4354 832 4358 861 q 4339 786 4350 803 q 4295 745 4324 763 q 4206 728 4267 728 q 4107 731 4163 728 q 3997 740 4051 735 q 3899 749 3942 746 q 3839 753 3857 753 l 3839 124 l 3865 0 l 3619 0 m 394 0 l 406 93 l 406 603 q 413 648 406 628 q 426 674 421 668 l 426 683 l 369 683 q 294 681 335 683 q 226 671 254 679 q 169 644 192 660 q 139 619 146 629 q 144 597 139 614 q 171 560 149 581 q 217 534 189 542 q 265 526 246 526 q 253 466 265 497 q 218 413 242 435 q 156 390 194 390 q 62 426 96 390 q 28 513 28 461 q 40 578 28 540 q 86 650 51 615 q 135 713 118 682 q 167 768 153 743 q 233 831 190 817 q 339 846 276 846 q 436 844 379 846 q 551 842 493 843 q 651 838 608 840 l 651 718 l 815 375 l 1003 819 l 1229 840 l 1229 124 l 1260 0 l 1013 0 l 1024 93 l 1024 550 l 1013 550 l 886 124 l 783 0 l 549 496 l 538 496 l 538 125 l 567 0 l 394 0 m 2243 -314 q 2042 -274 2118 -314 q 1967 -167 1967 -235 q 1990 -112 1967 -135 q 2042 -69 2013 -89 q 2092 -31 2072 -50 q 2105 6 2107 -15 q 2088 43 2103 26 q 2044 91 2063 68 q 2025 144 2025 114 q 2047 202 2025 176 q 2086 244 2069 228 q 2044 292 2064 268 q 2011 353 2024 317 q 1999 443 1999 389 q 2019 521 1999 483 q 2070 590 2040 558 q 2128 640 2100 621 l 2299 639 q 2375 631 2336 639 q 2447 601 2414 622 q 2501 542 2481 581 q 2522 440 2522 503 q 2501 336 2522 378 q 2449 268 2479 294 q 2354 217 2410 233 q 2238 200 2299 200 q 2174 185 2193 200 q 2156 150 2156 171 q 2165 126 2156 136 q 2203 110 2174 115 q 2296 104 2233 104 q 2434 90 2371 104 q 2535 38 2497 76 q 2572 -71 2572 0 q 2528 -203 2572 -149 q 2408 -286 2483 -258 q 2243 -314 2333 -314 m 5771 -21 q 5502 63 5596 -21 q 5408 311 5408 147 q 5451 492 5408 419 q 5562 602 5493 565 q 5710 639 5631 639 q 5850 612 5783 639 q 5949 529 5917 585 q 5988 409 5982 469 q 5993 278 5993 349 l 5740 278 q 5719 285 5722 278 q 5724 301 5715 293 l 5797 389 q 5765 455 5789 432 q 5715 487 5742 478 q 5669 496 5689 496 q 5626 442 5649 485 q 5604 328 5604 400 q 5631 217 5604 263 q 5703 147 5658 171 q 5800 124 5747 124 l 5968 174 l 5968 0 q 5911 -12 5956 -4 q 5771 -21 5867 -21 m 4704 -269 l 4736 -82 l 4736 526 l 4725 619 l 4864 629 l 4915 599 q 4972 618 4939 606 q 5065 631 5006 631 q 5201 598 5140 631 q 5297 499 5261 565 q 5332 332 5332 433 q 5256 74 5332 168 q 5047 -21 5179 -21 q 4976 -14 5008 -21 q 4924 0 4943 -7 l 4924 -81 q 4905 -203 4924 -162 q 4860 -256 4886 -243 q 4811 -269 4833 -269 l 4704 -269 m 1549 -21 q 1400 19 1447 -21 q 1353 124 1353 60 q 1365 182 1353 151 q 1404 238 1378 213 q 1485 292 1436 269 q 1592 328 1535 315 q 1706 340 1650 340 l 1706 371 q 1684 476 1706 443 q 1631 517 1663 508 q 1571 526 1600 526 l 1571 399 q 1545 395 1561 397 q 1510 393 1529 393 q 1459 398 1485 393 q 1418 418 1433 403 q 1390 474 1396 442 q 1388 526 1385 506 l 1493 629 l 1654 629 q 1837 572 1782 629 q 1892 371 1892 515 l 1892 124 l 1924 0 l 1797 0 q 1748 17 1765 0 q 1724 65 1731 35 l 1549 -21 m 2628 0 l 2638 93 l 2638 533 l 2628 604 q 2648 602 2631 604 q 2690 600 2665 600 q 2758 606 2721 600 q 2825 629 2794 611 l 2825 124 l 2856 0 l 2628 0 m 3242 -19 q 3009 64 3090 -19 q 2928 310 2928 147 q 2981 494 2928 424 q 3106 599 3033 565 q 3138 615 3124 607 q 3167 628 3153 622 q 3172 554 3174 593 q 3151 468 3169 515 q 3133 402 3140 438 q 3125 321 3125 367 q 3150 215 3125 260 q 3217 147 3175 171 q 3308 124 3260 124 l 3433 164 l 3433 0 q 3396 -8 3426 -3 q 3324 -16 3365 -12 q 3242 -19 3283 -19 m 4176 -443 q 4045 -415 4106 -443 q 3948 -337 3985 -386 q 3911 -229 3911 -289 q 3953 -119 3911 -165 q 4075 -74 3994 -74 q 4120 -78 4097 -74 q 4151 -85 4143 -82 q 4162 -42 4164 -71 q 4111 24 4160 -12 q 4039 120 4063 61 q 4015 272 4015 179 l 4015 478 q 4016 554 4015 514 q 4017 619 4017 594 l 4214 619 l 4201 515 l 4201 269 q 4234 154 4201 185 q 4310 124 4267 124 q 4366 135 4342 124 q 4400 156 4390 146 l 4400 619 l 4596 619 l 4585 496 l 4585 168 q 4576 -72 4585 21 q 4548 -222 4568 -165 q 4492 -318 4528 -278 q 4356 -414 4435 -385 q 4176 -443 4278 -443 m 2281 310 q 2313 350 2299 329 q 2326 414 2326 371 q 2300 498 2326 469 q 2238 526 2274 526 q 2168 496 2199 526 l 2168 485 q 2186 394 2168 433 q 2230 332 2204 354 q 2281 310 2256 310 m 5057 124 l 5068 124 q 5108 184 5088 144 q 5128 304 5128 224 q 5108 395 5128 351 q 5057 467 5089 439 q 4989 496 5025 496 q 4955 473 4974 486 q 4924 451 4936 460 l 4924 164 q 4969 137 4943 146 q 5019 126 4994 128 q 5057 124 5043 124 m 1611 124 q 1665 133 1636 124 q 1706 156 1694 143 l 1706 228 l 1572 249 q 1544 185 1544 221 q 1563 141 1544 158 q 1611 124 1581 124 m 4218 -319 q 4313 -285 4272 -319 q 4378 -193 4354 -251 q 4401 -62 4401 -135 l 4401 21 q 4359 -3 4394 14 q 4267 -21 4324 -21 q 4210 -53 4224 -21 q 4238 -139 4197 -86 q 4256 -170 4249 -154 q 4264 -203 4264 -186 q 4256 -228 4264 -218 q 4233 -239 4249 -239 q 4205 -231 4215 -239 q 4175 -224 4194 -224 q 4145 -233 4158 -224 q 4132 -261 4132 -243 q 4156 -303 4132 -287 q 4218 -319 4179 -319 m 2249 -156 q 2343 -104 2343 -156 q 2316 -53 2343 -78 q 2250 -14 2289 -29 q 2172 1 2211 1 q 2161 -28 2167 -8 q 2156 -71 2156 -47 q 2181 -131 2156 -106 q 2249 -156 2206 -156 m 4951 -686 q 4864 -677 4907 -686 q 4765 -642 4821 -668 q 4626 -564 4710 -615 q 4527 -502 4560 -522 q 4467 -464 4494 -482 q 4460 -449 4458 -458 q 4478 -433 4463 -440 q 4522 -420 4497 -424 q 4571 -417 4546 -417 q 4634 -423 4603 -417 q 4711 -447 4665 -429 q 4828 -503 4757 -465 q 4992 -567 4922 -551 q 5097 -582 5063 -582 q 5115 -534 5114 -565 q 5095 -477 5115 -503 q 5028 -451 5075 -451 q 4947 -457 4993 -451 q 4872 -462 4901 -462 l 4856 -462 q 4892 -405 4863 -444 q 4964 -333 4921 -365 q 5090 -293 5019 -293 q 5179 -312 5138 -293 q 5247 -366 5221 -331 q 5274 -454 5274 -401 q 5228 -574 5274 -521 q 5109 -656 5182 -626 q 4951 -686 5036 -686 m 4746 -944 q 4664 -910 4690 -944 q 4638 -837 4638 -876 q 4676 -744 4638 -782 q 4715 -708 4696 -724 q 4743 -693 4735 -693 q 4740 -767 4726 -731 q 4785 -819 4753 -803 q 4823 -837 4810 -832 q 4840 -847 4836 -842 q 4813 -918 4840 -892 q 4746 -944 4786 -944 z "},"≈":{"ha":889,"x_min":111,"x_max":778,"o":"m 607 389 q 507 409 549 389 q 433 455 465 429 q 367 501 400 481 q 292 521 333 521 q 180 490 224 521 q 111 432 136 458 l 111 581 q 170 640 125 610 q 292 671 215 671 q 383 651 344 671 q 456 606 422 632 q 525 560 489 579 q 607 540 561 540 q 718 571 676 540 q 778 628 760 601 l 778 479 q 726 419 768 450 q 607 389 685 389 m 607 83 q 507 103 549 83 q 433 149 465 124 q 367 195 400 175 q 292 215 333 215 q 180 184 224 215 q 111 126 136 153 l 111 275 q 170 335 125 304 q 292 365 215 365 q 383 346 344 365 q 456 300 422 326 q 525 254 489 274 q 607 235 561 235 q 718 265 676 235 q 778 322 760 296 l 778 174 q 726 114 768 144 q 607 83 685 83 z "},"å":{"ha":904,"x_min":63,"x_max":828,"o":"m 263 0 q 110 49 157 0 q 63 185 63 99 q 112 324 63 275 q 263 372 161 372 l 333 372 q 521 367 438 372 q 658 356 604 361 l 658 447 q 656 473 658 460 q 639 494 653 486 q 592 503 625 503 l 522 503 q 269 498 371 503 q 132 489 168 493 l 117 594 q 222 618 117 614 q 575 622 328 622 l 644 622 q 751 603 714 622 q 805 554 789 583 q 824 495 821 525 q 828 444 828 465 l 828 0 l 714 0 l 660 28 q 519 9 601 18 q 332 0 438 0 l 263 0 m 299 119 l 617 119 q 653 125 647 119 q 658 160 658 131 l 658 267 l 299 267 q 247 249 261 267 q 232 192 232 231 q 249 136 232 153 q 299 119 265 119 m 447 708 q 356 725 386 708 q 315 769 325 742 q 306 831 306 797 l 306 846 q 315 902 306 874 q 353 949 324 931 q 447 968 383 968 l 513 968 q 604 949 574 968 q 644 902 635 931 q 654 846 654 874 l 654 831 q 644 769 654 797 q 604 725 635 742 q 513 708 574 708 l 447 708 m 446 800 l 513 800 q 534 809 528 800 q 540 828 540 818 l 540 847 q 534 866 540 857 q 513 875 528 875 l 446 875 q 423 866 429 875 q 418 847 417 857 l 418 828 q 423 809 417 818 q 446 800 429 800 z "},"ǻ":{"ha":904,"x_min":63,"x_max":828,"o":"m 263 0 q 110 49 157 0 q 63 185 63 99 q 112 324 63 275 q 263 372 161 372 l 333 372 q 521 367 438 372 q 658 356 604 361 l 658 447 q 656 473 658 460 q 639 494 653 486 q 592 503 625 503 l 522 503 q 269 498 371 503 q 132 489 168 493 l 117 594 q 222 618 117 614 q 575 622 328 622 l 644 622 q 751 603 714 622 q 805 554 789 583 q 824 495 821 525 q 828 444 828 465 l 828 0 l 714 0 l 660 28 q 519 9 601 18 q 332 0 438 0 l 263 0 m 299 119 l 617 119 q 653 125 647 119 q 658 160 658 131 l 658 267 l 299 267 q 247 249 261 267 q 232 192 232 231 q 249 136 232 153 q 299 119 265 119 m 447 708 q 356 725 386 708 q 315 769 325 742 q 306 831 306 797 l 306 846 q 315 902 306 874 q 353 949 324 931 q 447 968 383 968 l 513 968 q 604 949 574 968 q 644 902 635 931 q 654 846 654 874 l 654 831 q 644 769 654 797 q 604 725 635 742 q 513 708 574 708 l 447 708 m 446 800 l 513 800 q 534 809 528 800 q 540 828 540 818 l 540 847 q 534 866 540 857 q 513 875 528 875 l 446 875 q 423 866 429 875 q 418 847 417 857 l 418 828 q 423 809 417 818 q 446 800 429 800 m 432 1064 q 445 1115 432 1082 q 475 1180 458 1147 q 501 1229 492 1213 q 533 1259 514 1249 q 585 1269 551 1269 l 600 1269 q 654 1229 654 1269 q 628 1176 654 1208 q 567 1115 603 1144 q 501 1065 532 1085 q 456 1044 479 1051 q 432 1064 432 1038 z "},"^":{"ha":558,"x_min":56,"x_max":503,"o":"m 74 514 q 56 533 56 514 q 73 578 56 543 q 116 660 90 614 q 167 747 142 706 q 208 808 192 788 q 238 833 224 828 q 269 838 253 838 l 297 838 q 328 833 313 838 q 357 808 343 828 q 401 740 376 782 q 449 655 425 699 q 488 578 472 611 q 503 533 503 544 q 485 515 503 515 q 447 533 463 515 q 413 573 440 542 q 351 646 386 604 q 283 724 315 688 q 215 647 251 688 q 149 574 178 606 q 111 533 119 542 q 74 514 92 514 z "},"~":{"ha":558,"x_min":42,"x_max":517,"o":"m 376 222 q 309 237 338 222 q 258 271 281 251 q 215 305 236 290 q 167 319 193 319 q 119 295 132 319 q 99 250 106 271 q 79 227 93 233 q 53 229 65 221 q 42 263 42 238 q 77 370 42 324 q 181 417 113 417 q 247 402 219 417 q 295 368 274 388 q 340 334 317 349 q 392 319 363 319 q 439 344 424 319 q 460 389 454 368 q 478 413 465 407 q 504 411 492 419 q 517 376 517 403 q 502 303 517 339 q 456 245 488 268 q 376 222 425 222 z "},"*":{"ha":750,"x_min":111,"x_max":639,"o":"m 282 375 l 171 456 l 200 518 l 353 617 l 172 606 l 111 639 l 153 769 l 222 761 l 360 647 l 294 814 l 308 882 l 444 882 l 458 814 l 393 647 l 528 758 l 596 767 l 639 636 l 578 603 l 406 614 l 550 522 l 579 460 l 469 379 l 418 426 l 376 592 l 332 422 l 282 375 z "},"@":{"ha":1304,"x_min":111,"x_max":1193,"o":"m 378 -139 q 224 -107 282 -139 q 138 -22 165 -75 q 111 94 111 31 l 111 583 q 138 717 111 658 q 224 810 165 776 q 378 844 282 844 l 947 844 q 1130 782 1067 844 q 1193 611 1193 719 l 1193 254 q 1140 125 1193 168 q 996 82 1086 82 l 971 82 q 857 116 896 82 q 818 207 818 150 q 786 142 808 171 q 721 95 764 113 q 604 78 678 78 l 497 78 q 406 109 438 78 q 375 188 375 140 l 375 489 q 406 570 375 540 q 497 600 438 600 q 579 598 529 600 q 684 592 629 596 q 781 586 739 589 l 865 628 l 921 628 l 921 272 q 940 219 921 238 q 986 201 958 201 l 1000 201 q 1051 219 1036 201 q 1067 272 1067 238 l 1067 594 q 1056 663 1068 632 q 1012 714 1044 694 q 917 733 979 733 l 388 733 q 293 714 326 733 q 248 663 260 694 q 236 594 236 632 l 236 111 q 248 43 236 75 q 293 -8 260 11 q 388 -28 326 -28 l 999 -28 l 957 -125 q 935 -134 953 -129 q 885 -139 917 -139 l 378 -139 m 586 201 l 628 201 q 724 233 696 201 q 753 325 753 265 l 753 472 l 586 472 q 552 463 561 472 q 543 431 543 454 l 543 244 q 554 211 543 221 q 586 201 565 201 z "},"ã":{"ha":904,"x_min":63,"x_max":828,"o":"m 263 0 q 110 49 157 0 q 63 185 63 99 q 112 324 63 275 q 263 372 161 372 l 333 372 q 521 367 438 372 q 658 356 604 361 l 658 447 q 656 473 658 460 q 639 494 653 486 q 592 503 625 503 l 522 503 q 269 498 371 503 q 132 489 168 493 l 117 594 q 222 618 117 614 q 575 622 328 622 l 644 622 q 751 603 714 622 q 805 554 789 583 q 824 495 821 525 q 828 444 828 465 l 828 0 l 714 0 l 660 28 q 519 9 601 18 q 332 0 438 0 l 263 0 m 299 119 l 617 119 q 653 125 647 119 q 658 160 658 131 l 658 267 l 299 267 q 247 249 261 267 q 232 192 232 231 q 249 136 232 153 q 299 119 265 119 m 578 694 q 510 709 539 694 q 460 743 482 724 q 416 777 438 763 q 368 792 394 792 q 320 767 333 792 q 300 722 307 743 q 281 699 294 706 q 255 701 267 693 q 243 735 243 710 q 278 842 243 796 q 382 889 314 889 q 448 874 421 889 q 497 840 475 860 q 541 806 518 821 q 593 792 564 792 q 640 816 625 792 q 661 861 656 840 q 680 885 667 879 q 706 883 693 892 q 718 849 718 875 q 703 776 718 811 q 658 717 689 740 q 578 694 626 694 z "},"b":{"ha":903,"x_min":83,"x_max":833,"o":"m 83 0 l 83 881 l 253 881 l 253 606 q 394 617 313 613 q 579 622 475 622 l 650 622 q 757 604 719 622 q 810 558 794 586 q 830 500 826 531 q 833 444 833 469 l 833 178 q 830 127 833 157 q 810 68 826 97 q 757 19 794 39 q 650 0 719 0 l 579 0 q 378 6 464 0 q 235 19 292 13 l 197 0 l 83 0 m 296 119 l 597 119 q 664 175 664 119 l 664 447 q 651 490 665 478 q 597 503 638 503 l 528 503 q 370 499 439 503 q 253 492 301 496 l 253 163 q 259 126 253 133 q 296 119 265 119 z "},"\\":{"ha":531,"x_min":-56,"x_max":503,"o":"m 503 -111 l 143 808 l 126 879 l -56 879 l 304 -43 l 321 -111 l 503 -111 z "},"|":{"ha":356,"x_min":111,"x_max":244,"o":"m 111 -167 l 111 817 l 244 817 l 244 -167 l 111 -167 z "},"{":{"ha":499,"x_min":56,"x_max":443,"o":"m 428 -139 l 443 -42 q 355 -15 378 -42 q 332 69 332 11 l 332 268 q 247 422 332 378 q 332 578 332 460 l 332 747 q 359 833 332 808 q 443 858 386 858 l 428 956 l 343 956 q 201 901 249 956 q 154 750 154 847 l 154 563 q 128 488 154 511 q 56 464 103 464 l 56 381 q 127 354 100 381 q 154 283 154 328 l 154 67 q 201 -89 154 -39 q 343 -139 247 -139 l 428 -139 z "},"}":{"ha":499,"x_min":56,"x_max":443,"o":"m 71 -139 l 56 -42 q 144 -15 121 -42 q 167 69 167 11 l 167 268 q 251 422 167 378 q 167 578 167 460 l 167 747 q 140 833 167 808 q 56 858 113 858 l 71 956 l 156 956 q 297 901 250 956 q 344 750 344 847 l 344 563 q 370 488 344 511 q 443 464 396 464 l 443 381 q 372 354 399 381 q 344 283 344 328 l 344 67 q 298 -89 344 -39 q 156 -139 251 -139 l 71 -139 z "},"[":{"ha":518,"x_min":56,"x_max":407,"o":"m 393 -139 l 407 -42 l 239 -42 l 239 858 l 407 858 l 393 956 l 56 956 l 56 -139 l 393 -139 z "},"]":{"ha":574,"x_min":111,"x_max":463,"o":"m 125 -139 l 111 -42 l 279 -42 l 279 858 l 111 858 l 125 956 l 463 956 l 463 -139 l 125 -139 z "},"˘":{"ha":472,"x_min":28,"x_max":444,"o":"m 236 722 q 110 742 156 722 q 47 796 65 761 q 28 875 28 831 q 48 910 28 910 q 81 890 68 910 q 133 838 101 856 q 236 819 164 819 q 338 838 310 819 q 389 890 367 856 q 424 911 404 913 q 444 875 444 910 q 401 761 444 800 q 236 722 357 722 z "},"̮":{"ha":0,"x_min":-556,"x_max":-139,"o":"m -347 -389 q -473 -369 -428 -389 q -537 -315 -518 -350 q -556 -236 -556 -281 q -535 -201 -556 -201 q -503 -221 -515 -201 q -451 -274 -482 -256 q -347 -292 -419 -292 q -245 -274 -274 -292 q -194 -221 -217 -256 q -159 -200 -179 -199 q -139 -236 -139 -201 q -183 -350 -139 -311 q -347 -389 -226 -389 z "},"̆":{"ha":0,"x_min":-556,"x_max":-139,"o":"m -347 722 q -473 742 -428 722 q -537 796 -518 761 q -556 875 -556 831 q -535 910 -556 910 q -503 890 -515 910 q -451 838 -482 856 q -347 819 -419 819 q -245 838 -274 819 q -194 890 -217 856 q -159 911 -179 913 q -139 875 -139 910 q -183 761 -139 800 q -347 722 -226 722 z "},"̑":{"ha":0,"x_min":-556,"x_max":-139,"o":"m -347 967 q -473 947 -428 967 q -537 893 -518 928 q -556 814 -556 858 q -535 779 -556 779 q -503 799 -515 779 q -451 851 -482 833 q -347 869 -419 869 q -245 851 -274 869 q -194 799 -217 833 q -159 778 -179 776 q -139 814 -139 779 q -183 928 -139 889 q -347 967 -226 967 z "},"¦":{"ha":356,"x_min":111,"x_max":244,"o":"m 111 417 l 111 817 l 244 817 l 244 417 l 111 417 m 111 -111 l 111 304 l 244 304 l 244 -111 l 111 -111 z "},"•":{"ha":521,"x_min":111,"x_max":410,"o":"m 259 264 q 147 295 182 264 q 111 399 111 326 q 145 505 111 474 q 259 535 180 535 q 374 505 338 535 q 409 399 409 474 q 374 296 409 328 q 259 264 338 264 z "},"∙":{"ha":521,"x_min":111,"x_max":410,"o":"m 259 275 q 147 306 182 275 q 111 410 111 338 q 145 516 111 485 q 259 546 180 546 q 374 516 338 546 q 409 410 409 485 q 374 307 409 340 q 259 275 338 275 z "},"c":{"ha":819,"x_min":69,"x_max":806,"o":"m 253 0 q 146 18 183 0 q 92 64 108 36 q 73 122 76 92 q 69 178 69 153 l 69 444 q 73 495 69 465 q 92 554 76 525 q 147 603 108 583 q 253 622 185 622 l 446 622 q 692 613 619 622 q 765 594 765 604 l 738 489 q 639 495 699 492 q 510 501 579 499 q 376 503 442 503 l 306 503 q 239 447 239 503 l 239 175 q 306 119 238 119 l 376 119 q 523 122 451 119 q 654 127 594 124 q 750 133 714 131 l 806 43 q 532 0 806 0 l 253 0 z "},"ć":{"ha":819,"x_min":69,"x_max":806,"o":"m 253 0 q 146 18 183 0 q 92 64 108 36 q 73 122 76 92 q 69 178 69 153 l 69 444 q 73 495 69 465 q 92 554 76 525 q 147 603 108 583 q 253 622 185 622 l 446 622 q 692 613 619 622 q 765 594 765 604 l 738 489 q 639 495 699 492 q 510 501 579 499 q 376 503 442 503 l 306 503 q 239 447 239 503 l 239 175 q 306 119 238 119 l 376 119 q 523 122 451 119 q 654 127 594 124 q 750 133 714 131 l 806 43 q 532 0 806 0 l 253 0 m 396 719 q 409 770 396 738 q 439 835 422 803 q 465 885 456 868 q 497 915 478 904 q 549 925 515 925 l 564 925 q 618 885 618 925 q 592 832 618 864 q 531 770 567 800 q 465 721 496 740 q 419 700 443 707 q 396 719 396 693 z "},"ˇ":{"ha":446,"x_min":79,"x_max":469,"o":"z "},"̌":{"ha":0,"x_min":-504,"x_max":-114,"o":"m -504 875 q -483 835 -504 863 q -437 779 -462 807 q -397 739 -411 751 q -364 715 -379 722 q -325 708 -349 708 l -283 708 q -242 719 -258 708 q -214 740 -225 729 q -175 784 -199 756 q -133 839 -151 813 q -114 875 -114 865 q -135 892 -114 890 q -183 875 -157 893 l -304 794 l -435 875 q -504 875 -504 918 z "},"č":{"ha":819,"x_min":69,"x_max":806,"o":"m 253 0 q 146 18 183 0 q 92 64 108 36 q 73 122 76 92 q 69 178 69 153 l 69 444 q 73 495 69 465 q 92 554 76 525 q 147 603 108 583 q 253 622 185 622 l 446 622 q 692 613 619 622 q 765 594 765 604 l 738 489 q 639 495 699 492 q 510 501 579 499 q 376 503 442 503 l 306 503 q 239 447 239 503 l 239 175 q 306 119 238 119 l 376 119 q 523 122 451 119 q 654 127 594 124 q 750 133 714 131 l 806 43 q 532 0 806 0 l 253 0 m 246 875 q 267 835 246 863 q 313 779 288 807 q 353 739 339 751 q 386 715 371 722 q 425 708 401 708 l 467 708 q 508 719 492 708 q 536 740 525 729 q 575 784 551 756 q 617 839 599 813 q 636 875 636 865 q 615 892 636 890 q 567 875 593 893 l 446 794 l 315 875 q 246 875 246 918 z "},"ç":{"ha":819,"x_min":69,"x_max":806,"o":"m 253 0 q 146 18 183 0 q 92 64 108 36 q 73 122 76 92 q 69 178 69 153 l 69 444 q 73 495 69 465 q 92 554 76 525 q 147 603 108 583 q 253 622 185 622 l 446 622 q 692 613 619 622 q 765 594 765 604 l 738 489 q 639 495 699 492 q 510 501 579 499 q 376 503 442 503 l 306 503 q 239 447 239 503 l 239 175 q 306 119 238 119 l 376 119 q 523 122 451 119 q 654 127 594 124 q 750 133 714 131 l 806 43 q 532 0 806 0 l 253 0 m 410 -306 q 311 -282 350 -306 q 256 -232 272 -258 q 249 -208 249 -221 q 257 -190 249 -197 q 279 -187 265 -183 q 334 -201 306 -194 q 399 -208 363 -208 q 467 -165 467 -208 q 426 -126 467 -135 q 332 -118 385 -117 q 357 -59 340 -93 q 390 0 374 -25 q 428 25 407 25 q 444 0 449 25 q 437 -37 440 -21 q 431 -69 433 -54 q 524 -105 492 -75 q 557 -187 557 -135 q 518 -272 557 -237 q 410 -306 479 -306 z "},"ĉ":{"ha":819,"x_min":69,"x_max":806,"o":"m 253 0 q 146 18 183 0 q 92 64 108 36 q 73 122 76 92 q 69 178 69 153 l 69 444 q 73 495 69 465 q 92 554 76 525 q 147 603 108 583 q 253 622 185 622 l 446 622 q 692 613 619 622 q 765 594 765 604 l 738 489 q 639 495 699 492 q 510 501 579 499 q 376 503 442 503 l 306 503 q 239 447 239 503 l 239 175 q 306 119 238 119 l 376 119 q 523 122 451 119 q 654 127 594 124 q 750 133 714 131 l 806 43 q 532 0 806 0 l 253 0 m 244 731 q 265 771 244 743 q 312 826 286 799 q 351 867 338 854 q 385 890 369 883 q 424 897 400 897 l 465 897 q 507 887 490 897 q 535 865 524 876 q 574 822 550 850 q 616 767 597 793 q 635 731 635 740 q 613 714 635 715 q 565 731 592 713 l 444 811 l 314 731 q 244 731 244 688 z "},"ċ":{"ha":819,"x_min":69,"x_max":806,"o":"m 253 0 q 146 18 183 0 q 92 64 108 36 q 73 122 76 92 q 69 178 69 153 l 69 444 q 73 495 69 465 q 92 554 76 525 q 147 603 108 583 q 253 622 185 622 l 446 622 q 692 613 619 622 q 765 594 765 604 l 738 489 q 639 495 699 492 q 510 501 579 499 q 376 503 442 503 l 306 503 q 239 447 239 503 l 239 175 q 306 119 238 119 l 376 119 q 523 122 451 119 q 654 127 594 124 q 750 133 714 131 l 806 43 q 532 0 806 0 l 253 0 z "},"₵":{"ha":1049,"x_min":97,"x_max":1021,"o":"m 511 -83 l 511 0 l 351 0 q 197 28 253 0 q 119 111 142 56 q 97 249 97 167 l 97 558 q 157 755 97 692 q 351 818 217 818 l 511 818 l 511 903 l 650 903 l 650 818 l 769 818 q 916 808 865 818 q 967 786 967 797 l 939 671 q 853 678 924 674 q 650 683 782 682 l 650 135 q 866 142 788 138 q 964 149 944 146 l 1021 29 q 963 9 1021 18 q 765 0 904 0 l 650 0 l 650 -83 l 511 -83 m 392 133 l 511 133 l 511 685 l 392 685 q 281 586 281 685 l 281 232 q 305 159 281 185 q 392 133 329 133 z "},"¸":{"ha":308,"x_min":0,"x_max":308,"o":"m 161 -306 q 63 -282 101 -306 q 7 -232 24 -258 q 0 -208 0 -221 q 8 -190 0 -197 q 31 -187 17 -183 q 85 -201 57 -194 q 150 -208 114 -208 q 218 -165 218 -208 q 177 -126 218 -135 q 83 -118 136 -117 q 108 -59 92 -93 q 142 0 125 -25 q 179 25 158 25 q 196 0 200 25 q 188 -37 192 -21 q 182 -69 185 -54 q 276 -105 243 -75 q 308 -187 308 -135 q 269 -272 308 -237 q 161 -306 231 -306 z "},"̧":{"ha":0,"x_min":0,"x_max":308,"o":"m 161 -306 q 63 -282 101 -306 q 7 -232 24 -258 q 0 -208 0 -221 q 8 -190 0 -197 q 31 -187 17 -183 q 85 -201 57 -194 q 150 -208 114 -208 q 218 -165 218 -208 q 177 -126 218 -135 q 83 -118 136 -117 q 108 -59 92 -93 q 142 0 125 -25 q 179 25 158 25 q 196 0 200 25 q 188 -37 192 -21 q 182 -69 185 -54 q 276 -105 243 -75 q 308 -187 308 -135 q 269 -272 308 -237 q 161 -306 231 -306 z "},"¢":{"ha":838,"x_min":69,"x_max":824,"o":"m 417 -83 l 417 0 l 253 0 q 113 40 156 0 q 69 178 69 81 l 69 444 q 108 575 69 528 q 253 622 147 622 l 417 622 l 417 708 l 528 708 l 528 621 q 660 615 614 619 q 729 606 707 611 q 765 594 751 600 l 738 489 q 651 495 708 492 q 528 500 593 499 l 528 122 q 659 128 599 125 q 750 133 719 132 l 824 25 q 716 6 789 11 q 528 0 643 0 l 528 -83 l 417 -83 m 306 119 l 417 119 l 417 503 l 306 503 q 239 447 239 503 l 239 175 q 306 119 239 119 z "},"ˆ":{"ha":446,"x_min":28,"x_max":418,"o":"m 28 731 q 49 771 28 743 q 95 826 69 799 q 135 867 121 854 q 168 890 153 883 q 207 897 183 897 l 249 897 q 290 887 274 897 q 318 865 307 876 q 357 822 333 850 q 399 767 381 793 q 418 731 418 740 q 397 714 418 715 q 349 731 375 713 l 228 811 l 97 731 q 28 731 28 688 z "},"̂":{"ha":0,"x_min":-556,"x_max":-165,"o":"m -556 731 q -535 771 -556 743 q -488 826 -514 799 q -449 867 -462 854 q -415 890 -431 883 q -376 897 -400 897 l -335 897 q -293 887 -310 897 q -265 865 -276 876 q -226 822 -250 850 q -184 767 -203 793 q -165 731 -165 740 q -187 714 -165 715 q -235 731 -208 713 l -356 811 l -486 731 q -556 731 -556 688 z "},":":{"ha":421,"x_min":111,"x_max":310,"o":"m 210 458 q 135 479 158 458 q 111 549 111 500 q 134 619 111 599 q 210 639 157 639 q 286 619 263 639 q 310 549 310 599 q 286 480 310 501 q 210 458 263 458 m 210 0 q 135 21 158 0 q 111 90 111 42 q 134 160 111 140 q 210 181 157 181 q 286 160 263 181 q 310 90 310 140 q 286 22 310 43 q 210 0 263 0 z "},"₡":{"ha":1049,"x_min":97,"x_max":1021,"o":"m 340 -83 l 361 0 q 157 56 217 0 q 97 249 97 113 l 97 558 q 157 755 97 692 q 351 818 217 818 l 558 818 l 582 913 l 683 913 l 660 818 l 753 818 l 776 913 l 878 913 l 854 815 q 917 806 890 814 q 967 790 944 799 l 939 671 q 903 675 932 672 q 821 679 874 678 l 688 135 q 876 142 807 138 q 964 149 946 146 l 1021 29 q 963 9 1021 18 q 765 0 904 0 l 656 0 l 635 -83 l 535 -83 l 556 0 l 461 0 l 440 -83 l 340 -83 m 393 133 l 526 685 l 392 685 q 281 586 281 685 l 281 232 q 306 159 281 185 q 393 133 331 133 m 493 133 l 588 133 l 721 682 q 677 683 700 683 q 628 683 654 683 l 493 133 z "},",":{"ha":414,"x_min":81,"x_max":303,"o":"m 119 -192 q 85 -184 90 -200 q 90 -151 81 -168 q 113 -115 99 -140 q 142 -59 128 -90 q 160 4 156 -28 q 107 31 124 10 q 90 94 90 51 q 113 163 90 143 q 189 183 136 183 q 274 159 246 183 q 303 79 303 135 q 285 -6 303 39 q 240 -90 268 -50 q 181 -156 213 -129 q 119 -192 149 -183 z "},"̦":{"ha":0,"x_min":-442,"x_max":-258,"o":"m -410 -381 q -438 -374 -434 -388 q -434 -347 -442 -361 q -415 -317 -427 -338 q -391 -271 -403 -297 q -376 -219 -380 -245 q -420 -197 -406 -214 q -434 -144 -434 -180 q -415 -87 -434 -104 q -352 -71 -396 -71 q -282 -91 -305 -71 q -258 -157 -258 -111 q -272 -227 -258 -190 q -310 -296 -287 -264 q -359 -351 -333 -329 q -410 -381 -386 -374 z "},"̒":{"ha":0,"x_min":-411,"x_max":-189,"o":"m -228 1078 q -194 1070 -199 1086 q -199 1038 -189 1054 q -222 1001 -207 1026 q -250 945 -236 976 q -268 882 -264 914 q -215 856 -232 876 q -199 792 -199 835 q -222 723 -199 743 q -297 703 -244 703 q -383 727 -354 703 q -411 807 -411 751 q -394 892 -411 847 q -349 976 -376 936 q -289 1042 -321 1015 q -228 1078 -257 1069 z "},"⁒":{"ha":838,"x_min":111,"x_max":726,"o":"m 210 694 q 135 715 158 694 q 111 785 111 736 q 134 855 111 835 q 210 875 157 875 q 286 855 263 875 q 310 785 310 835 q 286 716 310 738 q 210 694 263 694 m 626 -125 q 551 -104 575 -125 q 528 -35 528 -83 q 551 35 528 15 q 626 56 574 56 q 703 35 679 56 q 726 -35 726 15 q 703 -103 726 -82 q 626 -125 679 -125 m 139 -111 l 499 808 l 515 879 l 697 879 l 338 -43 l 321 -111 l 139 -111 z "},"©":{"ha":1131,"x_min":111,"x_max":1019,"o":"m 457 218 q 393 229 415 218 q 360 257 370 240 q 348 292 350 274 q 346 326 346 311 l 346 487 q 348 518 346 500 q 360 554 350 536 q 393 583 370 572 q 457 595 416 595 l 574 595 q 724 590 680 595 q 768 578 768 584 l 751 514 q 691 518 728 516 q 614 522 655 520 q 532 523 572 523 l 489 523 q 449 489 449 523 l 449 324 q 489 290 448 290 l 532 290 q 621 292 578 290 q 701 295 664 293 q 759 299 737 297 l 792 244 q 627 218 792 218 l 457 218 m 336 0 q 202 26 251 0 q 132 99 153 53 q 111 206 111 146 l 111 594 q 160 761 111 706 q 336 817 210 817 l 789 817 q 970 761 921 817 q 1019 594 1019 706 l 1019 206 q 965 56 1019 113 q 789 0 911 0 l 336 0 m 336 83 l 789 83 q 908 118 879 83 q 938 206 938 153 l 938 594 q 908 697 938 660 q 789 733 879 733 l 336 733 q 222 699 250 733 q 194 594 194 664 l 194 206 q 222 117 194 150 q 336 83 250 83 z "},"¤":{"ha":943,"x_min":111,"x_max":832,"o":"m 185 97 l 111 171 l 185 232 q 156 304 165 263 q 147 397 147 346 l 147 406 q 156 498 147 457 q 185 569 164 539 l 111 631 l 185 704 l 250 625 q 401 653 308 653 l 543 653 q 693 625 635 653 l 758 704 l 832 631 l 758 569 q 787 498 778 539 q 796 406 796 457 l 796 397 q 787 304 796 346 q 758 232 778 263 l 832 171 l 758 97 l 693 176 q 543 149 635 149 l 401 149 q 250 176 308 149 l 185 97 m 442 282 l 504 282 q 584 308 556 282 q 613 381 613 335 l 613 422 q 583 491 613 463 q 504 519 554 519 l 442 519 q 361 493 392 519 q 331 422 331 467 l 331 381 q 360 308 331 333 q 442 282 390 282 z "},"d":{"ha":917,"x_min":69,"x_max":819,"o":"m 253 0 q 146 18 183 0 q 92 64 108 36 q 73 122 76 92 q 69 178 69 153 l 69 444 q 73 495 69 465 q 92 554 76 525 q 147 603 108 583 q 253 622 185 622 l 324 622 q 530 617 451 622 q 650 607 608 613 l 650 881 l 819 881 l 819 0 l 706 0 l 651 28 q 511 9 593 18 q 322 0 429 0 l 253 0 m 306 119 l 607 119 q 643 126 636 119 q 650 161 650 133 l 650 493 q 531 499 603 496 q 376 503 458 503 l 306 503 q 239 447 239 503 l 239 175 q 306 119 239 119 z "},"†":{"ha":806,"x_min":111,"x_max":694,"o":"m 308 -111 l 308 433 l 194 425 l 111 425 l 111 558 l 194 558 l 308 550 l 308 817 l 492 817 l 492 550 l 610 558 l 694 558 l 694 425 l 611 425 l 492 433 l 492 -111 l 308 -111 z "},"‡":{"ha":806,"x_min":111,"x_max":694,"o":"m 308 -111 l 308 156 l 194 147 l 111 147 l 111 281 l 194 281 l 308 272 l 308 433 l 194 425 l 111 425 l 111 558 l 194 558 l 308 550 l 308 817 l 492 817 l 492 550 l 610 558 l 694 558 l 694 425 l 611 425 l 492 433 l 492 272 l 610 281 l 694 281 l 694 147 l 611 147 l 492 156 l 492 -111 l 308 -111 z "},"̏":{"ha":0,"x_min":-722,"x_max":-278,"o":"z "},"ď":{"ha":1017,"x_min":69,"x_max":1079,"o":"m 253 0 q 146 18 183 0 q 92 64 108 36 q 73 122 76 92 q 69 178 69 153 l 69 444 q 73 495 69 465 q 92 554 76 525 q 147 603 108 583 q 253 622 185 622 l 324 622 q 530 617 451 622 q 650 607 608 613 l 650 881 l 819 881 l 819 0 l 706 0 l 651 28 q 511 9 593 18 q 322 0 429 0 l 253 0 m 306 119 l 607 119 q 643 126 636 119 q 650 161 650 133 l 650 493 q 531 499 603 496 q 376 503 458 503 l 306 503 q 239 447 239 503 l 239 175 q 306 119 239 119 m 944 551 q 910 539 922 529 q 899 578 897 549 q 907 669 903 621 q 917 762 911 718 q 928 832 922 806 q 1018 906 944 907 q 1065 889 1051 904 q 1079 844 1079 874 q 1065 773 1079 815 q 1028 686 1050 731 q 984 605 1007 642 q 944 551 961 568 z "},"đ":{"ha":917,"x_min":69,"x_max":961,"o":"m 253 0 q 146 18 183 0 q 92 64 108 36 q 73 122 76 92 q 69 178 69 153 l 69 444 q 73 495 69 465 q 92 554 76 525 q 147 603 108 583 q 253 622 185 622 l 324 622 q 530 617 451 622 q 650 607 608 613 l 650 881 l 819 881 l 819 0 l 706 0 l 651 28 q 511 9 593 18 q 322 0 429 0 l 253 0 m 306 119 l 607 119 q 643 126 636 119 q 650 161 650 133 l 650 493 q 531 499 603 496 q 376 503 458 503 l 306 503 q 239 447 239 503 l 239 175 q 306 119 239 119 m 389 689 l 389 793 l 961 793 l 961 689 l 389 689 z "},"°":{"ha":639,"x_min":111,"x_max":528,"o":"m 319 653 q 215 681 263 653 q 140 757 168 710 q 111 861 111 804 q 140 967 111 919 q 215 1042 168 1014 q 319 1069 263 1069 q 425 1042 378 1069 q 500 967 472 1014 q 528 861 528 919 q 500 757 528 804 q 425 681 472 710 q 319 653 378 653 m 319 764 q 388 793 360 764 q 417 861 417 822 q 388 930 417 901 q 319 958 360 958 q 251 930 281 958 q 222 861 222 901 q 251 793 222 822 q 319 764 281 764 z "},"¨":{"ha":574,"x_min":81,"x_max":464,"o":"z "},"̤":{"ha":0,"x_min":-637,"x_max":-289,"o":"z "},"̈":{"ha":0,"x_min":-656,"x_max":-272,"o":"m -354 751 q -416 769 -397 751 q -436 826 -436 786 q -417 884 -436 867 q -354 901 -398 901 q -291 884 -311 901 q -272 826 -272 867 q -291 769 -272 787 q -354 751 -311 751 m -574 751 q -636 769 -616 751 q -655 826 -655 786 q -636 884 -655 867 q -574 901 -618 901 q -511 884 -530 901 q -491 826 -491 867 q -511 769 -491 787 q -574 751 -530 751 z "},"÷":{"ha":888,"x_min":111,"x_max":776,"o":"m 776 318 l 111 319 l 111 460 l 776 458 l 776 318 m 444 56 q 369 76 393 56 q 346 146 346 97 q 369 216 346 196 q 444 236 392 236 q 521 216 497 236 q 544 146 544 196 q 521 77 544 99 q 444 56 497 56 m 444 542 q 369 563 393 542 q 346 632 346 583 q 369 702 346 682 q 444 722 392 722 q 521 702 497 722 q 544 632 544 682 q 521 563 544 585 q 444 542 497 542 z "},"∕":{"ha":375,"x_min":-153,"x_max":528,"o":"m -153 -111 l 426 817 l 528 817 l -53 -111 l -153 -111 z "},"$":{"ha":967,"x_min":83,"x_max":883,"o":"m 351 346 q 147 399 211 346 q 83 568 83 451 l 83 590 q 106 703 83 651 q 185 785 129 754 q 338 817 240 817 l 415 817 l 415 903 l 554 903 l 554 817 l 646 817 q 799 807 740 817 q 857 786 857 797 l 829 669 q 721 677 801 672 q 518 682 640 682 l 438 685 l 376 685 q 290 659 313 685 q 267 594 268 633 l 267 571 q 292 502 267 525 q 378 479 318 479 l 603 479 q 754 461 692 479 q 850 395 817 443 q 883 254 883 347 l 883 232 q 830 64 883 128 q 644 0 776 0 l 554 0 l 554 -83 l 415 -83 l 415 0 l 267 0 q 128 8 172 0 q 83 28 83 17 l 139 149 q 238 140 158 146 q 454 135 318 135 l 532 133 l 590 133 q 675 155 650 133 q 700 228 700 176 l 700 256 q 680 325 700 304 q 590 346 660 346 l 351 346 z "},"₫":{"ha":1007,"x_min":69,"x_max":951,"o":"m 253 204 q 146 222 183 204 q 92 268 108 240 q 73 326 76 296 q 69 382 69 357 l 69 447 q 73 498 69 468 q 92 557 76 528 q 147 606 108 586 q 253 625 185 625 l 324 625 q 530 621 451 625 q 650 610 608 617 l 650 728 l 415 728 l 415 819 l 650 819 l 650 931 l 819 931 l 819 819 l 951 819 l 951 728 l 819 728 l 819 204 l 706 204 l 651 232 q 511 213 593 222 q 322 204 429 204 l 253 204 m 306 324 l 607 324 q 644 329 639 324 q 650 365 650 335 l 650 496 q 531 502 603 499 q 376 506 458 506 l 306 506 q 239 450 239 506 l 239 379 q 306 324 238 324 m 172 0 l 172 106 l 819 106 l 819 0 l 172 0 z "},"˙":{"ha":267,"x_min":54,"x_max":218,"o":"z "},"̇":{"ha":0,"x_min":-404,"x_max":-240,"o":"m -323 724 q -384 741 -365 724 q -404 798 -404 758 q -385 856 -404 840 q -323 873 -366 873 q -259 856 -279 873 q -240 798 -240 840 q -259 741 -240 759 q -323 724 -279 724 z "},"̣":{"ha":0,"x_min":-417,"x_max":-236,"o":"m -327 -221 q -396 -202 -374 -221 q -417 -139 -417 -183 q -396 -75 -417 -93 q -327 -57 -375 -57 q -258 -75 -279 -57 q -236 -139 -236 -93 q -258 -201 -236 -182 q -327 -221 -279 -221 z "},"ʺ":{"ha":503,"x_min":56,"x_max":447,"o":"m 361 694 q 335 719 347 694 q 312 781 322 743 q 294 860 301 818 q 282 938 286 901 q 278 994 278 975 q 293 1051 278 1033 q 361 1069 308 1069 q 431 1051 414 1069 q 447 994 447 1033 q 443 939 447 975 q 431 861 439 903 q 412 781 422 819 q 388 719 401 743 q 361 694 375 694 m 139 694 q 113 719 125 694 q 90 781 100 743 q 72 860 79 818 q 60 938 64 901 q 56 994 56 975 q 71 1051 56 1033 q 139 1069 86 1069 q 208 1051 192 1069 q 225 994 225 1033 q 221 939 225 975 q 208 861 217 903 q 190 781 200 819 q 166 719 179 743 q 139 694 153 694 z "},"ǳ":{"ha":1763,"x_min":69,"x_max":1735,"o":"m 253 0 q 146 18 183 0 q 92 64 108 36 q 73 122 76 92 q 69 178 69 153 l 69 444 q 73 495 69 465 q 92 554 76 525 q 147 603 108 583 q 253 622 185 622 l 324 622 q 530 617 451 622 q 650 607 608 613 l 650 881 l 819 881 l 819 0 l 706 0 l 651 28 q 511 9 593 18 q 322 0 429 0 l 253 0 m 306 119 l 607 119 q 643 126 636 119 q 650 161 650 133 l 650 493 q 531 499 603 496 q 376 503 458 503 l 306 503 q 239 447 239 503 l 239 175 q 306 119 239 119 m 972 0 l 972 83 l 1421 501 l 1000 501 l 1000 622 l 1681 622 l 1681 539 l 1219 119 l 1693 119 l 1735 15 q 1693 5 1735 10 q 1553 0 1651 0 l 972 0 z "},"ǆ":{"ha":1763,"x_min":69,"x_max":1735,"o":"m 253 0 q 146 18 183 0 q 92 64 108 36 q 73 122 76 92 q 69 178 69 153 l 69 444 q 73 495 69 465 q 92 554 76 525 q 147 603 108 583 q 253 622 185 622 l 324 622 q 530 617 451 622 q 650 607 608 613 l 650 881 l 819 881 l 819 0 l 706 0 l 651 28 q 511 9 593 18 q 322 0 429 0 l 253 0 m 306 119 l 607 119 q 643 126 636 119 q 650 161 650 133 l 650 493 q 531 499 603 496 q 376 503 458 503 l 306 503 q 239 447 239 503 l 239 175 q 306 119 239 119 z "},"e":{"ha":861,"x_min":69,"x_max":806,"o":"m 253 0 q 146 18 183 0 q 92 64 108 36 q 73 122 76 92 q 69 178 69 153 l 69 444 q 73 495 69 465 q 92 554 76 525 q 147 603 108 583 q 253 622 185 622 l 551 622 q 695 605 643 622 q 769 549 747 588 q 790 444 790 510 l 790 239 l 547 239 q 344 244 422 239 q 239 251 265 250 l 239 175 q 306 119 238 119 l 376 119 q 523 122 451 119 q 654 127 594 124 q 750 133 714 131 l 806 43 q 532 0 806 0 l 253 0 m 239 358 l 621 358 l 621 447 q 615 486 621 475 q 578 500 608 497 q 474 503 547 503 l 306 503 q 239 447 239 503 l 239 358 z "},"é":{"ha":861,"x_min":69,"x_max":806,"o":"m 253 0 q 146 18 183 0 q 92 64 108 36 q 73 122 76 92 q 69 178 69 153 l 69 444 q 73 495 69 465 q 92 554 76 525 q 147 603 108 583 q 253 622 185 622 l 551 622 q 695 605 643 622 q 769 549 747 588 q 790 444 790 510 l 790 239 l 547 239 q 344 244 422 239 q 239 251 265 250 l 239 175 q 306 119 238 119 l 376 119 q 523 122 451 119 q 654 127 594 124 q 750 133 714 131 l 806 43 q 532 0 806 0 l 253 0 m 239 358 l 621 358 l 621 447 q 615 486 621 475 q 578 500 608 497 q 474 503 547 503 l 306 503 q 239 447 239 503 l 239 358 m 389 719 q 402 770 389 738 q 432 835 415 803 q 458 885 449 868 q 490 915 471 904 q 542 925 508 925 l 557 925 q 611 885 611 925 q 585 832 611 864 q 524 770 560 800 q 458 721 489 740 q 413 700 436 707 q 389 719 389 693 z "},"ĕ":{"ha":861,"x_min":69,"x_max":806,"o":"m 253 0 q 146 18 183 0 q 92 64 108 36 q 73 122 76 92 q 69 178 69 153 l 69 444 q 73 495 69 465 q 92 554 76 525 q 147 603 108 583 q 253 622 185 622 l 551 622 q 695 605 643 622 q 769 549 747 588 q 790 444 790 510 l 790 239 l 547 239 q 344 244 422 239 q 239 251 265 250 l 239 175 q 306 119 238 119 l 376 119 q 523 122 451 119 q 654 127 594 124 q 750 133 714 131 l 806 43 q 532 0 806 0 l 253 0 m 239 358 l 621 358 l 621 447 q 615 486 621 475 q 578 500 608 497 q 474 503 547 503 l 306 503 q 239 447 239 503 l 239 358 m 438 722 q 312 742 357 722 q 248 796 267 761 q 229 875 229 831 q 249 910 229 910 q 282 890 269 910 q 334 838 303 856 q 438 819 365 819 q 540 838 511 819 q 590 890 568 856 q 626 911 606 913 q 646 875 646 910 q 602 761 646 800 q 438 722 558 722 z "},"ě":{"ha":861,"x_min":69,"x_max":806,"o":"m 253 0 q 146 18 183 0 q 92 64 108 36 q 73 122 76 92 q 69 178 69 153 l 69 444 q 73 495 69 465 q 92 554 76 525 q 147 603 108 583 q 253 622 185 622 l 551 622 q 695 605 643 622 q 769 549 747 588 q 790 444 790 510 l 790 239 l 547 239 q 344 244 422 239 q 239 251 265 250 l 239 175 q 306 119 238 119 l 376 119 q 523 122 451 119 q 654 127 594 124 q 750 133 714 131 l 806 43 q 532 0 806 0 l 253 0 m 239 358 l 621 358 l 621 447 q 615 486 621 475 q 578 500 608 497 q 474 503 547 503 l 306 503 q 239 447 239 503 l 239 358 m 239 875 q 260 835 239 863 q 306 779 281 807 q 346 739 332 751 q 379 715 364 722 q 418 708 394 708 l 460 708 q 501 719 485 708 q 529 740 518 729 q 568 784 544 756 q 610 839 592 813 q 629 875 629 865 q 608 892 629 890 q 560 875 586 893 l 439 794 l 308 875 q 239 875 239 918 z "},"ê":{"ha":861,"x_min":69,"x_max":806,"o":"m 253 0 q 146 18 183 0 q 92 64 108 36 q 73 122 76 92 q 69 178 69 153 l 69 444 q 73 495 69 465 q 92 554 76 525 q 147 603 108 583 q 253 622 185 622 l 551 622 q 695 605 643 622 q 769 549 747 588 q 790 444 790 510 l 790 239 l 547 239 q 344 244 422 239 q 239 251 265 250 l 239 175 q 306 119 238 119 l 376 119 q 523 122 451 119 q 654 127 594 124 q 750 133 714 131 l 806 43 q 532 0 806 0 l 253 0 m 239 358 l 621 358 l 621 447 q 615 486 621 475 q 578 500 608 497 q 474 503 547 503 l 306 503 q 239 447 239 503 l 239 358 m 238 731 q 258 771 238 743 q 305 826 279 799 q 344 867 331 854 q 378 890 363 883 q 417 897 393 897 l 458 897 q 500 887 483 897 q 528 865 517 876 q 567 822 543 850 q 609 767 590 793 q 628 731 628 740 q 606 714 628 715 q 558 731 585 713 l 438 811 l 307 731 q 238 731 238 688 z "},"ế":{"ha":861,"x_min":69,"x_max":806,"o":"m 253 0 q 146 18 183 0 q 92 64 108 36 q 73 122 76 92 q 69 178 69 153 l 69 444 q 73 495 69 465 q 92 554 76 525 q 147 603 108 583 q 253 622 185 622 l 551 622 q 695 605 643 622 q 769 549 747 588 q 790 444 790 510 l 790 239 l 547 239 q 344 244 422 239 q 239 251 265 250 l 239 175 q 306 119 238 119 l 376 119 q 523 122 451 119 q 654 127 594 124 q 750 133 714 131 l 806 43 q 532 0 806 0 l 253 0 m 239 358 l 621 358 l 621 447 q 615 486 621 475 q 578 500 608 497 q 474 503 547 503 l 306 503 q 239 447 239 503 l 239 358 m 233 731 q 254 771 233 743 q 301 826 275 799 q 340 867 326 854 q 374 890 358 883 q 413 897 389 897 l 454 897 q 496 887 479 897 q 524 865 513 876 q 563 822 539 850 q 605 767 586 793 q 624 731 624 740 q 602 714 624 715 q 554 731 581 713 l 433 811 l 303 731 q 233 731 233 688 m 385 967 q 398 1017 385 985 q 428 1083 411 1050 q 454 1132 444 1115 q 485 1162 467 1151 q 538 1172 504 1172 l 553 1172 q 607 1132 607 1172 q 581 1079 607 1111 q 520 1017 556 1047 q 454 968 485 988 q 408 947 432 954 q 385 967 385 940 z "},"ệ":{"ha":861,"x_min":69,"x_max":806,"o":"m 253 0 q 146 18 183 0 q 92 64 108 36 q 73 122 76 92 q 69 178 69 153 l 69 444 q 73 495 69 465 q 92 554 76 525 q 147 603 108 583 q 253 622 185 622 l 551 622 q 695 605 643 622 q 769 549 747 588 q 790 444 790 510 l 790 239 l 547 239 q 344 244 422 239 q 239 251 265 250 l 239 175 q 306 119 238 119 l 376 119 q 523 122 451 119 q 654 127 594 124 q 750 133 714 131 l 806 43 q 532 0 806 0 l 253 0 m 239 358 l 621 358 l 621 447 q 615 486 621 475 q 578 500 608 497 q 474 503 547 503 l 306 503 q 239 447 239 503 l 239 358 m 439 -235 q 371 -216 393 -235 q 350 -153 350 -197 q 370 -89 350 -107 q 439 -71 391 -71 q 509 -89 487 -71 q 530 -153 530 -107 q 509 -215 530 -196 q 439 -235 487 -235 m 238 731 q 258 771 238 743 q 305 826 279 799 q 344 867 331 854 q 378 890 363 883 q 417 897 393 897 l 458 897 q 500 887 483 897 q 528 865 517 876 q 567 822 543 850 q 609 767 590 793 q 628 731 628 740 q 606 714 628 715 q 558 731 585 713 l 438 811 l 307 731 q 238 731 238 688 z "},"ề":{"ha":861,"x_min":69,"x_max":806,"o":"m 253 0 q 146 18 183 0 q 92 64 108 36 q 73 122 76 92 q 69 178 69 153 l 69 444 q 73 495 69 465 q 92 554 76 525 q 147 603 108 583 q 253 622 185 622 l 551 622 q 695 605 643 622 q 769 549 747 588 q 790 444 790 510 l 790 239 l 547 239 q 344 244 422 239 q 239 251 265 250 l 239 175 q 306 119 238 119 l 376 119 q 523 122 451 119 q 654 127 594 124 q 750 133 714 131 l 806 43 q 532 0 806 0 l 253 0 m 239 358 l 621 358 l 621 447 q 615 486 621 475 q 578 500 608 497 q 474 503 547 503 l 306 503 q 239 447 239 503 l 239 358 m 233 731 q 254 771 233 743 q 301 826 275 799 q 340 867 326 854 q 374 890 358 883 q 413 897 389 897 l 454 897 q 496 887 479 897 q 524 865 513 876 q 563 822 539 850 q 605 767 586 793 q 624 731 624 740 q 602 714 624 715 q 554 731 581 713 l 433 811 l 303 731 q 233 731 233 688 z "},"ể":{"ha":861,"x_min":69,"x_max":806,"o":"m 253 0 q 146 18 183 0 q 92 64 108 36 q 73 122 76 92 q 69 178 69 153 l 69 444 q 73 495 69 465 q 92 554 76 525 q 147 603 108 583 q 253 622 185 622 l 551 622 q 695 605 643 622 q 769 549 747 588 q 790 444 790 510 l 790 239 l 547 239 q 344 244 422 239 q 239 251 265 250 l 239 175 q 306 119 238 119 l 376 119 q 523 122 451 119 q 654 127 594 124 q 750 133 714 131 l 806 43 q 532 0 806 0 l 253 0 m 239 358 l 621 358 l 621 447 q 615 486 621 475 q 578 500 608 497 q 474 503 547 503 l 306 503 q 239 447 239 503 l 239 358 m 243 731 q 264 771 243 743 q 310 826 285 799 q 350 867 336 854 q 383 890 368 883 q 422 897 399 897 l 464 897 q 506 887 489 897 q 533 865 522 876 q 572 822 549 850 q 615 767 596 793 q 633 731 633 740 q 612 714 633 715 q 564 731 590 713 l 443 811 l 313 731 q 243 731 243 688 m 408 938 q 393 983 393 950 q 454 1028 425 1003 q 483 1086 483 1053 q 439 1125 483 1125 q 394 1117 414 1125 q 353 1097 374 1108 q 314 1087 331 1085 q 297 1119 297 1089 q 319 1173 297 1150 q 378 1209 342 1196 q 456 1222 415 1222 l 469 1222 q 558 1190 526 1222 q 589 1117 589 1157 q 579 1058 589 1083 q 550 1007 569 1032 q 513 969 532 983 q 476 944 493 954 q 438 932 457 933 q 408 938 418 931 z "},"ễ":{"ha":861,"x_min":69,"x_max":806,"o":"m 253 0 q 146 18 183 0 q 92 64 108 36 q 73 122 76 92 q 69 178 69 153 l 69 444 q 73 495 69 465 q 92 554 76 525 q 147 603 108 583 q 253 622 185 622 l 551 622 q 695 605 643 622 q 769 549 747 588 q 790 444 790 510 l 790 239 l 547 239 q 344 244 422 239 q 239 251 265 250 l 239 175 q 306 119 238 119 l 376 119 q 523 122 451 119 q 654 127 594 124 q 750 133 714 131 l 806 43 q 532 0 806 0 l 253 0 m 239 358 l 621 358 l 621 447 q 615 486 621 475 q 578 500 608 497 q 474 503 547 503 l 306 503 q 239 447 239 503 l 239 358 m 243 731 q 264 771 243 743 q 310 826 285 799 q 350 867 336 854 q 383 890 368 883 q 422 897 399 897 l 464 897 q 506 887 489 897 q 533 865 522 876 q 572 822 549 850 q 615 767 596 793 q 633 731 633 740 q 612 714 633 715 q 564 731 590 713 l 443 811 l 313 731 q 243 731 243 688 m 540 942 q 473 956 501 942 q 422 990 444 971 q 378 1024 400 1010 q 331 1039 357 1039 q 283 1015 296 1039 q 263 969 269 990 q 243 947 257 953 q 217 949 229 940 q 206 982 206 957 q 241 1090 206 1043 q 344 1136 276 1136 q 410 1122 383 1136 q 459 1088 438 1107 q 503 1053 481 1068 q 556 1039 526 1039 q 603 1063 588 1039 q 624 1108 618 1088 q 642 1133 629 1126 q 668 1131 656 1139 q 681 1096 681 1122 q 666 1023 681 1058 q 620 965 651 988 q 540 942 589 942 z "},"ȅ":{"ha":861,"x_min":69,"x_max":806,"o":"m 253 0 q 146 18 183 0 q 92 64 108 36 q 73 122 76 92 q 69 178 69 153 l 69 444 q 73 495 69 465 q 92 554 76 525 q 147 603 108 583 q 253 622 185 622 l 551 622 q 695 605 643 622 q 769 549 747 588 q 790 444 790 510 l 790 239 l 547 239 q 344 244 422 239 q 239 251 265 250 l 239 175 q 306 119 238 119 l 376 119 q 523 122 451 119 q 654 127 594 124 q 750 133 714 131 l 806 43 q 532 0 806 0 l 253 0 m 239 358 l 621 358 l 621 447 q 615 486 621 475 q 578 500 608 497 q 474 503 547 503 l 306 503 q 239 447 239 503 l 239 358 z "},"ë":{"ha":861,"x_min":69,"x_max":806,"o":"m 253 0 q 146 18 183 0 q 92 64 108 36 q 73 122 76 92 q 69 178 69 153 l 69 444 q 73 495 69 465 q 92 554 76 525 q 147 603 108 583 q 253 622 185 622 l 551 622 q 695 605 643 622 q 769 549 747 588 q 790 444 790 510 l 790 239 l 547 239 q 344 244 422 239 q 239 251 265 250 l 239 175 q 306 119 238 119 l 376 119 q 523 122 451 119 q 654 127 594 124 q 750 133 714 131 l 806 43 q 532 0 806 0 l 253 0 m 239 358 l 621 358 l 621 447 q 615 486 621 475 q 578 500 608 497 q 474 503 547 503 l 306 503 q 239 447 239 503 l 239 358 m 547 710 q 485 727 504 710 q 465 784 465 744 q 484 842 465 826 q 547 859 503 859 q 610 842 591 859 q 630 784 630 826 q 610 728 630 745 q 547 710 591 710 m 327 710 q 266 727 285 710 q 246 784 246 744 q 265 842 246 826 q 327 859 284 859 q 391 842 371 859 q 410 784 410 826 q 391 728 410 745 q 327 710 371 710 z "},"ė":{"ha":861,"x_min":69,"x_max":806,"o":"m 253 0 q 146 18 183 0 q 92 64 108 36 q 73 122 76 92 q 69 178 69 153 l 69 444 q 73 495 69 465 q 92 554 76 525 q 147 603 108 583 q 253 622 185 622 l 551 622 q 695 605 643 622 q 769 549 747 588 q 790 444 790 510 l 790 239 l 547 239 q 344 244 422 239 q 239 251 265 250 l 239 175 q 306 119 238 119 l 376 119 q 523 122 451 119 q 654 127 594 124 q 750 133 714 131 l 806 43 q 532 0 806 0 l 253 0 m 239 358 l 621 358 l 621 447 q 615 486 621 475 q 578 500 608 497 q 474 503 547 503 l 306 503 q 239 447 239 503 l 239 358 m 437 710 q 375 727 395 710 q 356 784 356 744 q 375 842 356 826 q 437 859 394 859 q 500 842 481 859 q 520 784 520 826 q 500 728 520 745 q 437 710 481 710 z "},"ẹ":{"ha":861,"x_min":69,"x_max":806,"o":"m 253 0 q 146 18 183 0 q 92 64 108 36 q 73 122 76 92 q 69 178 69 153 l 69 444 q 73 495 69 465 q 92 554 76 525 q 147 603 108 583 q 253 622 185 622 l 551 622 q 695 605 643 622 q 769 549 747 588 q 790 444 790 510 l 790 239 l 547 239 q 344 244 422 239 q 239 251 265 250 l 239 175 q 306 119 238 119 l 376 119 q 523 122 451 119 q 654 127 594 124 q 750 133 714 131 l 806 43 q 532 0 806 0 l 253 0 m 239 358 l 621 358 l 621 447 q 615 486 621 475 q 578 500 608 497 q 474 503 547 503 l 306 503 q 239 447 239 503 l 239 358 m 439 -235 q 371 -216 393 -235 q 350 -153 350 -197 q 370 -89 350 -107 q 439 -71 391 -71 q 509 -89 487 -71 q 530 -153 530 -107 q 509 -215 530 -196 q 439 -235 487 -235 z "},"è":{"ha":861,"x_min":69,"x_max":806,"o":"m 253 0 q 146 18 183 0 q 92 64 108 36 q 73 122 76 92 q 69 178 69 153 l 69 444 q 73 495 69 465 q 92 554 76 525 q 147 603 108 583 q 253 622 185 622 l 551 622 q 695 605 643 622 q 769 549 747 588 q 790 444 790 510 l 790 239 l 547 239 q 344 244 422 239 q 239 251 265 250 l 239 175 q 306 119 238 119 l 376 119 q 523 122 451 119 q 654 127 594 124 q 750 133 714 131 l 806 43 q 532 0 806 0 l 253 0 m 239 358 l 621 358 l 621 447 q 615 486 621 475 q 578 500 608 497 q 474 503 547 503 l 306 503 q 239 447 239 503 l 239 358 z "},"ẻ":{"ha":861,"x_min":69,"x_max":806,"o":"m 253 0 q 146 18 183 0 q 92 64 108 36 q 73 122 76 92 q 69 178 69 153 l 69 444 q 73 495 69 465 q 92 554 76 525 q 147 603 108 583 q 253 622 185 622 l 551 622 q 695 605 643 622 q 769 549 747 588 q 790 444 790 510 l 790 239 l 547 239 q 344 244 422 239 q 239 251 265 250 l 239 175 q 306 119 238 119 l 376 119 q 523 122 451 119 q 654 127 594 124 q 750 133 714 131 l 806 43 q 532 0 806 0 l 253 0 m 239 358 l 621 358 l 621 447 q 615 486 621 475 q 578 500 608 497 q 474 503 547 503 l 306 503 q 239 447 239 503 l 239 358 m 403 690 q 388 736 388 703 q 449 781 419 756 q 478 839 478 806 q 433 878 478 878 q 388 869 408 878 q 347 850 368 861 q 308 840 325 838 q 292 872 292 842 q 314 926 292 903 q 373 962 336 949 q 450 975 410 975 l 464 975 q 552 942 521 975 q 583 869 583 910 q 574 810 583 836 q 544 760 564 785 q 507 722 526 736 q 471 697 488 707 q 432 685 451 686 q 403 690 413 683 z "},"ȇ":{"ha":861,"x_min":69,"x_max":806,"o":"m 253 0 q 146 18 183 0 q 92 64 108 36 q 73 122 76 92 q 69 178 69 153 l 69 444 q 73 495 69 465 q 92 554 76 525 q 147 603 108 583 q 253 622 185 622 l 551 622 q 695 605 643 622 q 769 549 747 588 q 790 444 790 510 l 790 239 l 547 239 q 344 244 422 239 q 239 251 265 250 l 239 175 q 306 119 238 119 l 376 119 q 523 122 451 119 q 654 127 594 124 q 750 133 714 131 l 806 43 q 532 0 806 0 l 253 0 m 239 358 l 621 358 l 621 447 q 615 486 621 475 q 578 500 608 497 q 474 503 547 503 l 306 503 q 239 447 239 503 l 239 358 m 438 883 q 312 864 357 883 q 248 810 267 844 q 229 731 229 775 q 249 696 229 696 q 282 715 269 696 q 334 768 303 750 q 438 786 365 786 q 540 768 511 786 q 590 715 568 750 q 626 694 606 693 q 646 731 646 696 q 602 844 646 806 q 438 883 558 883 z "},"…":{"ha":949,"x_min":111,"x_max":838,"o":"m 210 0 q 135 21 158 0 q 111 90 111 42 q 134 160 111 140 q 210 181 157 181 q 286 160 263 181 q 310 90 310 140 q 286 22 310 43 q 210 0 263 0 m 474 0 q 399 21 422 0 q 375 90 375 42 q 398 160 375 140 q 474 181 421 181 q 550 160 526 181 q 574 90 574 140 q 550 22 574 43 q 474 0 526 0 m 738 0 q 663 21 686 0 q 639 90 639 42 q 662 160 639 140 q 738 181 685 181 q 814 160 790 181 q 838 90 838 140 q 814 22 838 43 q 738 0 790 0 z "},"ē":{"ha":861,"x_min":69,"x_max":806,"o":"m 253 0 q 146 18 183 0 q 92 64 108 36 q 73 122 76 92 q 69 178 69 153 l 69 444 q 73 495 69 465 q 92 554 76 525 q 147 603 108 583 q 253 622 185 622 l 551 622 q 695 605 643 622 q 769 549 747 588 q 790 444 790 510 l 790 239 l 547 239 q 344 244 422 239 q 239 251 265 250 l 239 175 q 306 119 238 119 l 376 119 q 523 122 451 119 q 654 127 594 124 q 750 133 714 131 l 806 43 q 532 0 806 0 l 253 0 m 239 358 l 621 358 l 621 447 q 615 486 621 475 q 578 500 608 497 q 474 503 547 503 l 306 503 q 239 447 239 503 l 239 358 m 304 722 q 263 731 276 722 q 249 768 249 740 l 249 776 q 261 812 249 804 q 304 819 274 819 l 571 819 q 613 812 599 819 q 626 776 626 804 l 626 768 q 611 731 626 740 q 571 722 596 722 l 304 722 z "},"—":{"ha":1333,"x_min":111,"x_max":1222,"o":"m 111 306 l 111 467 l 1222 467 l 1222 306 l 111 306 z "},"∅":{"ha":956,"x_min":56,"x_max":900,"o":"m 125 -56 l 217 90 q 99 235 143 149 q 56 422 56 321 q 88 586 56 510 q 179 721 121 663 q 314 812 238 779 q 478 844 390 844 q 661 803 575 844 l 704 872 l 829 872 l 750 746 q 859 603 818 688 q 900 422 900 519 q 867 258 900 335 q 776 124 835 182 q 642 33 718 65 q 478 0 565 0 q 306 36 388 0 l 249 -56 l 125 -56 m 158 422 q 189 285 158 349 q 271 179 219 222 l 606 715 q 478 742 544 742 q 317 699 390 742 q 201 583 244 656 q 158 422 158 510 m 478 103 q 639 146 567 103 q 754 262 711 189 q 797 422 797 335 q 769 552 797 492 q 694 657 742 613 l 361 125 q 478 103 417 103 z "},"–":{"ha":972,"x_min":111,"x_max":861,"o":"m 111 306 l 111 467 l 861 467 l 861 306 l 111 306 z "},"ŋ":{"ha":910,"x_min":83,"x_max":833,"o":"m 604 -244 q 526 -238 564 -244 q 463 -222 488 -232 q 439 -203 439 -212 l 467 -119 q 515 -128 483 -124 q 581 -133 546 -133 q 641 -115 618 -133 q 664 -42 664 -97 l 664 447 q 597 503 664 503 l 294 503 q 260 497 268 503 q 253 472 253 492 l 253 0 l 83 0 l 83 622 l 197 622 l 253 594 q 393 614 311 606 q 581 622 475 622 l 650 622 q 757 603 719 622 q 810 554 794 583 q 830 495 826 525 q 833 444 833 465 l 833 -42 q 805 -162 833 -118 q 729 -226 776 -207 q 622 -244 682 -244 l 604 -244 z "},"ę":{"ha":861,"x_min":69,"x_max":806,"o":"m 253 0 q 146 18 183 0 q 92 64 108 36 q 73 122 76 92 q 69 178 69 153 l 69 444 q 73 495 69 465 q 92 554 76 525 q 147 603 108 583 q 253 622 185 622 l 551 622 q 695 605 643 622 q 769 549 747 588 q 790 444 790 510 l 790 239 l 547 239 q 344 244 422 239 q 239 251 265 250 l 239 175 q 306 119 238 119 l 376 119 q 523 122 451 119 q 654 127 594 124 q 750 133 714 131 l 806 43 q 532 0 806 0 l 253 0 m 239 358 l 621 358 l 621 447 q 615 486 621 475 q 578 500 608 497 q 474 503 547 503 l 306 503 q 239 447 239 503 l 239 358 m 653 -222 q 555 -186 589 -222 q 521 -103 521 -150 q 540 -33 521 -61 q 583 13 558 -4 q 626 36 608 31 q 692 46 663 47 q 722 32 722 44 q 707 14 722 22 q 671 -6 692 6 q 635 -36 650 -18 q 619 -82 619 -54 q 671 -125 619 -125 q 740 -112 717 -125 q 785 -99 764 -99 q 800 -117 803 -99 q 782 -160 797 -136 q 736 -203 767 -183 q 653 -222 706 -222 z "},"=":{"ha":778,"x_min":111,"x_max":776,"o":"m 776 443 l 111 444 l 111 585 l 776 583 l 776 443 m 776 193 l 111 194 l 111 335 l 776 333 l 776 193 z "},"℮":{"ha":1121,"x_min":42,"x_max":1079,"o":"m 561 0 q 360 37 454 0 q 194 138 265 74 q 83 285 124 200 q 42 467 42 369 q 83 649 42 564 q 194 797 124 733 q 360 897 265 860 q 561 933 454 933 q 763 897 668 933 q 928 797 857 860 q 1038 649 997 733 q 1079 467 1079 564 l 1079 454 l 239 454 q 232 449 232 454 l 232 194 q 244 165 232 181 q 385 65 304 101 q 563 28 467 28 q 748 69 663 28 q 896 182 833 111 l 972 182 q 794 49 901 99 q 561 0 688 0 m 239 481 l 883 481 q 890 488 890 481 l 890 743 q 876 774 890 760 q 734 871 814 836 q 563 906 654 906 q 388 869 467 906 q 246 769 308 832 q 232 738 232 756 l 232 488 q 239 481 232 481 z "},"ð":{"ha":889,"x_min":69,"x_max":819,"o":"m 282 0 q 167 20 210 0 q 103 72 124 40 q 76 139 82 103 q 69 207 69 175 l 69 403 q 79 471 69 433 q 113 543 89 508 q 182 600 138 578 q 297 622 226 622 l 313 622 q 413 616 374 622 q 493 597 451 610 l 500 610 l 331 774 l 246 688 l 169 763 l 253 847 l 165 932 l 282 1050 l 368 964 l 457 1051 l 533 976 l 443 888 q 533 798 490 842 q 601 729 576 754 q 730 578 682 649 q 799 440 778 508 q 819 294 819 372 l 819 265 q 789 131 818 192 q 699 35 760 71 q 544 0 639 0 l 282 0 m 306 119 l 524 119 q 617 153 583 119 q 650 244 650 186 l 650 297 q 630 410 650 364 q 554 479 610 456 q 392 503 499 503 l 335 503 q 264 476 289 503 q 239 406 239 450 l 239 189 q 306 119 238 119 z "},"ẽ":{"ha":861,"x_min":69,"x_max":806,"o":"m 253 0 q 146 18 183 0 q 92 64 108 36 q 73 122 76 92 q 69 178 69 153 l 69 444 q 73 495 69 465 q 92 554 76 525 q 147 603 108 583 q 253 622 185 622 l 551 622 q 695 605 643 622 q 769 549 747 588 q 790 444 790 510 l 790 239 l 547 239 q 344 244 422 239 q 239 251 265 250 l 239 175 q 306 119 238 119 l 376 119 q 523 122 451 119 q 654 127 594 124 q 750 133 714 131 l 806 43 q 532 0 806 0 l 253 0 m 239 358 l 621 358 l 621 447 q 615 486 621 475 q 578 500 608 497 q 474 503 547 503 l 306 503 q 239 447 239 503 l 239 358 m 535 694 q 467 709 496 694 q 417 743 439 724 q 373 777 394 763 q 325 792 351 792 q 277 767 290 792 q 257 722 264 743 q 238 699 251 706 q 212 701 224 693 q 200 735 200 710 q 235 842 200 796 q 339 889 271 889 q 405 874 378 889 q 453 840 432 860 q 498 806 475 821 q 550 792 521 792 q 597 816 582 792 q 618 861 613 840 q 637 885 624 879 q 663 883 650 892 q 675 849 675 875 q 660 776 675 811 q 615 717 646 740 q 535 694 583 694 z "},"€":{"ha":1026,"x_min":83,"x_max":943,"o":"m 369 232 q 394 159 369 185 q 481 133 418 133 l 626 133 q 766 140 714 133 q 845 158 818 147 q 886 176 872 168 l 943 71 q 918 47 943 64 q 837 15 893 29 q 688 0 781 0 l 440 0 q 285 28 340 0 q 208 111 231 56 q 186 249 186 167 l 186 272 l 83 272 l 83 378 l 186 378 l 186 440 l 83 440 l 83 546 l 186 546 l 186 558 q 246 755 186 692 q 440 818 306 818 l 692 818 q 817 803 771 818 q 884 770 864 788 q 904 744 904 753 l 861 643 q 791 670 843 656 q 626 685 739 685 l 481 685 q 369 586 369 685 l 369 546 l 583 546 l 583 440 l 369 440 l 369 378 l 583 378 l 583 272 l 369 272 l 369 232 z "},"!":{"ha":463,"x_min":111,"x_max":351,"o":"m 182 292 q 158 430 171 357 q 135 570 146 503 q 118 686 125 638 q 111 749 111 735 q 119 810 111 789 q 167 831 126 831 l 296 831 q 342 810 333 831 q 351 749 351 790 q 345 685 351 733 q 328 570 339 638 q 306 430 318 503 q 282 292 293 357 l 182 292 m 231 0 q 156 21 179 0 q 132 90 132 42 q 155 160 132 140 q 231 181 178 181 q 307 160 283 181 q 331 90 331 140 q 307 22 331 43 q 231 0 283 0 z "},"¡":{"ha":463,"x_min":111,"x_max":351,"o":"m 232 456 q 156 476 179 456 q 132 546 132 496 q 156 615 132 594 q 232 636 181 636 q 308 615 285 636 q 331 546 331 594 q 308 476 331 496 q 232 456 285 456 m 167 -194 q 120 -174 129 -194 q 111 -112 111 -154 q 118 -49 111 -97 q 135 66 125 -1 q 158 207 146 133 q 181 344 169 281 l 281 344 q 304 206 292 279 q 327 66 317 133 q 344 -49 338 -1 q 351 -112 351 -97 q 344 -174 351 -153 q 296 -194 336 -194 l 167 -194 z "},"f":{"ha":665,"x_min":28,"x_max":693,"o":"m 114 0 l 114 503 l 28 503 l 28 621 l 114 621 l 114 744 q 133 832 114 792 q 195 897 151 872 q 311 922 239 922 l 381 922 q 620 907 547 922 q 693 881 693 892 l 651 775 q 567 794 628 785 q 419 803 506 803 l 350 803 q 299 790 315 803 q 283 747 283 778 l 283 621 l 572 621 l 572 503 l 283 503 l 283 0 l 114 0 z "},"ﬁ":{"ha":847,"x_min":28,"x_max":764,"o":"m 114 0 l 114 503 l 28 503 l 28 621 l 114 621 l 114 744 q 167 877 114 832 q 311 922 219 922 l 468 922 q 644 909 579 922 q 736 867 708 896 q 764 792 764 839 q 740 723 764 744 q 664 701 717 701 q 589 726 613 701 q 565 801 565 750 q 539 803 553 803 q 507 803 525 803 l 350 803 q 298 788 313 803 q 283 747 283 774 l 283 621 l 582 608 l 750 622 l 750 0 l 581 0 l 581 503 l 283 503 l 283 0 l 114 0 z "},"ˉ":{"ha":833,"x_min":181,"x_max":558,"o":"z "},"⅝":{"ha":1340,"x_min":28,"x_max":1306,"o":"m 163 403 q 88 407 116 403 q 47 416 60 411 q 28 424 33 422 l 55 477 q 128 473 70 476 q 301 469 185 469 q 343 483 331 469 q 355 519 355 497 l 355 545 q 343 580 355 565 q 300 594 332 594 l 104 594 l 49 588 l 49 811 l 363 811 q 412 808 397 811 q 426 803 426 806 l 413 744 l 140 744 l 140 649 q 177 653 149 651 q 251 655 204 655 l 306 655 q 415 627 384 655 q 447 543 447 599 l 447 527 q 443 484 447 506 q 428 443 440 462 q 390 414 416 425 q 320 403 365 403 l 163 403 m 329 -111 l 908 817 l 1010 817 l 429 -111 l 329 -111 m 1019 -7 q 922 21 952 -7 q 892 110 892 49 l 892 118 q 905 176 892 151 q 951 215 917 202 q 922 244 931 224 q 913 291 913 265 l 913 299 q 924 349 913 326 q 963 387 935 373 q 1040 401 990 401 l 1158 401 q 1234 387 1207 401 q 1273 349 1262 373 q 1285 299 1285 326 l 1285 291 q 1276 245 1285 265 q 1246 215 1267 226 q 1292 176 1279 202 q 1306 118 1306 151 l 1306 110 q 1275 21 1306 49 q 1179 -7 1245 -7 l 1019 -7 m 1060 235 l 1139 235 q 1180 246 1166 235 q 1193 283 1193 257 l 1193 286 q 1183 323 1193 312 q 1139 335 1172 335 l 1060 335 q 1016 324 1028 335 q 1004 286 1004 314 l 1004 283 q 1017 246 1004 257 q 1060 235 1030 235 m 1039 60 l 1160 60 q 1200 72 1185 60 q 1214 109 1214 83 l 1214 125 q 1199 160 1214 147 q 1160 174 1185 174 l 1039 174 q 999 161 1014 174 q 983 125 983 149 l 983 109 q 998 72 983 83 q 1039 60 1013 60 z "},"ﬂ":{"ha":840,"x_min":28,"x_max":757,"o":"m 114 0 l 114 503 l 28 503 l 28 621 l 114 621 l 114 744 q 133 832 114 792 q 195 897 151 872 q 311 922 239 922 l 396 922 q 511 911 463 922 q 592 882 560 900 l 757 894 l 757 0 l 588 0 l 588 692 q 574 749 588 724 q 523 788 561 774 q 408 803 485 803 l 350 803 q 299 790 315 803 q 283 747 283 778 l 283 622 l 475 622 l 475 503 l 283 503 l 283 0 l 114 0 z "},"ƒ":{"ha":874,"x_min":56,"x_max":818,"o":"m 221 -118 q 142 -112 181 -118 q 80 -96 104 -106 q 56 -76 56 -86 l 83 7 q 131 -2 100 3 q 197 -7 163 -7 q 269 13 242 -7 q 309 82 296 32 q 322 224 322 132 l 322 503 l 236 503 l 236 621 l 322 621 l 322 824 q 341 911 322 871 q 403 976 360 951 q 519 1001 447 1001 l 533 1001 q 690 981 626 1001 q 785 934 753 960 q 818 890 818 908 l 763 813 q 683 860 739 838 q 572 882 628 882 l 558 882 q 508 869 524 882 q 492 826 492 857 l 492 622 l 669 622 l 669 503 l 492 503 l 492 224 q 460 17 492 92 q 373 -88 429 -58 q 239 -118 317 -118 l 221 -118 z "},"⁴":{"ha":596,"x_min":56,"x_max":513,"o":"m 328 333 l 328 408 l 56 408 l 56 476 l 291 742 l 419 742 l 419 475 l 513 475 l 513 408 l 419 408 l 419 333 l 328 333 m 169 475 l 328 475 l 328 657 l 321 657 l 169 482 l 169 475 z "},"⁄":{"ha":375,"x_min":-153,"x_max":528,"o":"m -153 -111 l 426 817 l 528 817 l -53 -111 l -153 -111 z "},"₣":{"ha":1117,"x_min":111,"x_max":1103,"o":"m 250 0 l 250 119 l 111 119 l 111 253 l 250 253 l 250 706 l 236 817 l 1103 817 l 1103 683 l 433 683 l 433 508 l 953 508 l 953 371 l 433 371 l 433 253 l 611 253 l 611 119 l 433 119 l 433 0 l 250 0 z "},"g":{"ha":904,"x_min":56,"x_max":821,"o":"m 540 -244 q 292 -242 388 -244 q 144 -233 196 -239 q 74 -219 93 -228 q 56 -201 56 -211 l 97 -97 q 176 -115 119 -104 q 319 -125 232 -125 l 557 -125 q 630 -110 608 -125 q 651 -56 651 -94 l 651 28 q 510 8 592 17 q 324 0 429 0 l 254 0 q 147 18 185 0 q 94 64 110 36 q 74 122 78 92 q 71 178 71 153 l 71 444 q 74 495 71 465 q 94 554 78 525 q 148 603 110 583 q 254 622 186 622 l 325 622 q 552 617 471 622 q 671 604 633 611 l 707 622 l 821 622 l 821 -67 q 813 -122 821 -92 q 783 -181 806 -153 q 719 -226 761 -208 q 610 -244 678 -244 l 540 -244 m 307 119 l 608 119 q 646 125 640 119 q 651 161 651 131 l 651 493 q 532 499 604 496 q 378 503 460 503 l 307 503 q 240 447 240 503 l 240 175 q 307 119 239 119 z "},"ğ":{"ha":904,"x_min":56,"x_max":821,"o":"m 540 -244 q 292 -242 388 -244 q 144 -233 196 -239 q 74 -219 93 -228 q 56 -201 56 -211 l 97 -97 q 176 -115 119 -104 q 319 -125 232 -125 l 557 -125 q 630 -110 608 -125 q 651 -56 651 -94 l 651 28 q 510 8 592 17 q 324 0 429 0 l 254 0 q 147 18 185 0 q 94 64 110 36 q 74 122 78 92 q 71 178 71 153 l 71 444 q 74 495 71 465 q 94 554 78 525 q 148 603 110 583 q 254 622 186 622 l 325 622 q 552 617 471 622 q 671 604 633 611 l 707 622 l 821 622 l 821 -67 q 813 -122 821 -92 q 783 -181 806 -153 q 719 -226 761 -208 q 610 -244 678 -244 l 540 -244 m 307 119 l 608 119 q 646 125 640 119 q 651 161 651 131 l 651 493 q 532 499 604 496 q 378 503 460 503 l 307 503 q 240 447 240 503 l 240 175 q 307 119 239 119 m 446 722 q 320 742 365 722 q 256 796 275 761 q 238 875 238 831 q 258 910 238 910 q 290 890 278 910 q 342 838 311 856 q 446 819 374 819 q 548 838 519 819 q 599 890 576 856 q 634 911 614 913 q 654 875 654 910 q 610 761 654 800 q 446 722 567 722 z "},"ǧ":{"ha":904,"x_min":56,"x_max":821,"o":"m 540 -244 q 292 -242 388 -244 q 144 -233 196 -239 q 74 -219 93 -228 q 56 -201 56 -211 l 97 -97 q 176 -115 119 -104 q 319 -125 232 -125 l 557 -125 q 630 -110 608 -125 q 651 -56 651 -94 l 651 28 q 510 8 592 17 q 324 0 429 0 l 254 0 q 147 18 185 0 q 94 64 110 36 q 74 122 78 92 q 71 178 71 153 l 71 444 q 74 495 71 465 q 94 554 78 525 q 148 603 110 583 q 254 622 186 622 l 325 622 q 552 617 471 622 q 671 604 633 611 l 707 622 l 821 622 l 821 -67 q 813 -122 821 -92 q 783 -181 806 -153 q 719 -226 761 -208 q 610 -244 678 -244 l 540 -244 m 307 119 l 608 119 q 646 125 640 119 q 651 161 651 131 l 651 493 q 532 499 604 496 q 378 503 460 503 l 307 503 q 240 447 240 503 l 240 175 q 307 119 239 119 m 247 875 q 268 835 247 863 q 315 779 289 807 q 354 739 340 751 q 388 715 372 722 q 426 708 403 708 l 468 708 q 510 719 493 708 q 538 740 526 729 q 576 784 553 756 q 619 839 600 813 q 638 875 638 865 q 616 892 638 890 q 568 875 594 893 l 447 794 l 317 875 q 247 875 247 918 z "},"ĝ":{"ha":904,"x_min":56,"x_max":821,"o":"m 540 -244 q 292 -242 388 -244 q 144 -233 196 -239 q 74 -219 93 -228 q 56 -201 56 -211 l 97 -97 q 176 -115 119 -104 q 319 -125 232 -125 l 557 -125 q 630 -110 608 -125 q 651 -56 651 -94 l 651 28 q 510 8 592 17 q 324 0 429 0 l 254 0 q 147 18 185 0 q 94 64 110 36 q 74 122 78 92 q 71 178 71 153 l 71 444 q 74 495 71 465 q 94 554 78 525 q 148 603 110 583 q 254 622 186 622 l 325 622 q 552 617 471 622 q 671 604 633 611 l 707 622 l 821 622 l 821 -67 q 813 -122 821 -92 q 783 -181 806 -153 q 719 -226 761 -208 q 610 -244 678 -244 l 540 -244 m 307 119 l 608 119 q 646 125 640 119 q 651 161 651 131 l 651 493 q 532 499 604 496 q 378 503 460 503 l 307 503 q 240 447 240 503 l 240 175 q 307 119 239 119 m 246 731 q 267 771 246 743 q 313 826 288 799 q 353 867 339 854 q 386 890 371 883 q 425 897 401 897 l 467 897 q 508 887 492 897 q 536 865 525 876 q 575 822 551 850 q 617 767 599 793 q 636 731 636 740 q 615 714 636 715 q 567 731 593 713 l 446 811 l 315 731 q 246 731 246 688 z "},"ģ":{"ha":904,"x_min":56,"x_max":821,"o":"m 540 -244 q 292 -242 388 -244 q 144 -233 196 -239 q 74 -219 93 -228 q 56 -201 56 -211 l 97 -97 q 176 -115 119 -104 q 319 -125 232 -125 l 557 -125 q 630 -110 608 -125 q 651 -56 651 -94 l 651 28 q 510 8 592 17 q 324 0 429 0 l 254 0 q 147 18 185 0 q 94 64 110 36 q 74 122 78 92 q 71 178 71 153 l 71 444 q 74 495 71 465 q 94 554 78 525 q 148 603 110 583 q 254 622 186 622 l 325 622 q 552 617 471 622 q 671 604 633 611 l 707 622 l 821 622 l 821 -67 q 813 -122 821 -92 q 783 -181 806 -153 q 719 -226 761 -208 q 610 -244 678 -244 l 540 -244 m 307 119 l 608 119 q 646 125 640 119 q 651 161 651 131 l 651 493 q 532 499 604 496 q 378 503 460 503 l 307 503 q 240 447 240 503 l 240 175 q 307 119 239 119 m 543 1078 q 577 1070 572 1086 q 572 1038 582 1054 q 549 1001 564 1026 q 521 945 535 976 q 503 882 507 914 q 556 856 539 876 q 572 792 572 835 q 549 723 572 743 q 474 703 526 703 q 388 727 417 703 q 360 807 360 751 q 377 892 360 847 q 422 976 394 936 q 482 1042 450 1015 q 543 1078 514 1069 z "},"ġ":{"ha":904,"x_min":56,"x_max":821,"o":"m 540 -244 q 292 -242 388 -244 q 144 -233 196 -239 q 74 -219 93 -228 q 56 -201 56 -211 l 97 -97 q 176 -115 119 -104 q 319 -125 232 -125 l 557 -125 q 630 -110 608 -125 q 651 -56 651 -94 l 651 28 q 510 8 592 17 q 324 0 429 0 l 254 0 q 147 18 185 0 q 94 64 110 36 q 74 122 78 92 q 71 178 71 153 l 71 444 q 74 495 71 465 q 94 554 78 525 q 148 603 110 583 q 254 622 186 622 l 325 622 q 552 617 471 622 q 671 604 633 611 l 707 622 l 821 622 l 821 -67 q 813 -122 821 -92 q 783 -181 806 -153 q 719 -226 761 -208 q 610 -244 678 -244 l 540 -244 m 307 119 l 608 119 q 646 125 640 119 q 651 161 651 131 l 651 493 q 532 499 604 496 q 378 503 460 503 l 307 503 q 240 447 240 503 l 240 175 q 307 119 239 119 m 446 710 q 384 727 403 710 q 364 784 364 744 q 383 842 364 826 q 446 859 402 859 q 509 842 489 859 q 528 784 528 826 q 509 728 528 745 q 446 710 489 710 z "},"ß":{"ha":960,"x_min":56,"x_max":890,"o":"m 125 0 l 125 497 l 56 497 l 56 622 l 125 622 l 125 750 q 131 807 125 775 q 157 869 136 839 q 220 918 178 899 q 338 938 263 938 l 518 938 q 653 913 608 938 q 714 849 699 888 q 729 774 729 811 l 729 769 q 699 673 729 717 q 640 588 669 629 q 585 485 585 510 q 638 449 585 449 l 707 449 q 850 407 810 449 q 890 297 890 365 l 890 160 q 887 107 890 135 q 867 55 883 79 q 813 15 850 31 q 707 0 775 0 l 574 0 q 442 10 481 0 q 403 29 403 19 l 444 133 q 531 124 476 129 q 640 119 586 119 l 668 119 q 712 135 703 119 q 721 182 721 150 l 721 265 q 668 315 721 315 l 585 315 q 469 349 510 315 q 429 444 429 383 l 429 451 q 449 540 429 501 q 494 622 468 579 q 542 701 524 671 q 560 763 560 731 q 493 818 560 818 l 347 818 q 303 794 313 818 q 294 756 294 771 l 294 0 l 125 0 z "},"`":{"ha":319,"x_min":28,"x_max":250,"o":"z "},"̀":{"ha":0,"x_min":-431,"x_max":-208,"o":"m -208 719 q -222 770 -208 738 q -251 835 -235 803 q -278 885 -268 868 q -309 915 -290 904 q -361 925 -328 925 l -376 925 q -431 885 -431 925 q -405 832 -431 864 q -344 770 -379 800 q -278 721 -308 740 q -232 700 -256 707 q -208 719 -208 693 z "},">":{"ha":889,"x_min":111,"x_max":778,"o":"m 111 167 l 111 319 l 589 486 l 111 649 l 111 806 l 778 569 l 778 403 l 111 167 z "},"≥":{"ha":889,"x_min":111,"x_max":778,"o":"m 111 181 l 111 333 l 589 500 l 111 663 l 111 819 l 778 583 l 778 417 l 111 181 m 776 -15 l 111 -14 l 111 126 l 776 125 l 776 -15 z "},"₲":{"ha":1104,"x_min":97,"x_max":1021,"o":"m 511 -83 l 511 0 l 351 0 q 197 28 253 0 q 119 111 142 56 q 97 249 97 167 l 97 558 q 157 755 97 692 q 351 818 217 818 l 511 818 l 511 903 l 650 903 l 650 818 l 769 818 q 916 808 865 818 q 967 786 967 797 l 939 671 q 853 678 924 674 q 650 683 782 682 l 650 135 q 738 137 694 136 q 825 139 782 138 l 825 314 l 726 313 l 726 435 l 1007 435 l 1007 58 l 1021 29 q 963 9 1021 18 q 765 0 904 0 l 650 0 l 650 -83 l 511 -83 m 392 133 l 511 133 l 511 685 l 392 685 q 281 586 281 685 l 281 232 q 305 159 281 185 q 392 133 329 133 z "},"«":{"ha":1025,"x_min":111,"x_max":914,"o":"z "},"»":{"ha":1025,"x_min":111,"x_max":914,"o":"m 486 0 l 725 335 l 486 667 l 675 667 l 914 335 l 675 0 l 486 0 m 111 0 l 350 335 l 111 667 l 300 667 l 539 335 l 300 0 l 111 0 z "},"‹":{"ha":650,"x_min":111,"x_max":539,"o":"m 539 0 l 300 335 l 539 667 l 350 667 l 111 335 l 350 0 l 539 0 z "},"›":{"ha":650,"x_min":111,"x_max":539,"o":"m 111 0 l 350 335 l 111 667 l 300 667 l 539 335 l 300 0 l 111 0 z "},"h":{"ha":910,"x_min":83,"x_max":833,"o":"m 83 0 l 83 900 l 253 900 l 253 594 q 393 614 311 606 q 581 622 475 622 l 650 622 q 757 603 719 622 q 810 554 794 583 q 830 495 826 525 q 833 444 833 465 l 833 0 l 664 0 l 664 447 q 597 503 664 503 l 294 503 q 260 498 268 503 q 253 472 253 493 l 253 0 l 83 0 z "},"ħ":{"ha":910,"x_min":-7,"x_max":833,"o":"m 83 0 l 83 900 l 253 900 l 253 594 q 393 614 311 606 q 581 622 475 622 l 650 622 q 757 603 719 622 q 810 554 794 583 q 830 495 826 525 q 833 444 833 465 l 833 0 l 664 0 l 664 447 q 597 503 664 503 l 294 503 q 260 498 268 503 q 253 472 253 493 l 253 0 l 83 0 m -7 706 l -7 810 l 565 810 l 565 706 l -7 706 z "},"ĥ":{"ha":910,"x_min":83,"x_max":833,"o":"m 83 0 l 83 900 l 253 900 l 253 594 q 393 614 311 606 q 581 622 475 622 l 650 622 q 757 603 719 622 q 810 554 794 583 q 830 495 826 525 q 833 444 833 465 l 833 0 l 664 0 l 664 447 q 597 503 664 503 l 294 503 q 260 498 268 503 q 253 472 253 493 l 253 0 l 83 0 m 363 814 q 383 854 363 826 q 430 910 404 882 q 469 950 456 938 q 503 974 488 967 q 542 981 518 981 l 583 981 q 625 970 608 981 q 653 949 642 960 q 692 905 668 933 q 734 850 715 876 q 753 814 753 824 q 731 797 753 799 q 683 814 710 796 l 563 894 l 432 814 q 363 814 363 771 z "},"̉":{"ha":0,"x_min":-417,"x_max":-125,"o":"m -306 704 q -321 750 -321 717 q -260 794 -289 769 q -231 853 -231 819 q -275 892 -231 892 q -320 883 -300 892 q -361 864 -340 875 q -400 853 -383 851 q -417 886 -417 856 q -394 940 -417 917 q -335 976 -372 963 q -258 989 -299 989 l -244 989 q -156 956 -187 989 q -125 883 -125 924 q -135 824 -125 850 q -164 774 -144 799 q -201 735 -182 750 q -237 711 -221 721 q -276 699 -257 700 q -306 704 -296 697 z "},"̛":{"ha":0,"x_min":-18,"x_max":283,"o":"m 133 414 q 54 426 90 414 q 3 450 18 439 q -15 479 -12 461 q 3 497 -18 497 l 75 497 q 142 517 126 497 q 157 585 157 538 l 157 639 q 199 681 157 681 l 242 681 q 283 639 283 681 l 283 606 q 133 414 283 414 z "},"˝":{"ha":542,"x_min":111,"x_max":556,"o":"z "},"̋":{"ha":0,"x_min":-569,"x_max":-125,"o":"m -347 706 q -334 756 -347 724 q -304 822 -321 789 q -278 871 -287 854 q -247 901 -265 890 q -194 911 -228 911 l -179 911 q -125 871 -125 911 q -151 818 -125 850 q -212 756 -176 786 q -278 707 -247 726 q -324 686 -300 693 q -347 706 -347 679 m -569 703 q -556 753 -569 721 q -526 819 -543 786 q -500 868 -510 851 q -469 898 -487 888 q -417 908 -450 908 l -401 908 q -347 868 -347 908 q -373 815 -347 847 q -434 753 -399 783 q -500 704 -469 724 q -546 683 -522 690 q -569 703 -569 676 z "},"-":{"ha":667,"x_min":111,"x_max":556,"o":"m 111 306 l 111 467 l 556 467 l 556 306 l 111 306 z "},"‐":{"ha":667,"x_min":111,"x_max":556,"o":"m 111 306 l 111 467 l 556 467 l 556 306 l 111 306 z "},"i":{"ha":365,"x_min":83,"x_max":282,"o":"m 182 710 q 107 731 131 710 q 83 800 83 751 q 106 870 83 850 q 182 890 129 890 q 258 870 235 890 q 282 800 282 850 q 258 731 282 753 q 182 710 235 710 m 97 0 l 97 622 l 267 622 l 267 0 l 97 0 z "},"í":{"ha":336,"x_min":83,"x_max":342,"o":"m 83 0 l 83 622 l 253 622 l 253 0 l 83 0 m 119 719 q 133 770 119 738 q 163 835 146 803 q 189 885 179 868 q 220 915 201 904 q 272 925 239 925 l 288 925 q 342 885 342 925 q 316 832 342 864 q 255 770 290 800 q 189 721 219 740 q 143 700 167 707 q 119 719 119 693 z "},"ĭ":{"ha":336,"x_min":-40,"x_max":376,"o":"m 83 0 l 83 622 l 253 622 l 253 0 l 83 0 m 168 722 q 42 742 88 722 q -22 796 -3 761 q -40 875 -40 831 q -20 910 -40 910 q 13 890 0 910 q 65 838 33 856 q 168 819 96 819 q 270 838 242 819 q 321 890 299 856 q 356 911 336 913 q 376 875 376 910 q 333 761 376 800 q 168 722 289 722 z "},"î":{"ha":336,"x_min":-32,"x_max":358,"o":"m 83 0 l 83 622 l 253 622 l 253 0 l 83 0 m -32 731 q -11 771 -32 743 q 35 826 10 799 q 75 867 61 854 q 108 890 93 883 q 147 897 124 897 l 189 897 q 231 887 214 897 q 258 865 247 876 q 297 822 274 850 q 340 767 321 793 q 358 731 358 740 q 337 714 358 715 q 289 731 315 713 l 168 811 l 38 731 q -32 731 -32 688 z "},"ȉ":{"ha":336,"x_min":-117,"x_max":328,"o":"m 83 0 l 83 622 l 253 622 l 253 0 l 83 0 z "},"ï":{"ha":336,"x_min":-24,"x_max":360,"o":"m 83 0 l 83 622 l 253 622 l 253 0 l 83 0 m 277 710 q 216 727 235 710 q 196 784 196 744 q 215 842 196 826 q 277 859 234 859 q 341 842 321 859 q 360 784 360 826 q 341 728 360 745 q 277 710 321 710 m 58 710 q -4 727 16 710 q -23 784 -23 744 q -5 842 -23 826 q 58 859 14 859 q 121 842 102 859 q 141 784 141 826 q 121 728 141 745 q 58 710 102 710 z "},"ị":{"ha":365,"x_min":83,"x_max":282,"o":"m 182 710 q 107 731 131 710 q 83 800 83 751 q 106 870 83 850 q 182 890 129 890 q 258 870 235 890 q 282 800 282 850 q 258 731 282 753 q 182 710 235 710 m 97 0 l 97 622 l 267 622 l 267 0 l 97 0 m 184 -235 q 116 -216 137 -235 q 94 -153 94 -197 q 115 -89 94 -107 q 184 -71 136 -71 q 253 -89 232 -71 q 275 -153 275 -107 q 253 -215 275 -196 q 184 -235 232 -235 z "},"ı":{"ha":336,"x_min":83,"x_max":253,"o":"m 83 0 l 83 622 l 253 622 l 253 0 l 83 0 z "},"ì":{"ha":336,"x_min":36,"x_max":258,"o":"m 83 0 l 83 622 l 253 622 l 253 0 l 83 0 m 258 719 q 245 770 258 738 q 215 835 232 803 q 189 885 199 868 q 158 915 176 904 q 106 925 139 925 l 90 925 q 36 885 36 925 q 62 832 36 864 q 123 770 88 800 q 189 721 158 740 q 235 700 211 707 q 258 719 258 693 z "},"ỉ":{"ha":336,"x_min":22,"x_max":314,"o":"m 83 0 l 83 622 l 253 622 l 253 0 l 83 0 m 133 690 q 118 736 118 703 q 179 781 150 756 q 208 839 208 806 q 164 878 208 878 q 119 869 139 878 q 78 850 99 861 q 39 840 56 838 q 22 872 22 842 q 44 926 22 903 q 103 962 67 949 q 181 975 140 975 l 194 975 q 283 942 251 975 q 314 869 314 910 q 304 810 314 836 q 275 760 294 785 q 238 722 257 736 q 201 697 218 707 q 163 685 182 686 q 133 690 143 683 z "},"ȋ":{"ha":336,"x_min":-40,"x_max":376,"o":"m 83 0 l 83 622 l 253 622 l 253 0 l 83 0 m 168 883 q 42 864 88 883 q -22 810 -3 844 q -40 731 -40 775 q -20 696 -40 696 q 13 715 0 696 q 65 768 33 750 q 168 786 96 786 q 270 768 242 786 q 321 715 299 750 q 356 694 336 693 q 376 731 376 696 q 333 844 376 806 q 168 883 289 883 z "},"ĳ":{"ha":719,"x_min":83,"x_max":636,"o":"m 182 710 q 107 731 131 710 q 83 800 83 751 q 106 870 83 850 q 182 890 129 890 q 258 870 235 890 q 282 800 282 850 q 258 731 282 753 q 182 710 235 710 m 97 0 l 97 622 l 267 622 l 267 0 l 97 0 m 536 710 q 461 731 485 710 q 438 801 438 751 q 460 870 438 850 q 536 890 483 890 q 613 870 589 890 q 636 801 636 850 q 613 731 636 753 q 536 710 589 710 m 392 -244 q 313 -238 351 -244 q 251 -222 275 -232 q 226 -203 226 -212 l 254 -119 q 302 -128 271 -124 q 368 -133 333 -133 q 428 -115 406 -133 q 451 -42 451 -97 l 451 622 l 621 622 l 621 -42 q 592 -162 621 -118 q 517 -226 564 -207 q 410 -244 469 -244 l 392 -244 z "},"ī":{"ha":336,"x_min":-21,"x_max":357,"o":"m 83 0 l 83 622 l 253 622 l 253 0 l 83 0 m 35 722 q -7 731 7 722 q -21 768 -21 740 l -21 776 q -8 812 -21 804 q 35 819 4 819 l 301 819 q 343 812 329 819 q 357 776 357 804 l 357 768 q 342 731 357 740 q 301 722 326 722 l 35 722 z "},"∞":{"ha":1228,"x_min":0,"x_max":1172,"o":"m 254 167 q 106 205 161 167 q 25 301 50 243 q 0 417 0 358 l 0 485 q 14 563 0 521 q 58 644 28 606 q 138 708 89 683 q 254 732 186 732 l 283 732 q 400 708 343 732 q 506 647 457 685 q 589 564 556 608 q 727 686 646 640 q 889 732 808 732 l 918 732 q 1039 708 990 732 q 1117 644 1088 683 q 1159 563 1146 606 q 1172 485 1172 521 l 1172 417 q 1159 334 1172 378 q 1117 252 1146 290 q 1038 190 1088 214 q 918 167 989 167 l 889 167 q 721 215 801 167 q 589 332 640 264 q 455 215 533 264 q 283 167 376 167 l 254 167 m 293 314 q 419 350 358 314 q 522 453 479 386 q 472 513 503 482 q 398 564 440 543 q 301 585 356 585 l 293 585 q 203 550 236 585 q 169 460 169 515 l 169 442 q 202 349 168 383 q 293 314 236 314 m 869 314 l 879 314 q 974 349 943 314 q 1003 442 1004 383 l 1003 460 q 973 550 1003 515 q 879 585 943 585 l 869 585 q 746 549 801 585 q 651 453 690 514 q 753 347 696 379 q 869 314 810 314 z "},"∫":{"ha":744,"x_min":56,"x_max":689,"o":"m 192 -111 q 92 -81 128 -111 q 56 -3 56 -50 q 79 67 56 40 q 139 93 103 93 q 203 65 188 93 q 219 14 219 38 q 267 44 256 14 q 279 125 279 74 l 279 501 q 308 674 279 599 q 399 792 336 749 q 563 836 461 836 q 658 805 626 836 q 689 736 689 774 q 663 657 689 683 q 596 631 636 631 q 538 653 557 631 q 519 713 519 676 q 487 703 500 713 q 467 661 474 694 q 461 557 461 628 l 461 224 q 394 -25 461 61 q 192 -111 326 -111 z "},"į":{"ha":336,"x_min":19,"x_max":301,"o":"m 83 0 l 83 622 l 253 622 l 253 0 l 83 0 m 168 710 q 106 727 125 710 q 86 784 86 744 q 105 842 86 826 q 168 859 124 859 q 231 842 211 859 q 250 784 250 826 q 231 728 250 745 q 168 710 211 710 m 151 -233 q 53 -197 88 -233 q 19 -114 19 -161 q 38 -44 19 -72 q 82 2 57 -15 q 125 25 107 19 q 191 35 161 36 q 221 21 221 33 q 206 3 221 11 q 169 -17 190 -6 q 133 -47 149 -29 q 118 -93 118 -65 q 169 -136 118 -136 q 239 -123 215 -136 q 283 -110 263 -110 q 299 -128 301 -110 q 281 -171 296 -147 q 235 -214 265 -194 q 151 -233 204 -233 z "},"ĩ":{"ha":336,"x_min":-69,"x_max":406,"o":"m 83 0 l 83 622 l 253 622 l 253 0 l 83 0 m 265 694 q 198 709 226 694 q 147 743 169 724 q 103 777 125 763 q 56 792 82 792 q 8 767 21 792 q -12 722 -6 743 q -32 699 -18 706 q -58 701 -46 693 q -69 735 -69 710 q -34 842 -69 796 q 69 889 1 889 q 135 874 108 889 q 184 840 163 860 q 228 806 206 821 q 281 792 251 792 q 328 816 313 792 q 349 861 343 840 q 367 885 354 879 q 393 883 381 892 q 406 849 406 875 q 391 776 406 811 q 345 717 376 740 q 265 694 314 694 z "},"j":{"ha":382,"x_min":-111,"x_max":299,"o":"m 199 710 q 124 731 147 710 q 100 801 100 751 q 123 870 100 850 q 199 890 146 890 q 275 870 251 890 q 299 801 299 850 q 275 731 299 753 q 199 710 251 710 m 54 -244 q -24 -238 14 -244 q -87 -222 -62 -232 q -111 -203 -111 -212 l -83 -119 q -35 -128 -67 -124 q 31 -133 -4 -133 q 91 -115 68 -133 q 114 -42 114 -97 l 114 622 l 283 622 l 283 -42 q 255 -162 283 -118 q 179 -226 226 -207 q 72 -244 132 -244 l 54 -244 z "},"ĵ":{"ha":367,"x_min":-111,"x_max":388,"o":"m 54 -244 q -24 -238 14 -244 q -87 -222 -62 -232 q -111 -203 -111 -212 l -83 -119 q -35 -128 -67 -124 q 31 -133 -4 -133 q 91 -115 68 -133 q 114 -42 114 -97 l 114 622 l 283 622 l 283 -42 q 255 -162 283 -118 q 179 -226 226 -207 q 72 -244 132 -244 l 54 -244 m -3 731 q 18 771 -3 743 q 65 826 39 799 q 104 867 90 854 q 138 890 122 883 q 176 897 153 897 l 218 897 q 260 887 243 897 q 288 865 276 876 q 326 822 303 850 q 369 767 350 793 q 388 731 388 740 q 366 714 388 715 q 318 731 344 713 l 197 811 l 67 731 q -3 731 -3 688 z "},"ȷ":{"ha":367,"x_min":-111,"x_max":283,"o":"m 54 -244 q -24 -238 14 -244 q -87 -222 -62 -232 q -111 -203 -111 -212 l -83 -119 q -35 -128 -67 -124 q 31 -133 -4 -133 q 91 -115 68 -133 q 114 -42 114 -97 l 114 622 l 283 622 l 283 -42 q 255 -162 283 -118 q 179 -226 226 -207 q 72 -244 132 -244 l 54 -244 z "},"k":{"ha":858,"x_min":83,"x_max":858,"o":"m 749 -14 q 649 0 690 -14 q 563 60 608 14 q 540 82 558 64 q 501 122 522 100 q 461 163 479 144 q 438 186 443 181 q 372 240 403 221 q 294 260 340 260 q 258 254 264 260 q 253 217 253 249 l 253 0 l 83 0 l 83 879 l 253 879 l 253 379 l 297 379 q 342 399 322 379 q 389 449 354 411 q 467 533 424 486 q 547 621 511 581 l 751 621 l 729 578 q 660 508 697 544 q 587 437 622 471 q 522 377 551 403 q 478 343 493 351 q 553 292 519 321 q 625 228 586 264 q 718 149 664 193 q 808 103 767 110 q 858 97 850 97 l 833 0 q 796 -9 819 -4 q 749 -14 772 -14 z "},"ķ":{"ha":858,"x_min":83,"x_max":858,"o":"m 749 -14 q 649 0 690 -14 q 563 60 608 14 q 540 82 558 64 q 501 122 522 100 q 461 163 479 144 q 438 186 443 181 q 372 240 403 221 q 294 260 340 260 q 258 254 264 260 q 253 217 253 249 l 253 0 l 83 0 l 83 879 l 253 879 l 253 379 l 297 379 q 342 399 322 379 q 389 449 354 411 q 467 533 424 486 q 547 621 511 581 l 751 621 l 729 578 q 660 508 697 544 q 587 437 622 471 q 522 377 551 403 q 478 343 493 351 q 553 292 519 321 q 625 228 586 264 q 718 149 664 193 q 808 103 767 110 q 858 97 850 97 l 833 0 q 796 -9 819 -4 q 749 -14 772 -14 m 346 -367 q 318 -360 322 -374 q 322 -333 314 -347 q 341 -304 329 -324 q 364 -257 353 -283 q 379 -205 376 -231 q 336 -183 349 -200 q 322 -130 322 -166 q 341 -73 322 -90 q 403 -57 360 -57 q 474 -77 450 -57 q 497 -143 497 -97 q 483 -213 497 -176 q 446 -282 469 -250 q 396 -337 423 -315 q 346 -367 370 -360 z "},"ĸ":{"ha":858,"x_min":83,"x_max":858,"o":"m 749 -14 q 649 0 690 -14 q 563 60 608 14 q 540 82 558 64 q 501 122 522 100 q 461 163 479 144 q 438 186 443 181 q 372 240 403 221 q 294 260 340 260 q 258 254 264 260 q 253 217 253 249 l 253 0 l 83 0 l 83 621 l 253 621 l 253 379 l 297 379 q 342 399 322 379 q 389 449 354 411 q 467 533 424 486 q 547 621 511 581 l 751 621 l 729 578 q 660 508 697 544 q 587 437 622 471 q 522 377 551 403 q 478 343 493 351 q 553 292 519 321 q 625 228 586 264 q 718 149 664 193 q 808 103 767 110 q 858 97 850 97 l 833 0 q 796 -9 819 -4 q 749 -14 772 -14 z "},"₭":{"ha":1197,"x_min":83,"x_max":1183,"o":"m 1071 0 q 953 28 1003 0 q 854 103 903 56 q 726 231 801 158 q 656 290 692 267 q 574 326 619 314 q 463 339 529 339 l 397 339 l 397 14 l 214 14 l 214 342 l 83 342 l 83 475 l 214 475 l 214 719 l 200 831 l 397 831 l 397 475 l 475 475 q 521 482 503 475 q 554 504 539 489 q 642 602 593 543 q 740 722 692 661 q 824 831 789 783 l 1049 831 l 992 747 q 906 657 956 708 q 810 557 857 606 q 729 475 763 508 l 1071 475 l 1071 342 l 847 342 q 910 288 879 315 q 981 224 940 260 q 1072 158 1029 179 q 1145 132 1115 138 q 1183 126 1175 126 l 1156 14 q 1131 5 1151 10 q 1071 0 1110 0 z "},"l":{"ha":350,"x_min":83,"x_max":267,"o":"m 97 0 l 97 769 l 83 881 l 267 881 l 267 0 l 97 0 z "},"ĺ":{"ha":350,"x_min":83,"x_max":356,"o":"m 97 0 l 97 769 l 83 881 l 267 881 l 267 0 l 97 0 m 133 969 q 147 1020 133 988 q 176 1085 160 1053 q 203 1135 193 1118 q 234 1165 215 1154 q 286 1175 253 1175 l 301 1175 q 356 1135 356 1175 q 330 1082 356 1114 q 269 1020 304 1050 q 203 971 233 990 q 157 950 181 957 q 133 969 133 943 z "},"ľ":{"ha":450,"x_min":83,"x_max":526,"o":"m 97 0 l 97 769 l 83 881 l 267 881 l 267 0 l 97 0 m 392 551 q 357 539 369 529 q 346 578 344 549 q 354 669 350 621 q 364 762 358 718 q 375 832 369 806 q 465 906 392 907 q 513 889 499 904 q 526 844 526 874 q 512 773 526 815 q 476 686 497 731 q 431 605 454 642 q 392 551 408 568 z "}}}
